<svg width="50" height="34" viewBox="0 0 50 34" fill="none" xmlns="http://www.w3.org/2000/svg">
<g clip-path="url(#clip0_25_6239)">
<path d="M0 0H50V33.3333H0V0Z" fill="#FFDA44"/>
<path d="M0 0H16.6667V33.3333H0V0Z" fill="#0052B4"/>
<path d="M33.3334 0H50V33.3333H33.3334V0ZM19.386 11.0721H24.9513V17.3879H19.386V11.0721Z" fill="#D80027"/>
<path d="M26.0818 11.0721V17.3782V11.0721ZM27.6998 11.0721V17.3782V11.0721ZM29.3177 11.0721V17.3782V11.0721Z" fill="black"/>
<path fill-rule="evenodd" clip-rule="evenodd" d="M26.423 11.0721V17.3782H25.7407V11.0721H26.423ZM28.0409 11.0721V17.3782H27.3587V11.0721H28.0409ZM28.9766 17.3782V11.0721H29.6588V17.3782H28.9766Z" fill="#D80027"/>
<path d="M24.1131 17.3879V23.694V17.3879ZM22.8168 17.3879V23.694V17.3879ZM21.5205 17.3977V22.6511V17.3977ZM20.1852 17.3977V21.9883V17.3977Z" fill="black"/>
<path fill-rule="evenodd" clip-rule="evenodd" d="M23.0604 17.3879V23.694H22.5731V17.3879H23.0604ZM24.3567 17.3879V23.694H23.8694V17.3879H24.3567ZM19.9415 21.9883V17.3977H20.4289V21.9883H19.9415ZM21.7641 17.3977V22.6511H21.2768V17.3977H21.7641Z" fill="#D80027"/>
<path d="M19.4835 14.23L22.1735 11.0721L24.9513 14.2203L22.2125 17.3782L19.4835 14.23Z" fill="#FFDA44"/>
<path d="M17.7583 9.34692V18.3333C17.7583 21.6764 20.4191 23.6159 22.4951 24.6198C22.4172 24.7563 24.9415 25.4288 24.9415 25.4288C24.9415 25.4288 27.4659 24.7563 27.3879 24.6198C29.4737 23.6159 32.1248 21.6861 32.1248 18.3333V9.34692H17.7583ZM30.4191 18.3333C30.4191 19.9805 29.4445 21.1988 27.2222 22.612C26.384 23.1481 25.5166 23.4892 24.9513 23.6842C24.386 23.4892 23.5185 23.1481 22.6803 22.612C20.4581 21.1988 19.4834 19.883 19.4834 18.3333V11.0721H30.4191V18.3333Z" fill="#BC8B00"/>
<path d="M25.77 18.4113H28.6452V19.2495H25.77V18.4113ZM25.77 20.1267H28.6452V20.9649H25.77V20.1267Z" fill="#D80027"/>
</g>
<defs>
<clipPath id="clip0_25_6239">
<rect width="50" height="33.3333" rx="2" fill="white"/>
</clipPath>
</defs>
</svg>
