<svg width="50" height="34" viewBox="0 0 50 34" fill="none" xmlns="http://www.w3.org/2000/svg">
<g clip-path="url(#clip0_27_6)">
<path d="M0 17.3331H50V33.9998H0V17.3331Z" fill="black"/>
<path d="M0 0.666504H50V17.3332H0V0.666504Z" fill="#D80027"/>
<path d="M32.4269 13.8828L34.1325 13.0446L33.4113 11.1928L31.5887 11.7971L32.4269 13.8828ZM27.9824 8.42474L28.5185 6.59238L26.6569 5.89062L25.8772 7.64501L27.9824 8.42474ZM30.8479 10.6859L32.037 9.19472L30.5848 7.83994L29.2008 9.16548L30.8479 10.6859ZM32.7388 17.4013L34.6394 17.3234V15.2474L32.4074 15.2668L32.7388 17.4013ZM31.5107 21.1148L33.3431 21.6509L34.0546 19.799L32.3002 19.0193L31.5107 21.1148ZM28.6842 24.2727L30.1364 25.5105L31.54 24.107L30.2631 22.6743L28.6842 24.2727ZM24.1033 9.87698L25.0585 11.8166L27.193 12.1382L25.6433 13.6489L25.9941 15.7834L24.0838 14.7698L22.1637 15.7639L22.5341 13.6294L20.9941 12.1187L23.1384 11.8166L24.1033 9.87698Z" fill="#FFDA44"/>
<path d="M24.4444 6.64111L24.1813 8.42474C28.382 8.73663 31.6861 12.2454 31.6861 16.5242C31.6861 21.0076 28.0507 24.6041 23.5575 24.6528C20.7115 24.682 18.5575 23.2103 17.0273 21.3682L15.6725 22.567C17.1345 24.4189 19.6491 26.4559 23.5575 26.4559C29.0448 26.4559 33.4893 22.0115 33.4893 16.5242C33.499 11.339 29.5224 7.07971 24.4444 6.64111Z" fill="#FFDA44"/>
<path d="M28.4503 22.4403L27.3002 23.8048C27.3002 23.8048 32.3587 27.5963 32.5243 27.7425C32.69 27.8886 33.0312 27.9374 33.4113 27.4793C33.7719 27.0407 33.6842 26.6898 33.499 26.5339C33.3041 26.3877 28.4503 22.4403 28.4503 22.4403Z" fill="black"/>
<path d="M20.0877 15.988C19.3372 16.9919 19.3567 18.2395 20.3606 18.9997C20.3606 18.9997 33.538 28.8925 33.7037 29.0387C33.8694 29.1849 34.2105 29.2337 34.5907 28.7756C34.9513 28.337 34.8636 27.9861 34.6784 27.8301C34.4932 27.6839 20.0877 15.988 20.0877 15.988ZM24.7368 25.6469L25.4484 27.4208L27.3489 26.836L26.8811 24.9744L24.7368 25.6469ZM20.7992 25.2863L20.6043 27.1869L22.5634 27.5377L23.002 25.6761L20.7992 25.2863ZM17.3197 23.22L16.3158 24.8379L17.9142 26.0173L19.1326 24.5358L17.3197 23.22Z" fill="#FFDA44"/>
</g>
<defs>
<clipPath id="clip0_27_6">
<rect y="0.666504" width="50" height="33.3333" rx="2" fill="white"/>
</clipPath>
</defs>
</svg>
