<svg width="50" height="34" viewBox="0 0 50 34" fill="none" xmlns="http://www.w3.org/2000/svg">
<g clip-path="url(#clip0_27_153)">
<path d="M0 0H49.9025V33.3333H0V0Z" fill="white"/>
<path d="M0 0H49.9025V11.1111H0V0ZM0 22.2222H49.9025V33.3333H0V22.2222Z" fill="#338AF3"/>
<path d="M25 20.5653C27.1532 20.5653 28.8987 18.8199 28.8987 16.6667C28.8987 14.5135 27.1532 12.7681 25 12.7681C22.8469 12.7681 21.1014 14.5135 21.1014 16.6667C21.1014 18.8199 22.8469 20.5653 25 20.5653Z" fill="#FFDA44"/>
<path fill-rule="evenodd" clip-rule="evenodd" d="M25 13.0117C22.9814 13.0117 21.3451 14.6481 21.3451 16.6667C21.3451 18.6853 22.9814 20.3217 25 20.3217C27.0186 20.3217 28.655 18.6853 28.655 16.6667C28.655 14.6481 27.0186 13.0117 25 13.0117ZM20.8577 16.6667C20.8577 14.379 22.7123 12.5244 25 12.5244C27.2878 12.5244 29.1423 14.379 29.1423 16.6667C29.1423 18.9544 27.2878 20.809 25 20.809C22.7123 20.809 20.8577 18.9544 20.8577 16.6667Z" fill="#D6AB00"/>
</g>
<defs>
<clipPath id="clip0_27_153">
<rect width="50" height="33.3333" rx="2" fill="white"/>
</clipPath>
</defs>
</svg>
