<svg width="50" height="34" viewBox="0 0 50 34" fill="none" xmlns="http://www.w3.org/2000/svg">
<g clip-path="url(#clip0_27_50)">
<path d="M0 0H50V33.3333H0V0Z" fill="#10338C"/>
<path d="M21.6569 16.6374C21.6861 16.6082 21.7056 16.5789 21.7349 16.5497C21.7154 16.5789 21.6861 16.6082 21.6569 16.6374ZM18.3236 20.7212L19.3957 22.9532L21.8031 22.3976L20.731 24.6199L22.6705 26.1598L20.2534 26.7056L20.2631 29.1813L18.3236 27.6316L16.3937 29.1813L16.4035 26.7056L13.9863 26.1598L15.9259 24.6199L14.844 22.3976L17.2612 22.9532L18.3236 20.7212ZM37.6121 23.499L38.1189 24.5614L39.269 24.2982L38.7524 25.3606L39.6783 26.0916L38.5282 26.345V27.5341L37.6121 26.7934L36.6861 27.5341L36.6959 26.345L35.5458 26.0916L36.4717 25.3606L35.9551 24.2982L37.1052 24.5614L37.6121 23.499ZM32.8752 12.193L33.382 13.2553L34.5321 12.9922L34.0156 14.0546L34.9415 14.7856L33.7914 15.0487V16.2281L32.8752 15.4873L31.9493 16.2281L31.959 15.0487L30.7992 14.7856L31.7251 14.0546L31.2086 12.9922L32.3586 13.2553L32.8752 12.193ZM37.6121 5.74072L38.1189 6.8031L39.269 6.53994L38.7524 7.60232L39.6783 8.33331L38.5282 8.59647V9.77581L37.6121 9.03507L36.6861 9.77581L36.6959 8.59647L35.5458 8.33331L36.4717 7.60232L35.9551 6.53994L37.1052 6.8031L37.6121 5.74072ZM41.7544 10.5848L42.2612 11.6472L43.4113 11.384L42.8947 12.4464L43.8206 13.1774L42.6705 13.4308V14.6199L41.7544 13.8791L40.8284 14.6199V13.4308L39.6783 13.1774L40.6043 12.4464L40.0877 11.384L41.2378 11.6472L41.7544 10.5848ZM38.7914 16.2281L39.191 17.4659H40.4873L39.4347 18.2261L39.844 19.4639L38.7914 18.6939L37.7388 19.4639L38.1384 18.2261L37.0955 17.4659H38.3918L38.7914 16.2281Z" fill="white"/>
<path d="M24.8343 0V2.98246L20.4386 5.42885H24.8343V11.2086H19.0741L24.8343 14.4055V16.6374H22.232L15.0682 12.6511V16.6374H9.64914V11.9006L1.13062 16.6374H-0.116943V13.655L4.28851 11.2086H-0.116943V5.42885H5.64329L-0.116943 2.22222V0H2.4854L9.64914 3.97661V0H15.0682V4.73684L23.5965 0H24.8343Z" fill="white"/>
<path d="M13.9181 0H10.7992V6.75439H-0.116943V9.87329H10.7992V16.6374H13.9181V9.87329H24.8343V6.75439H13.9181V0Z" fill="#D80027"/>
<path d="M15.0682 11.2086L24.8343 16.6375V15.0975L17.8363 11.2086H15.0682Z" fill="#0052B4"/>
<path d="M15.0682 11.2086L24.8343 16.6375V15.0975L17.8363 11.2086H15.0682Z" fill="white"/>
<path d="M15.0682 11.2086L24.8343 16.6375V15.0975L17.8363 11.2086H15.0682ZM6.89085 11.2086L-0.116943 15.0975V16.6375L9.64914 11.2086H6.89085Z" fill="#D80027"/>
<path d="M9.64914 5.42885L-0.116943 0V1.53021L6.89085 5.42885H9.64914Z" fill="#0052B4"/>
<path d="M9.64914 5.42885L-0.116943 0V1.53021L6.89085 5.42885H9.64914Z" fill="white"/>
<path d="M9.64914 5.42885L-0.116943 0V1.53021L6.89085 5.42885H9.64914ZM17.8363 5.42885L24.8343 1.53021V0L15.0682 5.42885H17.8363Z" fill="#D80027"/>
</g>
<defs>
<clipPath id="clip0_27_50">
<rect width="50" height="33.3333" rx="2" fill="white"/>
</clipPath>
</defs>
</svg>
