<svg width="50" height="34" viewBox="0 0 50 34" fill="none" xmlns="http://www.w3.org/2000/svg">
<g clip-path="url(#clip0_25_6206)">
<path d="M0 0H50V34H0V0Z" fill="#009B3A"/>
<path d="M25 1.9187L44.9707 16.9702L25 32.0117L4.93176 16.9702L25 1.9187Z" fill="#FEDF00"/>
<path d="M25 24.9929C29.3279 24.9929 32.8363 21.4143 32.8363 16.9999C32.8363 12.5855 29.3279 9.00696 25 9.00696C20.6722 9.00696 17.1638 12.5855 17.1638 16.9999C17.1638 21.4143 20.6722 24.9929 25 24.9929Z" fill="white"/>
<path d="M21.0429 16.4731C19.6881 16.4731 18.3723 16.6819 17.1345 17.0696C17.193 21.434 20.6725 24.9533 24.961 24.9533C27.6121 24.9533 29.961 23.6012 31.3743 21.5433C28.9474 18.4614 25.2144 16.4731 21.0429 16.4731ZM32.6413 18.4913C32.7291 17.9942 32.7875 17.4872 32.7875 16.9603C32.7875 12.5462 29.2788 8.96729 24.9513 8.96729C21.7252 8.96729 18.9571 10.9655 17.7486 13.7989C18.8109 13.5802 19.9026 13.4609 21.0234 13.4609C25.5848 13.4708 29.6979 15.3994 32.6413 18.4913Z" fill="#002776"/>
</g>
<defs>
<clipPath id="clip0_25_6206">
<rect width="50" height="34" rx="2" fill="white"/>
</clipPath>
</defs>
</svg>
