<svg width="50" height="34" viewBox="0 0 50 34" fill="none" xmlns="http://www.w3.org/2000/svg">
<g clip-path="url(#clip0_27_31)">
<path d="M0 0.333008H50V33.6663H0V0.333008Z" fill="#D80027"/>
<path d="M22.1053 23.6468L21.1599 22.1263L19.4152 22.5552L20.5751 21.1809L19.6296 19.6604L21.2963 20.333L22.4464 18.9587L22.3197 20.7521L23.9864 21.4246L22.2417 21.8534L22.1053 23.6468ZM28.3236 8.32516L27.3392 9.82614L28.4698 11.2199L26.7446 10.7521L25.7602 12.2628L25.6628 10.4694L23.9376 10.0016L25.614 9.3583L25.5166 7.56493L26.6472 8.95869L28.3236 8.32516ZM23.0214 2.80859L22.8265 4.59222L24.4639 5.33296L22.7096 5.70333L22.5146 7.48696L21.6179 5.9275L19.8733 6.29787L21.0721 4.96259L20.1754 3.41288L21.8129 4.14388L23.0214 2.80859ZM28.538 16.1029L27.0858 17.1653L27.6511 18.871L26.1988 17.8183L24.7466 18.8905L25.2924 17.1751L23.8402 16.1322L25.6335 16.1224L26.1793 14.407L26.7446 16.1127L28.538 16.1029ZM11.2086 4.84563L12.8947 10.0601H18.3723L13.9474 13.2667L15.6335 18.4811L11.2086 15.2647L6.77389 18.4811L8.46979 13.2667L4.0351 10.0601H9.52242L11.2086 4.84563Z" fill="#FFDA44"/>
</g>
<defs>
<clipPath id="clip0_27_31">
<rect y="0.333008" width="50" height="33.3333" rx="2" fill="white"/>
</clipPath>
</defs>
</svg>
