<svg width="50" height="34" viewBox="0 0 50 34" fill="none" xmlns="http://www.w3.org/2000/svg">
<g clip-path="url(#clip0_30_38)">
<path d="M0 0H50V33.3301H0V0Z" fill="white"/>
<path d="M0 21.0156H20.6543V33.3301H0V21.0156Z" fill="#D80027"/>
<path d="M0 0H20.6543V12.3242H0V0Z" fill="#0052B4"/>
<path d="M29.3457 0H50V12.3242H29.3457V0Z" fill="#D80027"/>
<path d="M29.3457 21.0156H50V33.3301H29.3457V21.0156Z" fill="#0052B4"/>
<path d="M25 12.6953H20.127V17.5195C20.127 17.5195 22.0312 18.1055 25 18.1055V12.6953Z" fill="#0052B4"/>
<path fill-rule="evenodd" clip-rule="evenodd" d="M19.8833 12.4517H25.2437V18.3491H25C23.4997 18.3491 22.2675 18.2011 21.4087 18.0526C20.9792 17.9784 20.643 17.904 20.4131 17.8478C20.2981 17.8197 20.2097 17.7962 20.1496 17.7796C20.1195 17.7712 20.0965 17.7646 20.0807 17.76C20.0728 17.7577 20.0667 17.7559 20.0625 17.7546L20.0575 17.7531L20.0561 17.7527L20.0554 17.7525C20.0554 17.7524 20.0553 17.7524 20.127 17.5195L20.0553 17.7524L19.8833 17.6995V12.4517ZM20.3706 17.3344C20.4151 17.3461 20.4678 17.3595 20.5287 17.3744C20.7486 17.4281 21.074 17.5002 21.4917 17.5724C22.2806 17.7088 23.3981 17.8456 24.7563 17.8605V12.939H20.3706V17.3344Z" fill="white"/>
<path d="M20.127 17.5195V18.1055C20.127 20.791 22.3047 22.9785 25 22.9785V18.1055C22.0312 18.1055 20.127 17.5195 20.127 17.5195Z" fill="#D80027"/>
<path fill-rule="evenodd" clip-rule="evenodd" d="M20.3706 17.8373V18.1054C20.3706 20.5753 22.3096 22.6016 24.7563 22.7285V18.3478C23.3661 18.3329 22.2205 18.1929 21.4087 18.0526C20.9792 17.9783 20.643 17.9039 20.4131 17.8477C20.3985 17.8442 20.3844 17.8407 20.3706 17.8373ZM20.1986 17.2866L20.1992 17.2868L20.2026 17.2878C20.2057 17.2887 20.2107 17.2902 20.2175 17.2922C20.231 17.2962 20.2518 17.3021 20.2796 17.3098C20.3352 17.3252 20.4188 17.3475 20.5287 17.3743C20.7486 17.428 21.074 17.5001 21.4917 17.5724C22.3273 17.7168 23.5315 17.8618 25 17.8618H25.2437V23.2221H25C22.1698 23.2221 19.8833 20.9252 19.8833 18.1054V17.1896L20.1986 17.2866Z" fill="white"/>
<path d="M25 22.9785C27.6855 22.9785 29.873 20.8008 29.873 18.1055V17.5195C29.873 17.5195 27.9688 18.1055 25 18.1055V22.9785Z" fill="#0052B4"/>
<path fill-rule="evenodd" clip-rule="evenodd" d="M30.1167 17.1896V18.1054C30.1167 20.9356 27.8198 23.2221 25 23.2221V22.9785H24.7563V17.8618H25C26.4685 17.8618 27.6727 17.7168 28.5083 17.5724C28.926 17.5001 29.2514 17.428 29.4713 17.3743C29.5813 17.3475 29.6649 17.3252 29.7204 17.3098C29.7482 17.3021 29.769 17.2962 29.7825 17.2922C29.7893 17.2902 29.7943 17.2887 29.7975 17.2878L29.8008 17.2868L29.8014 17.2866L29.8015 17.2866L30.1167 17.1896ZM25.2437 22.7285C27.6823 22.6018 29.6294 20.5838 29.6294 18.1054V17.8373C29.6157 17.8407 29.6015 17.8442 29.5869 17.8477C29.357 17.9039 29.0208 17.9783 28.5913 18.0526C27.7795 18.1929 26.6339 18.3329 25.2437 18.3478V22.7285Z" fill="white"/>
<path d="M25 12.6953V18.1055C27.9688 18.1055 29.873 17.5195 29.873 17.5195V12.6953H25Z" fill="#D80027"/>
<path fill-rule="evenodd" clip-rule="evenodd" d="M24.7563 12.4517H30.1167V17.6995L29.9447 17.7524L29.8731 17.5195C29.9447 17.7524 29.9447 17.7524 29.9446 17.7525L29.944 17.7527L29.9425 17.7531L29.9376 17.7546C29.9333 17.7559 29.9272 17.7577 29.9194 17.76C29.9036 17.7646 29.8805 17.7712 29.8505 17.7796C29.7903 17.7962 29.7019 17.8197 29.5869 17.8478C29.357 17.904 29.0208 17.9784 28.5913 18.0526C27.7326 18.2011 26.5003 18.3491 25 18.3491H24.7563V12.4517ZM29.6294 17.3344V12.939H25.2437V17.8605C26.6019 17.8456 27.7194 17.7088 28.5083 17.5724C28.926 17.5002 29.2514 17.4281 29.4713 17.3744C29.5322 17.3595 29.585 17.3461 29.6294 17.3344Z" fill="white"/>
</g>
<defs>
<clipPath id="clip0_30_38">
<rect width="50" height="33.3301" rx="2" fill="white"/>
</clipPath>
</defs>
</svg>
