<svg width="50" height="34" viewBox="0 0 50 34" fill="none" xmlns="http://www.w3.org/2000/svg">
<g clip-path="url(#clip0_27_205)">
<path d="M0 0H50V33.3301H0V0Z" fill="#FFDA44"/>
<path d="M0 16.6699H50V25H0V16.6699Z" fill="#0052B4"/>
<path d="M0 25H50V33.3301H0V25Z" fill="#D80027"/>
<path d="M25 22.4707C28.2037 22.4707 30.8008 19.8736 30.8008 16.6699C30.8008 13.4662 28.2037 10.8691 25 10.8691C21.7963 10.8691 19.1992 13.4662 19.1992 16.6699C19.1992 19.8736 21.7963 22.4707 25 22.4707Z" fill="#FFDA44"/>
<path d="M36.0547 7.8027C36.0547 7.8027 33.3984 6.45505 32.7441 6.2402C32.0898 6.02536 27.9492 4.95114 27.9492 5.55661C27.9492 6.56247 26.6309 6.72849 26.4355 6.72849C26.2402 6.72849 26.2402 6.21091 24.9902 6.21091C23.7402 6.21091 23.6523 6.67966 23.4473 6.67966C23.2324 6.67966 22.0312 6.582 22.0312 5.55661C22.0312 5.0488 17.8418 5.94724 17.2363 6.2402C16.6406 6.54294 13.9258 7.8027 13.9258 7.8027C13.9258 7.8027 18.3984 8.06638 19.1895 8.40817C19.9805 8.74997 23.4668 10.0195 23.4668 10.0195L23.1934 11.3183H26.8848L26.5137 10.0195C26.5137 10.0195 29.9414 8.77927 30.791 8.40817C31.6406 8.03708 36.0547 7.8027 36.0547 7.8027Z" fill="#4C1F00"/>
<path d="M21.2598 16.7676C21.2598 18.8281 22.9395 20.5078 25 20.5078C27.0605 20.5078 28.7402 18.8281 28.7402 16.7676V15.6445H21.2695V16.7676H21.2598Z" fill="#57BA17"/>
<path d="M25 10.791C22.9395 10.791 21.2598 12.4707 21.2598 14.5313V15.6543H28.7305V14.5313C28.7402 12.4707 27.0605 10.791 25 10.791Z" fill="#338AF3"/>
</g>
<defs>
<clipPath id="clip0_27_205">
<rect width="50" height="33.3301" rx="2" fill="white"/>
</clipPath>
</defs>
</svg>
