<svg width="50" height="34" viewBox="0 0 50 34" fill="none" xmlns="http://www.w3.org/2000/svg">
<g clip-path="url(#clip0_27_113)">
<path d="M0 -0.000244141H50V33.2783H0V-0.000244141Z" fill="white"/>
<path d="M28.125 -0.000488281H21.875V13.5187H0V19.7584H21.875V33.2776H28.125V19.7584H50V13.5187H28.125V-0.000488281Z" fill="#D80027"/>
<path d="M38.4556 22.426L50 28.8291V22.426H38.4556ZM30.4348 22.426L50 33.2776V30.209L35.9675 22.426H30.4348ZM44.7885 33.2776L30.4348 25.3158V33.2776H44.7885Z" fill="#0052B4"/>
<path d="M30.4348 22.426L50 33.2776V30.209L35.9675 22.426H30.4348Z" fill="white"/>
<path d="M30.4348 22.426L50 33.2776V30.209L35.9675 22.426H30.4348Z" fill="#D80027"/>
<path d="M8.82236 22.4258L0 27.319V22.4258H8.82236ZM19.5652 23.8057V33.2774H2.48936L19.5652 23.8057Z" fill="#0052B4"/>
<path d="M14.0325 22.426L0 30.209V33.2776L19.5652 22.426H14.0325Z" fill="#D80027"/>
<path d="M11.5444 10.8511L0 4.448V10.8511H11.5444ZM19.5652 10.8511L0 -0.000488281V3.06806L14.0325 10.8511H19.5652ZM5.21152 -0.000488281L19.5652 7.96132V-0.000488281H5.21152Z" fill="#0052B4"/>
<path d="M19.5652 10.8511L0 -0.000488281V3.06806L14.0325 10.8511H19.5652Z" fill="white"/>
<path d="M19.5652 10.8511L0 -0.000488281V3.06806L14.0325 10.8511H19.5652Z" fill="#D80027"/>
<path d="M41.1776 10.8512L50 5.9579V10.8512H41.1776ZM30.4348 9.47122V-0.000488281H47.5106L30.4348 9.47122Z" fill="#0052B4"/>
<path d="M35.9675 10.8511L50 3.06806V-0.000488281L30.4348 10.8511H35.9675Z" fill="#D80027"/>
</g>
<defs>
<clipPath id="clip0_27_113">
<rect y="-0.000244141" width="50" height="33.2781" rx="2" fill="white"/>
</clipPath>
</defs>
</svg>
