<svg width="50" height="36" viewBox="0 0 50 36" fill="none" xmlns="http://www.w3.org/2000/svg">
<g clip-path="url(#clip0_27_222)">
<path d="M0 0.849121H50V35.8954H0V0.849121Z" fill="white"/>
<path d="M0 0.849121H16.6667V35.8954H0V0.849121ZM33.3333 0.849121H50V35.8954H33.3333V0.849121Z" fill="#338AF3"/>
<path d="M24.9513 19.4277C26.324 19.4277 27.4367 18.2578 27.4367 16.8146C27.4367 15.3715 26.324 14.2015 24.9513 14.2015C23.5787 14.2015 22.4659 15.3715 22.4659 16.8146C22.4659 18.2578 23.5787 19.4277 24.9513 19.4277Z" fill="#DCC26D"/>
<path d="M18.9279 16.8249C18.9279 19.0896 20.078 21.18 21.9298 22.3073C22.5049 22.6557 23.2456 22.4507 23.577 21.8461C23.9084 21.2415 23.7134 20.4627 23.1384 20.1143C22.0175 19.438 21.3353 18.1775 21.3353 16.8249C21.3353 16.1281 20.7992 15.5542 20.1267 15.5542C19.4542 15.5542 18.9279 16.1178 18.9279 16.8249ZM28.1969 22.1638C29.9318 20.9956 30.9844 18.9871 30.9746 16.8249C30.9746 16.1281 30.4386 15.5542 29.7661 15.5542C29.1033 15.5542 28.5575 16.1178 28.5575 16.8249C28.5575 18.1263 27.924 19.3355 26.8908 20.0323C26.3255 20.4012 26.1403 21.18 26.4912 21.7744C26.8421 22.3687 27.5828 22.5634 28.1481 22.1945C28.1676 22.1843 28.1774 22.174 28.1969 22.1638Z" fill="#628A40"/>
</g>
<defs>
<clipPath id="clip0_27_222">
<rect y="0.849121" width="50" height="35.0462" rx="2" fill="white"/>
</clipPath>
</defs>
</svg>
