<svg width="50" height="36" viewBox="0 0 50 36" fill="none" xmlns="http://www.w3.org/2000/svg">
<g clip-path="url(#clip0_27_229)">
<path d="M0 0.651978H50V35.6982H0V0.651978Z" fill="white"/>
<path d="M0 0.651978H50V12.3341H0V0.651978ZM0 24.0161H50V35.6982H0V24.0161ZM19.8343 12.7337L20.4873 14.4348L22.2027 14.5373L20.8382 15.6542L21.2963 17.468L19.8343 16.4535L18.3723 17.468L18.8304 15.6542L17.4659 14.5373L19.1813 14.4348L19.8343 12.7337ZM30.0682 12.7337L30.7212 14.4348L32.4366 14.5373L31.0721 15.6542L31.5302 17.468L30.0682 16.4535L28.6062 17.468L29.0643 15.6542L27.6998 14.5373L29.4152 14.4348L30.0682 12.7337ZM24.9513 15.7772L25.6043 17.4783L27.3197 17.5807L25.9552 18.6977L26.4133 20.5115L24.9513 19.497L23.4893 20.5115L23.9474 18.6977L22.5828 17.5807L24.2982 17.4783L24.9513 15.7772ZM19.8343 18.8207L20.4873 20.5218L22.2027 20.6242L20.8382 21.7412L21.2963 23.5448L19.8343 22.5303L18.3723 23.5448L18.8304 21.7412L17.4659 20.6242L19.1813 20.5218L19.8343 18.8207ZM30.0682 18.8207L30.7212 20.5218L32.4366 20.6242L31.0721 21.7412L31.5302 23.5448L30.0682 22.5303L28.6062 23.5448L29.0643 21.7412L27.6998 20.6242L29.4152 20.5218L30.0682 18.8207Z" fill="#338AF3"/>
</g>
<defs>
<clipPath id="clip0_27_229">
<rect y="0.651978" width="50" height="35.0462" rx="2" fill="white"/>
</clipPath>
</defs>
</svg>
