<svg width="50" height="34" viewBox="0 0 50 34" fill="none" xmlns="http://www.w3.org/2000/svg">
<g clip-path="url(#clip0_26_6273)">
<path d="M33.3333 0H0V33.2651H50V0H33.3333Z" fill="#DC2339"/>
<path d="M0 0H16.6667V33.3333H0V0Z" fill="#11865D"/>
<path d="M16.6667 0H33.3334V33.3333H16.6667V0Z" fill="white"/>
<path d="M19.0838 16.6862C19.0838 18.7914 20.2047 20.7505 22.037 21.8031C22.6023 22.1345 23.3236 21.9396 23.655 21.3743C23.9863 20.809 23.7914 20.0877 23.2261 19.7563C22.1247 19.1228 21.4522 17.9532 21.4522 16.6862C21.4522 16.0332 20.9259 15.5068 20.2729 15.5068C19.6199 15.5068 19.0838 16.0332 19.0838 16.6862ZM28.1871 21.6667C29.8928 20.5848 30.9162 18.7037 30.9162 16.6862C30.9162 16.0332 30.3898 15.5068 29.7368 15.5068C29.0838 15.5068 28.5575 16.0332 28.5575 16.6862C28.5575 17.8947 27.9435 19.0254 26.9201 19.6784C26.3645 20.0195 26.1891 20.7408 26.5204 21.3061C26.8518 21.8714 27.5828 22.037 28.1481 21.7057C28.1481 21.6862 28.1676 21.6764 28.1871 21.6667Z" fill="#8C9157"/>
<path d="M25 19.0546C26.3081 19.0546 27.3684 17.4662 27.3684 15.5069C27.3684 13.5475 26.3081 11.9591 25 11.9591C23.692 11.9591 22.6316 13.5475 22.6316 15.5069C22.6316 17.4662 23.692 19.0546 25 19.0546Z" fill="#C59262"/>
</g>
<defs>
<clipPath id="clip0_26_6273">
<rect width="50" height="33.3333" rx="2" fill="white"/>
</clipPath>
</defs>
</svg>
