<svg width="50" height="34" viewBox="0 0 50 34" fill="none" xmlns="http://www.w3.org/2000/svg">
<g clip-path="url(#clip0_30_3)">
<path d="M0 0.333618H50V33.6662H0V0.333618Z" fill="white"/>
<path d="M0 0.333618H50V11.4445H0V0.333618ZM0 22.5554H50V33.6662H0V22.5554Z" fill="#338AF3"/>
<path d="M25 12.942C22.7589 12.942 20.9421 14.7587 20.9421 16.9999C20.9421 19.2411 22.7588 21.0578 25 21.0578C27.2412 21.0578 29.058 19.2411 29.058 16.9999C29.058 14.7587 27.2412 12.942 25 12.942ZM25 19.3188C23.7194 19.3188 22.6812 18.2806 22.6812 16.9999C22.6812 15.7193 23.7194 14.6811 25 14.6811C26.2807 14.6811 27.3189 15.7193 27.3189 16.9999C27.3189 18.2806 26.2807 19.3188 25 19.3188Z" fill="#FFDA44"/>
<path d="M27.0082 17.5797L25 17L22.9919 17.5797L22.3225 18.7392H27.6776L27.0082 17.5797Z" fill="#0052B4"/>
<path d="M25 14.1016L23.6613 16.4203L25 17L26.3388 16.4203L25 14.1016Z" fill="#338AF3"/>
<path d="M22.9919 17.5797H27.0082L26.3388 16.4203H23.6613L22.9919 17.5797Z" fill="#6DA544"/>
</g>
<defs>
<clipPath id="clip0_30_3">
<rect y="0.333252" width="50" height="33.3333" rx="2" fill="white"/>
</clipPath>
</defs>
</svg>
