<svg width="50" height="34" viewBox="0 0 50 34" fill="none" xmlns="http://www.w3.org/2000/svg">
<g clip-path="url(#clip0_30_19)">
<path d="M0 0.000366211H50V33.333H0V0.000366211Z" fill="white"/>
<path d="M25 16.6667V33.3331H0V16.6667H25Z" fill="#0052B4"/>
<path d="M50 0.000366211V16.6667H25V0.000366211H50Z" fill="#D80027"/>
<path d="M12.5 3.68176L13.6546 7.23538H17.3913L14.3683 9.43176L15.5229 12.9854L12.5 10.7891L9.477 12.9854L10.6316 9.43176L7.60864 7.23538H11.3453L12.5 3.68176Z" fill="#0052B4"/>
<path d="M37.5 20.348L38.6546 23.9016H42.3913L39.3683 26.098L40.5229 29.6516L37.5 27.4553L34.477 29.6516L35.6316 26.098L32.6086 23.9016H36.3453L37.5 20.348Z" fill="#D80027"/>
</g>
<defs>
<clipPath id="clip0_30_19">
<rect width="50" height="33.3333" rx="2" fill="white"/>
</clipPath>
</defs>
</svg>
