<svg width="50" height="34" viewBox="0 0 50 34" fill="none" xmlns="http://www.w3.org/2000/svg">
<g clip-path="url(#clip0_25_6223)">
<path d="M0 0.00012207H50V33.3327H0V0.00012207Z" fill="#D80027"/>
<path d="M19.2032 0.00012207V33.3327H0V0.00012207H19.2032Z" fill="#6DA544"/>
<path d="M19.2032 22.9165C22.655 22.9165 25.4532 20.1183 25.4532 16.6665C25.4532 13.2147 22.655 10.4165 19.2032 10.4165C15.7515 10.4165 12.9532 13.2147 12.9532 16.6665C12.9532 20.1183 15.7515 22.9165 19.2032 22.9165Z" fill="#FFDA44"/>
<path d="M15.6873 13.5415V17.4479C15.6873 19.3895 17.2613 20.9635 19.2029 20.9635C21.1445 20.9635 22.7185 19.3895 22.7185 17.4479V13.5415H15.6873Z" fill="#D80027"/>
<path d="M19.2029 18.6196C18.5567 18.6196 18.031 18.0939 18.031 17.4478V15.8853H20.3749V17.4478C20.3748 18.0938 19.849 18.6196 19.2029 18.6196Z" fill="white"/>
</g>
<defs>
<clipPath id="clip0_25_6223">
<rect y="-0.000244141" width="50" height="33.3333" rx="2" fill="white"/>
</clipPath>
</defs>
</svg>
