<svg width="50" height="34" viewBox="0 0 50 34" fill="none" xmlns="http://www.w3.org/2000/svg">
<g clip-path="url(#clip0_30_26)">
<path d="M0 0.000366211H50V33.333H0V0.000366211Z" fill="white"/>
<path d="M0 0.000366211H50V11.1112H0V0.000366211Z" fill="#D80027"/>
<path d="M0 22.2222H50V33.333H0V22.2222Z" fill="#0052B4"/>
<path d="M28.2792 12.8325L27.0495 14.0622C27.574 14.5868 27.8985 15.3114 27.8985 16.1118C27.8985 17.7126 26.6007 19.0103 25 19.0103C23.3992 19.0103 22.1016 17.7125 22.1016 16.1118C22.1016 15.3115 22.426 14.5868 22.9505 14.0622L21.7208 12.8325C20.8816 13.6718 20.3624 14.8312 20.3624 16.1117C20.3624 18.673 22.4387 20.7493 25 20.7493C27.5614 20.7493 29.6376 18.673 29.6376 16.1117C29.6376 14.8312 29.1185 13.6718 28.2792 12.8325Z" fill="#6DA544"/>
<path d="M25 14.3728L25.4317 15.7014H26.8286L25.6984 16.5225L26.1302 17.851L25 17.0299L23.8698 17.851L24.3016 16.5225L23.1714 15.7014H24.5683L25 14.3728Z" fill="#FFDA44"/>
</g>
<defs>
<clipPath id="clip0_30_26">
<rect width="50" height="33.3333" rx="2" fill="white"/>
</clipPath>
</defs>
</svg>
