<svg width="50" height="36" viewBox="0 0 50 36" fill="none" xmlns="http://www.w3.org/2000/svg">
<g clip-path="url(#clip0_27_214)">
<path d="M0 0.00244141H50V35.0479H0V0.00244141Z" fill="white"/>
<path d="M0 0.00244141H50V11.6842H0V0.00244141ZM0 23.3661H50V35.0479H0V23.3661Z" fill="#0052B4"/>
<path d="M22.3225 18.1347L25 13.2588L27.6776 18.1347H22.3225Z" fill="#FFDA44"/>
<path d="M28.4781 19.7447L25 21.5732L21.5219 19.7447V17.3068H28.4781V19.7447Z" fill="#6DA544"/>
<path d="M28.2792 13.468L27.0495 14.7609C27.574 15.3125 27.8985 16.0742 27.8985 16.9158C27.8985 18.5989 26.6007 19.9632 25 19.9632C23.3992 19.9632 22.1016 18.5988 22.1016 16.9158C22.1016 16.0744 22.426 15.3125 22.9505 14.7609L21.7208 13.468C20.8816 14.3504 20.3624 15.5694 20.3624 16.9157C20.3624 19.6087 22.4387 21.7916 25 21.7916C27.5614 21.7916 29.6376 19.6087 29.6376 16.9157C29.6376 15.5693 29.1185 14.3502 28.2792 13.468Z" fill="#FFDA44"/>
</g>
<defs>
<clipPath id="clip0_27_214">
<rect y="0.0020752" width="50" height="35.0462" rx="2" fill="white"/>
</clipPath>
</defs>
</svg>
