<svg width="50" height="34" viewBox="0 0 50 34" fill="none" xmlns="http://www.w3.org/2000/svg">
<g clip-path="url(#clip0_27_23)">
<path d="M0 0.333252H50V33.6666H0V0.333252Z" fill="white"/>
<path d="M0 0.333252H50V2.8966H0V0.333252ZM0 5.45996H50V8.02331H0V5.45996ZM0 10.5867H50V13.15H0V10.5867ZM0 15.7134H50V18.2767H0V15.7134ZM0 20.8498H50V23.4132H0V20.8498ZM0 25.9765H50V28.5399H0V25.9765ZM0 31.1032H50V33.6666H0V31.1032Z" fill="#D80027"/>
<path d="M0 0.333252H25V18.2767H0V0.333252Z" fill="#2E52B2"/>
<path d="M4.65885 13.8712L4.26899 12.6236L3.84014 13.8712H2.55359L3.59647 14.6217L3.20661 15.8693L4.26899 15.0993L5.30213 15.8693L4.90252 14.6217L5.9649 13.8712H4.65885ZM10.1462 13.8712L9.74657 12.6236L9.33722 13.8712H8.05066L9.09355 14.6217L8.70369 15.8693L9.74657 15.0993L10.7992 15.8693L10.4093 14.6217L11.4522 13.8712H10.1462ZM15.653 13.8712L15.2339 12.6236L14.844 13.8712H13.5282L14.6004 14.6217L14.191 15.8693L15.2339 15.0993L16.306 15.8693L15.8967 14.6217L16.9396 13.8712H15.653ZM21.1306 13.8712L20.7407 12.6236L20.3314 13.8712H19.0351L20.0877 14.6217L19.6978 15.8693L20.7407 15.0993L21.7934 15.8693L21.3743 14.6217L22.4464 13.8712H21.1306ZM9.74657 7.67237L9.33722 8.91994H8.05066L9.09355 9.68992L8.70369 10.918L9.74657 10.1578L10.7992 10.918L10.4093 9.68992L11.4522 8.91994H10.1462L9.74657 7.67237ZM4.26899 7.67237L3.84014 8.91994H2.55359L3.59647 9.68992L3.20661 10.918L4.26899 10.1578L5.30213 10.918L4.90252 9.68992L5.9649 8.91994H4.65885L4.26899 7.67237ZM15.2339 7.67237L14.844 8.91994H13.5282L14.6004 9.68992L14.191 10.918L15.2339 10.1578L16.306 10.918L15.8967 9.68992L16.9396 8.91994H15.653L15.2339 7.67237ZM20.7407 7.67237L20.3314 8.91994H19.0351L20.0877 9.68992L19.6978 10.918L20.7407 10.1578L21.7934 10.918L21.3743 9.68992L22.4464 8.91994H21.1306L20.7407 7.67237ZM4.26899 2.7406L3.84014 3.96867H2.55359L3.59647 4.73865L3.20661 5.97647L4.26899 5.20649L5.30213 5.97647L4.90252 4.73865L5.9649 3.96867H4.65885L4.26899 2.7406ZM9.74657 2.7406L9.33722 3.96867H8.05066L9.09355 4.73865L8.70369 5.97647L9.74657 5.20649L10.7992 5.97647L10.4093 4.73865L11.4522 3.96867H10.1462L9.74657 2.7406ZM15.2339 2.7406L14.844 3.96867H13.5282L14.6004 4.73865L14.191 5.97647L15.2339 5.20649L16.306 5.97647L15.8967 4.73865L16.9396 3.96867H15.653L15.2339 2.7406ZM20.7407 2.7406L20.3314 3.96867H19.0351L20.0877 4.73865L19.6978 5.97647L20.7407 5.20649L21.7934 5.97647L21.3743 4.73865L22.4464 3.96867H21.1306L20.7407 2.7406Z" fill="white"/>
</g>
<defs>
<clipPath id="clip0_27_23">
<rect y="0.333252" width="50" height="33.3333" rx="2" fill="white"/>
</clipPath>
</defs>
</svg>
