<svg width="50" height="34" viewBox="0 0 50 34" fill="none" xmlns="http://www.w3.org/2000/svg">
<g clip-path="url(#clip0_30_54)">
<path d="M0 -0.00341797H50V33.3299H0V-0.00341797Z" fill="white"/>
<path d="M0 3.70032H50V7.40402H0V3.70032ZM0 11.1077H50V14.8114H0V11.1077ZM0 18.5151H50V22.2188H0V18.5151ZM0 25.9225H50V29.6262H0V25.9225Z" fill="#0038A8"/>
<path d="M0 -0.00341797H25V18.5151H0V-0.00341797Z" fill="white"/>
<path d="M12.5049 13.5151L11.0331 15.7178L10.6628 13.096L8.38207 14.441L9.18129 11.9166L6.53022 12.1311L8.34308 10.2012L5.8772 9.25583L8.35283 8.31041L6.53022 6.38059L9.17154 6.60476L8.37232 4.08039L10.653 5.42542L11.0331 2.80359L12.5049 5.00632L13.9766 2.80359L14.347 5.42542L16.6277 4.08039L15.8285 6.60476L18.4698 6.39033L16.6569 8.32016L19.1326 9.26558L16.6569 10.211L18.4698 12.1408L15.8285 11.9264L16.6277 14.4508L14.347 13.1057L13.9669 15.7276L12.5049 13.5151ZM12.5049 13.4664C14.8343 13.5541 16.7934 11.751 16.8811 9.42152C16.9688 7.09209 15.1657 5.13302 12.8363 5.0453H12.5049C10.1754 5.12328 8.35283 7.0726 8.4308 9.39228C8.48928 11.6145 10.2827 13.3981 12.5049 13.4664ZM12.5049 12.4332C10.6725 12.4332 9.19104 10.9517 9.19104 9.11938C9.19104 7.28702 10.6725 5.80554 12.5049 5.80554C14.3372 5.80554 15.8187 7.28702 15.8187 9.11938C15.8187 10.9517 14.3275 12.4332 12.5049 12.4332Z" fill="#FED443"/>
</g>
<defs>
<clipPath id="clip0_30_54">
<rect y="-0.00341797" width="50" height="33.3333" rx="2" fill="white"/>
</clipPath>
</defs>
</svg>
