<svg width="50" height="34" viewBox="0 0 50 34" fill="none" xmlns="http://www.w3.org/2000/svg">
<g clip-path="url(#clip0_30_61)">
<path d="M0 0.666504H50V11.7776H0V0.666504Z" fill="#FFCE00"/>
<path d="M0 11.7776H50V22.8887H0V11.7776Z" fill="#203899"/>
<path d="M0 22.8887H50V33.9998H0V22.8887Z" fill="#D82B2B"/>
<path d="M26.9555 12.6218L27.2667 13.644L28.2667 13.9552L27.4 14.5552L27.4222 15.6218L26.5778 14.9774L25.5778 15.3107L25.9111 14.3329L25.2889 13.4885H26.3333L26.9555 12.6218ZM23.0222 12.6218L23.6222 13.4885H24.6667L24.0444 14.3329L24.3778 15.3329L23.3778 14.9774L22.5333 15.5996L22.5555 14.5552L21.6889 13.9329L22.6889 13.644L23.0222 12.6218ZM30.6667 13.8663L30.6444 14.9329L31.5111 15.5329L30.4889 15.844L30.1778 16.844L29.5778 15.9996H28.5111L29.1555 15.1552L28.8222 14.1552L29.8222 14.5107L30.6667 13.8663ZM19.3111 13.9107L20.2 14.5107L21.1778 14.1107L20.8889 15.1329L21.5555 15.9329L20.5111 15.9774L19.9333 16.8663L19.5778 15.8885L18.5555 15.6218L19.3778 14.9552L19.3111 13.9107ZM33.8667 16.5107L33.4222 17.4885L33.9778 18.3774L32.9333 18.2663L32.2444 19.0663L32.0222 18.044L31.0667 17.644L31.9778 17.1107L32.0444 16.0663L32.8222 16.7552L33.8667 16.5107ZM34.2889 18.9996L34.7555 19.9552L35.8 20.1107L35.0444 20.844L35.2222 21.8663L34.2889 21.3774L33.3555 21.8663L33.5333 20.844L32.7778 20.1107L33.8222 19.9552L34.2889 18.9996ZM15.5555 18.8885L16.0222 19.844L17.0667 19.9774L16.3111 20.7107L16.4889 21.7552L15.5555 21.2663L14.6222 21.7552L14.8 20.7107L14.0444 19.9774L15.0889 19.844L15.5555 18.8885ZM16.2444 16.3329L17.2444 16.644L18.0889 15.9996V17.0663L18.9555 17.644L17.9555 17.9774L17.6667 18.9996L17.0444 18.1552L16 18.1774L16.6 17.3329L16.2444 16.3329Z" fill="white"/>
</g>
<defs>
<clipPath id="clip0_30_61">
<rect y="0.666504" width="50" height="33.3333" rx="2" fill="white"/>
</clipPath>
</defs>
</svg>
