<svg width="30" height="28" viewBox="0 0 30 28" fill="none" xmlns="http://www.w3.org/2000/svg">
<g id="2nq8DY7eeNU0Xpb9u5eYvwvqCFQ 1" clip-path="url(#clip0_33_471)">
<path id="Vector" d="M13.7798 0H15.665V0.0132042L16.4692 0.105634L17.0625 0.198063L17.5767 0.303696L17.959 0.396126L18.4468 0.528168L18.8291 0.647005L19.3564 0.831864L19.8442 1.02993L20.2002 1.18838L20.5693 1.36003L21.0967 1.63732L21.4131 1.82218L21.7031 1.99383L21.9272 2.13908L22.2568 2.36355L22.5205 2.54841L22.7974 2.75968L22.9556 2.87851L23.1006 2.99735L23.2324 3.10299L23.4038 3.24823L23.6016 3.41989L23.7598 3.56513L23.8652 3.65756L23.9707 3.7632L23.9971 3.7764V3.80281L24.0498 3.82922L24.0894 3.88203L24.1157 3.94805L24.2739 4.11971L24.4189 4.26495L24.5112 4.37059L24.6826 4.55545L24.8013 4.70069L24.9199 4.83273L25.0649 5.01759L25.1968 5.17604L25.355 5.38731L25.5396 5.63819L25.7241 5.90227L25.8296 6.06072L26.0142 6.35122L26.2119 6.68132L26.3833 6.98502L26.5283 7.2491L26.6338 7.46037L26.8052 7.81688L26.9502 8.14699L27.1216 8.56952L27.293 9.04487L27.4248 9.441L27.583 10.0088L27.7017 10.4973L27.8071 11.0255L27.8994 11.6197L27.9785 12.3459H28.0049V14.4454H27.9785L27.8994 15.198L27.8203 15.7262L27.728 16.2147L27.6094 16.7297L27.4907 17.1655L27.3457 17.6276L27.2007 18.0501L27.0557 18.4198L26.9238 18.7367L26.792 19.0404L26.4756 19.6742L26.3042 19.9779L26.2251 20.11L26.146 20.2552L25.9482 20.5721L25.7109 20.9286L25.5527 21.1531L25.3682 21.404L25.2363 21.5757L25.0913 21.7605L24.9067 21.985L24.7749 22.1302L24.6562 22.2755L24.5376 22.3943L24.353 22.6056H24.3267L24.3003 22.6584L23.9707 22.9885L23.8652 23.0809L23.7598 23.1866L23.6543 23.279L23.5093 23.411L23.3643 23.5299L23.2192 23.6619L23.0347 23.8072L22.8369 23.9656L22.5864 24.1505L22.3491 24.3221L21.7954 24.6918L21.5186 24.8635L21.1758 25.0616L20.833 25.2464L20.6089 25.3653L20.3057 25.5105L19.9629 25.669L19.4883 25.867L19.0269 26.0387L18.5522 26.1971L18.104 26.3292L17.4712 26.4876L16.8911 26.6064L16.3901 26.6857L15.8364 26.7517L15.375 26.7913L14.8213 26.8177H14.1357L13.6216 26.7913L13.0415 26.7385L12.5405 26.6725L12 26.58L11.4463 26.4612L10.9849 26.3424L10.5366 26.2103L10.062 26.0519L9.64014 25.8934L9.25781 25.735L8.90186 25.5765L8.51953 25.3917L8.25586 25.2596L8.16357 25.2068H8.07129L7.00342 25.4841L6.41016 25.6425L5.73779 25.8142L4.57764 26.1179L1.24219 26.9894L1.0708 27.0422H1.00488V26.9498L1.04443 26.8573L1.20264 26.2631L1.43994 25.4049L1.70361 24.441L1.92773 23.6223L2.12549 22.9093L2.65283 20.9815L2.78467 20.5061L2.87695 20.1628V20.0704L2.7583 19.8459L2.6001 19.5554L2.36279 19.0801L2.15186 18.6047L1.9541 18.1029L1.78271 17.6144L1.6377 17.1522L1.49268 16.6109L1.34766 15.9507L1.25537 15.4093L1.20264 15.0396L1.1499 14.5114L1.12354 14.1021L1.11035 13.772V12.9797L1.13672 12.4251L1.18945 11.8442L1.26855 11.25L1.38721 10.5898L1.51904 10.022L1.6377 9.58624L1.7959 9.07128L1.96729 8.59593L2.12549 8.1998L2.29688 7.80368L2.54736 7.28871L2.6792 7.03783L2.81104 6.80016L2.98242 6.50967L3.18018 6.19277L3.33838 5.95509L3.50977 5.70421L3.69434 5.45333L3.82617 5.28168L4.01074 5.044L4.15576 4.87235L4.27441 4.7271L4.43262 4.55545L4.5249 4.44981L4.66992 4.29136L4.73584 4.21214H4.76221L4.78857 4.15932L5.10498 3.84242L5.21045 3.74999L5.3291 3.63115L5.43457 3.53872L5.56641 3.41989L5.67188 3.32746L5.83008 3.19541L5.9751 3.07658L6.18604 2.90492L6.39697 2.74647L6.59473 2.60123L6.81885 2.44278L7.1748 2.2051L7.62305 1.92781L7.99219 1.71655L8.36133 1.51848L8.73047 1.33362L9.16553 1.13556L9.67969 0.924294L10.1543 0.752639L10.6289 0.594189L11.2881 0.40933L11.855 0.277288L12.4087 0.171655L13.0679 0.0792252L13.7798 0ZM14.2676 2.2183L13.7139 2.24471L13.1733 2.29753L12.6196 2.37675L12.0923 2.48239L11.5649 2.61443L11.0376 2.77288L10.6289 2.91813L10.1675 3.10299L9.85107 3.24823L9.52148 3.40668L9.16553 3.59154L8.80957 3.80281L8.57227 3.94805L8.37451 4.0801L8.12402 4.25175L7.87354 4.43661L7.68896 4.58185L7.55713 4.68749L7.38574 4.83273L7.24072 4.95157L7.14844 5.044L7.04297 5.13643L6.88477 5.28168L6.44971 5.71742L6.35742 5.82305L6.19922 5.9947L6.08057 6.13995L5.92236 6.32481L5.77734 6.50967L5.65869 6.66812L5.47412 6.919L5.3291 7.13026L5.19727 7.32833L4.98633 7.67164L4.82812 7.94892L4.65674 8.26582L4.4458 8.68836L4.24805 9.1373L4.11621 9.48061L3.95801 9.92955L3.82617 10.3521L3.69434 10.8538L3.57568 11.4216L3.52295 11.7385L3.47021 12.1214L3.43066 12.4912L3.4043 12.9533V13.8512L3.43066 14.3001L3.49658 14.8943L3.5625 15.3169L3.66797 15.8318L3.77344 16.2544L3.93164 16.7825L4.08984 17.2315L4.2876 17.72L4.45898 18.1029L4.56445 18.3142L4.74902 18.6707L4.93359 18.9876L5.06543 19.2121L5.19727 19.4234L5.34229 19.6478L5.36865 19.6875L5.35547 19.7799L5.06543 20.8362L4.43262 23.1337L4.26123 23.7543L4.27441 23.794L5.05225 23.5959L6.60791 23.1866L7.33301 23.0017L8.03174 22.8168L8.40088 22.7244H8.49316L8.84912 22.9357L9.15234 23.1073L9.45557 23.2658L9.67969 23.3846L10.0225 23.5431L10.5234 23.7543L10.8794 23.8864L11.3672 24.0448L11.7363 24.1505L12.3032 24.2825L12.8174 24.3749L13.292 24.441L13.9248 24.4938L14.228 24.507H14.8345L15.3354 24.4806L15.7705 24.441L16.2583 24.3749L16.7725 24.2825L17.3394 24.1505L17.7217 24.0448L18.1304 23.9128L18.5654 23.7543L18.9873 23.5827L19.3696 23.411L19.5806 23.3054L19.9629 23.1073L20.2793 22.9225L20.543 22.764L20.8066 22.5924L21.0571 22.4207L21.2944 22.2491L21.4658 22.117L21.6504 21.9718L21.835 21.8133L21.98 21.6945L22.1777 21.5096L22.3887 21.3248V21.2984H22.415V21.272L22.4678 21.2455L22.5732 21.1399V21.1135L22.626 21.0871V21.0607H22.6523L22.7446 20.9551L22.8633 20.8362L22.9556 20.7306L22.9688 20.691H22.9951L23.0874 20.5853L23.2061 20.4401L23.3511 20.2684L23.5225 20.044L23.707 19.7931L23.8389 19.6082L23.9707 19.4102L24.1157 19.1857L24.2476 18.9612L24.4058 18.6839L24.564 18.3802L24.6694 18.169L24.854 17.7728L25.0254 17.3503L25.1836 16.9014L25.3286 16.4392L25.4604 15.9375L25.5659 15.4225L25.6318 15.0132L25.6714 14.7359L25.7241 14.1681L25.7505 13.5475V13.2438L25.7241 12.5836L25.6714 12.029L25.5923 11.4744L25.4868 10.9331L25.355 10.4049L25.21 9.92955L25.0649 9.50702L24.8936 9.07128L24.7354 8.71477L24.5508 8.33185L24.3794 8.00174L24.2476 7.77727L24.0762 7.48678L23.8389 7.13026L23.6938 6.919L23.5093 6.66812L23.3643 6.48326L23.1929 6.27199L23.0742 6.12675L22.9028 5.94189L22.8105 5.83625L22.626 5.63819L22.2305 5.24206L22.125 5.14964L21.98 5.01759L21.8745 4.92516L21.6899 4.76671L21.5054 4.62147L21.2681 4.43661L21.0308 4.26495L20.8198 4.11971L20.5562 3.94805L20.3057 3.7896L19.7388 3.4727L19.2905 3.24823L18.8027 3.03696L18.46 2.90492L17.8403 2.69366L17.2603 2.5352L16.7197 2.41637L16.166 2.32394L15.5596 2.25792L15.1377 2.23151L14.7817 2.2183H14.2676Z" fill="#923F48"/>
<path id="Vector_2" d="M9.90332 7.14355H10.0747L10.6548 7.16996L10.7998 7.20958L10.9316 7.302L11.0239 7.40764L11.1294 7.57929L11.2744 7.89619L11.459 8.34514L11.5908 8.66204L12.0391 9.74478L12.1973 10.1145L12.3027 10.3654L12.3291 10.4446L12.3423 10.6163L12.3027 10.7747L12.1973 10.9728L12.1313 11.0916L11.9731 11.3293L11.8149 11.5406L11.6567 11.7254L11.5381 11.8575L11.4458 11.9631L11.314 12.1215L11.2349 12.28L11.2217 12.3196V12.4913L11.2744 12.6365L11.3799 12.8214L11.5908 13.1515L11.7358 13.3627L11.894 13.5872L12.0786 13.8249L12.2236 14.0097L12.54 14.3795L12.751 14.6039L13.0542 14.9076L13.1597 15L13.3047 15.1321L13.4497 15.2509L13.6606 15.4226L13.9111 15.6074L14.2275 15.8187L14.478 15.9772L14.8208 16.1752L15.0977 16.3205L15.4668 16.4921L15.77 16.6242L15.915 16.6902L16.0864 16.743L16.1655 16.7562H16.2842L16.4424 16.6902L16.5742 16.5713L16.6797 16.4525L16.7983 16.3073L16.917 16.1752L17.0356 16.03L17.062 15.9904H17.0884L17.1147 15.9375L17.2861 15.7263L17.4312 15.5414L17.6157 15.2905L17.7212 15.1585L17.8267 15.0661L17.9453 15.0265H18.1035L18.3013 15.0661L18.6177 15.1849L18.9736 15.3434L19.4087 15.5546L19.6592 15.6735L20.582 16.1356L20.6743 16.1752L20.6875 16.1224L20.8062 16.1488L21.1094 16.2941L21.2808 16.4129L21.3599 16.5185L21.3994 16.6902V16.9807L21.3599 17.3108L21.2808 17.6937L21.1885 18.0106L21.0962 18.2483L20.9644 18.4595L20.8457 18.6048L20.7666 18.6972L20.6611 18.7897L20.5029 18.9349L20.2656 19.1066L20.0151 19.265L19.7251 19.4235L19.4746 19.5423L19.145 19.6611L18.8682 19.7271L18.4199 19.78L17.9849 19.7932L17.6948 19.78L17.2993 19.7271L16.9829 19.6611L16.6006 19.5423L16.0337 19.3442L15.4404 19.1198L14.9526 18.9217L14.5967 18.7632L14.1616 18.552L13.8057 18.3671L13.4761 18.1691L13.2651 18.037L12.9487 17.8257L12.6982 17.6409L12.4873 17.4824L12.3159 17.3372L12.1313 17.1919L11.9468 17.0203L11.8413 16.9279L11.5249 16.6374L11.0239 16.1356V16.1092H10.9976L10.9053 16.0036L10.7207 15.8055L10.5625 15.6339L10.4438 15.4886L10.312 15.3434L10.2197 15.2377L10.0352 15.0133L9.89014 14.8416L9.74512 14.6567L9.61328 14.4983L9.46826 14.3134L9.09912 13.8381L8.88818 13.5344L8.70361 13.2439L8.50586 12.9138L8.32129 12.5705L8.1499 12.214L7.9917 11.8178L7.87305 11.4481L7.79395 11.118L7.74121 10.7879L7.71484 10.5106V10.1409L7.75439 9.77119L7.82031 9.45429L7.92578 9.11098L8.04443 8.82049L8.1499 8.60922L8.29492 8.34514L8.46631 8.09426L8.62451 7.88299L8.74316 7.73774L8.90137 7.55288L8.99365 7.46046L9.17822 7.32841L9.40234 7.22278L9.61328 7.16996L9.90332 7.14355Z" fill="#923F48"/>
</g>
<defs>
<clipPath id="clip0_33_471">
<rect width="30.0049" height="27.0422" fill="white"/>
</clipPath>
</defs>
</svg>
