<svg width="31" height="31" viewBox="0 0 31 31" fill="none" xmlns="http://www.w3.org/2000/svg">
<g id="2nwPc4CEkBrbIQnBEhulWiDIUDc 1">
<path id="Vector" d="M15.2427 0H21.8271L21.8423 0.438965L21.8574 1.16553L21.8877 1.54395L21.9482 1.98291L22.0542 2.46729L22.1904 2.92139L22.3569 3.36035L22.5083 3.69336L22.6899 4.02637L22.8413 4.28369L22.9624 4.46533L23.1138 4.67725L23.2651 4.87402L23.4316 5.0708L23.5981 5.25244L23.6436 5.29785V5.32812H23.6738L23.7646 5.43408L23.8857 5.54004L23.9917 5.646L24.1582 5.78223L24.3398 5.93359L24.5215 6.06982L24.7939 6.25146L25.1118 6.44824L25.5508 6.67529L25.9746 6.85693L26.5195 7.03857L26.8828 7.12939L27.2764 7.20508L27.6699 7.25049L28.0938 7.28076L29.123 7.34131L29.4712 7.37158L29.5015 7.40186V13.835L29.4863 13.8652H27.897L27.2461 13.835L26.6406 13.7744L26.1411 13.6987L25.6416 13.6079L25.0059 13.4565L24.3853 13.2749L23.8101 13.0781L23.2046 12.8359L22.7051 12.6089L22.1299 12.3213L21.8574 12.1699L21.8726 18.6333V21.2065L21.8574 21.6455L21.812 22.1602L21.7666 22.5234L21.6758 23.0532L21.5698 23.5073L21.4487 23.9463L21.2822 24.4458L21.1157 24.8696L20.9795 25.1875L20.707 25.7324L20.4951 26.0957L20.3135 26.3984L20.0864 26.7314L19.8896 27.0039L19.6929 27.2461L19.5566 27.4277H19.5264L19.4961 27.4883L19.3447 27.6548L19.2388 27.7759L18.9966 28.0332L18.7998 28.23L18.6787 28.3359L18.4819 28.5176L18.3154 28.6538L18.1187 28.8203L17.8613 29.0171L17.5889 29.2139L17.3618 29.3652L17.0742 29.5469L16.7109 29.7588L16.2114 30.0161L15.9238 30.1523L15.5151 30.3188L15.1367 30.4551L14.6675 30.6064L13.9409 30.7881L13.3506 30.894L12.6694 30.9849L12.5938 31H10.8984L10.8379 30.9697L10.0811 30.8638L9.61182 30.7729L9.00635 30.6216L8.52197 30.4702L8.0376 30.2886L7.61377 30.1069L7.11426 29.8647L6.76611 29.668L6.50879 29.5166L6.17578 29.3047L6.00928 29.1836L5.73682 28.9868L5.5249 28.8203L5.26758 28.6084L5.11621 28.4722L4.99512 28.3662L4.75293 28.1392L4.49561 27.8818V27.8516L4.4502 27.8364L4.34424 27.7153L4.1626 27.5186L4.02637 27.3521L3.85986 27.1553L3.72363 26.9736L3.52686 26.7012L3.25439 26.2925L3.02734 25.9141L2.83057 25.5508L2.64893 25.1875L2.46729 24.7637L2.27051 24.2339L2.13428 23.7949L2.01318 23.3257L1.92236 22.8867L1.84668 22.4023L1.80127 22.0239L1.771 21.6304L1.75586 21.252V20.8433L1.78613 20.2681L1.84668 19.7231L1.9375 19.1631L2.04346 18.6938L2.16455 18.2397L2.34619 17.6948L2.46729 17.377L2.66406 16.9229L2.87598 16.4839L3.07275 16.1357L3.26953 15.8027L3.54199 15.394L3.73877 15.1216L3.90527 14.9097L4.0415 14.7432L4.23828 14.5161L4.37451 14.3647L4.4502 14.2739H4.48047L4.51074 14.2134L4.93457 13.7896L5.05566 13.6836L5.20703 13.5474L5.37354 13.4111L5.55518 13.2598L5.85791 13.0327L6.06982 12.8813L6.43311 12.6392L6.73584 12.4575L7.11426 12.2456L7.35645 12.1245L7.73486 11.9429L8.26465 11.731L8.79443 11.5493L9.35449 11.3979L9.76318 11.3071L10.3838 11.2012L10.9287 11.1406L11.4736 11.1104H12.2002L12.6392 11.1406L13.2144 11.2012L13.9561 11.3071L14.0923 11.3374L14.1074 11.3525V18.2246L14.0166 18.2095L13.063 17.8916L12.6543 17.7705L12.3516 17.71L12.0791 17.6797H11.6099L11.3223 17.71L10.9438 17.7856L10.5806 17.9067L10.3081 18.0278L10.0356 18.1792L9.77832 18.3608L9.62695 18.4819L9.56641 18.5425H9.53613V18.5728L9.41504 18.6787L9.21826 18.8906L9.00635 19.1782L8.85498 19.4204L8.70361 19.7383L8.58252 20.0713L8.4917 20.4346L8.44629 20.8433V21.3276L8.50684 21.7515L8.59766 22.0996L8.71875 22.4175L8.83984 22.6597L8.97607 22.9019L9.14258 23.1289L9.30908 23.3257L9.58154 23.5981L9.79346 23.7646L10.0054 23.916L10.3687 24.1128L10.6562 24.2339L10.8833 24.3096L11.2314 24.3853L11.5645 24.4307H12.0791L12.4272 24.3853L12.7603 24.3096L13.1235 24.1885L13.4717 24.022L13.6987 23.8857L13.9106 23.7344L14.0771 23.5981L14.3042 23.3862L14.3193 23.356H14.3496L14.3799 23.2954L14.5161 23.144L14.7129 22.8564L14.8491 22.6143L14.9854 22.3267L15.1064 21.9634L15.1821 21.6152L15.2124 21.3579L15.2275 17.0591L15.2427 0ZM17.0894 1.81641L17.0742 1.83154L17.0591 21.04L17.0439 21.479L16.9834 21.9482L16.9077 22.3115L16.7866 22.7354L16.6201 23.1592L16.4385 23.5376L16.2417 23.8706L16.0752 24.1128L15.9541 24.2793L15.7876 24.4761L15.6211 24.6577L15.606 24.7031H15.5757L15.3486 24.9302L15.2275 25.0361L15.0156 25.2026L14.8037 25.354L14.5161 25.5356L14.1831 25.7173L13.8198 25.8838L13.4414 26.02L13.1235 26.1108L12.7754 26.1865L12.3516 26.2471L12.1548 26.2622H11.4736L11.0498 26.2168L10.6562 26.1411L10.2173 26.02L9.80859 25.8687L9.41504 25.687L9.05176 25.4751L8.82471 25.3237L8.58252 25.1421L8.37061 24.9604L8.24951 24.8545L8.18896 24.8242L8.15869 24.7637L8.06787 24.688L7.96191 24.5669L7.81055 24.4004L7.64404 24.1885L7.4624 23.9312L7.26562 23.6133L7.08398 23.2651L6.91748 22.8564L6.81152 22.5386L6.7207 22.1904L6.64502 21.7515L6.61475 21.479L6.59961 21.2368V20.8735L6.62988 20.48L6.70557 19.9956L6.81152 19.5718L6.96289 19.1328L7.12939 18.7544L7.31104 18.4214L7.49268 18.1338L7.61377 17.9673L7.76514 17.7705L7.94678 17.5586L7.99219 17.5132V17.4829H8.02246L8.12842 17.3618L8.23438 17.2559L8.26465 17.2407V17.2104L8.3252 17.1802L8.4917 17.0288L8.79443 16.8018L9.02148 16.6504L9.32422 16.4688L9.6875 16.2871L10.0659 16.1357L10.4595 16.0146L10.8682 15.9238L11.292 15.8633L11.5039 15.8481H12.2759V12.957L12.2305 12.9419H11.519L11.0195 12.9722L10.5049 13.0327L9.95996 13.1387L9.53613 13.2446L9.15771 13.3657L8.85498 13.4717L8.41602 13.6533L7.94678 13.8804L7.67432 14.0317L7.31104 14.2588L7.06885 14.4253L6.78125 14.6372L6.56934 14.8037L6.41797 14.9399L6.25146 15.0762L5.70654 15.6211L5.60059 15.7422L5.41895 15.9541L5.22217 16.1963L5.16162 16.2871L4.96484 16.5596L4.85889 16.7261L4.72266 16.938L4.63184 17.1045L4.43506 17.4678L4.23828 17.8916L4.0415 18.4062L3.89014 18.8755L3.78418 19.2993L3.67822 19.8594L3.63281 20.2075L3.60254 20.6465V21.5093L3.64795 22.0391L3.72363 22.5386L3.81445 22.9775L3.95068 23.4619L4.11719 23.9463L4.28369 24.3398L4.49561 24.7788L4.67725 25.1118L4.9043 25.4751L5.08594 25.7324L5.26758 25.9746L5.46436 26.2168L5.66113 26.4438L5.88818 26.686L6.14551 26.9434L6.2666 27.0493L6.43311 27.2007L6.59961 27.3369L6.81152 27.5034L7.09912 27.7153L7.40186 27.9121L7.70459 28.0938L8.0376 28.2754L8.35547 28.4268L8.55225 28.5176L8.97607 28.6841L9.43018 28.8354L9.88428 28.9565L10.4292 29.0625L10.8682 29.123L11.4434 29.1685H12.2002L12.7754 29.123L13.29 29.0474L13.7896 28.9414L14.1831 28.8354L14.728 28.6538L15.1064 28.5024L15.4697 28.3359L15.8784 28.124L16.2568 27.897L16.4839 27.7456L16.7412 27.564L16.9531 27.3975L17.2104 27.1855L17.3921 27.019L17.5132 26.9131L17.9219 26.5044L18.0278 26.3833L18.2246 26.1562L18.4214 25.8989L18.5879 25.6719L18.7998 25.354L18.9209 25.1572L19.1328 24.7788L19.3145 24.4155L19.5112 23.9463L19.6929 23.4165L19.7988 23.0229L19.9048 22.5537L19.9653 22.1753L20.0107 21.7666L20.0259 21.5547L20.041 21.0703V19.4961L20.0259 14.9097L20.0107 8.61279L20.1167 8.67334L20.7676 9.17285L21.1611 9.47559L21.4336 9.6875L21.6758 9.86914L21.9331 10.0508L22.251 10.2627L22.5688 10.4595L22.8262 10.6108L23.25 10.8379L23.7192 11.0649L24.1582 11.2466L24.5972 11.4131L25.0967 11.5796L25.4902 11.6855L25.9141 11.7915L26.5801 11.9126L27.019 11.9731L27.4883 12.0186H27.6548V9.1123L27.6396 9.09717L27.0039 9.02148L26.459 8.91553L26.0957 8.82471L25.6416 8.68848L25.1572 8.50684L24.7485 8.3252L24.4458 8.17383L24.0977 7.97705L23.7798 7.78027L23.5981 7.65918L23.3257 7.4624L23.0835 7.26562L22.8716 7.09912L22.6143 6.85693L22.4932 6.75098L22.4175 6.66016L22.145 6.3877L22.0391 6.2666L21.8726 6.06982L21.7061 5.85791L21.5093 5.58545L21.2974 5.26758L21.1157 4.96484L20.9644 4.69238L20.7524 4.26855L20.5254 3.7085L20.3438 3.16357L20.2075 2.61865L20.1318 2.2251L20.0713 1.83154L20.0259 1.81641H17.0894Z" fill="#923F48"/>
</g>
</svg>
