<svg width="72" height="76" viewBox="0 0 72 76" fill="none" xmlns="http://www.w3.org/2000/svg">
<path d="M37.5605 0L37.8541 0.0572289L38.0302 0.343373V1.08735L37.7954 1.54518L37.3256 1.94578L36.9146 2.11747H36.7384L36.9146 3.31928L37.0907 4.46386L37.2669 6.23795L37.5018 7.95482L37.6779 9.15663L38.2064 12.4187L38.3826 13.6777L38.5587 13.9066L38.7936 12.247L38.9698 10.759L39.3221 8.29819L39.4982 7.09639L39.6157 6.69578L39.8505 4.86446L39.1459 4.46386L38.8523 4.12048L38.7349 3.89157V3.49096L38.9698 3.14759L39.2046 3.09036L39.2633 3.37651L39.2046 3.49096V3.9488L39.3808 4.23494L39.3221 4.06325L39.2633 3.9488V3.54819L39.4395 3.14759L39.8505 3.20482L40.1441 3.31928H40.79L41.1423 3.49096V3.60542H41.2598L41.3185 3.31928L41.6121 3.43373L41.6708 3.54819V4.12048L41.4359 4.46386L41.0836 4.75L40.79 4.86446H40.2616V5.37952L40.0267 7.15361L39.8505 8.06928L39.2633 12.0753L39.1459 13.4488L39.0872 13.6777V14.0783L39.7331 12.5331L40.2028 11.3313L41.2011 8.92771L41.6708 7.84036L42.4342 6.12349L43.0801 4.69277L43.6085 3.26205L43.6673 2.91867L43.1388 2.51807L42.9039 2.23193L42.7865 2.00301V1.25904L43.1388 0.801205L43.3737 0.743976L43.5498 0.858434V1.03012L43.2562 1.31627L43.1975 1.65964L43.3149 1.88855L43.4911 1.37349L43.8434 1.03012L44.137 1.08735L44.7242 1.37349L44.4306 1.7741L44.2544 2.5753L44.4893 2.34639L44.7242 1.71687L44.7829 1.43072L45.1352 1.48795L45.6637 1.71687L45.605 2.1747L45.3701 2.63253L45.2527 2.80422L45.5463 2.63253L45.7811 2.23193L45.8986 1.7741H46.1922L46.3096 1.94578L46.2509 2.34639L45.9573 2.80422L45.4288 3.14759L45.194 3.20482H44.1957L43.3737 5.26506L42.7278 6.63855L42.6103 6.98193V7.21084H42.9039L43.1388 7.38253V7.49699L43.4911 7.55422L43.9609 7.89759L43.8434 8.18373L43.6673 8.24096L43.6085 8.41265L43.9021 8.24096L44.0783 7.89759H44.3132L44.2544 8.24096L44.0196 8.52711L43.6085 8.6988H43.1388L42.8452 8.64157L42.7278 8.98494L42.0231 10.1867L41.2011 11.6175L40.2616 13.2771L39.6744 14.3645L39.9093 14.1355L40.4964 13.3916L41.0836 12.7048L41.6121 12.0753L42.1406 11.503L42.669 10.8735L42.8452 10.6446H42.9626L43.0801 10.4157L43.7847 9.67169L44.1957 9.21386L44.9591 8.29819L45.0765 8.01205L44.7829 7.49699L44.7242 6.98193L44.9004 6.63855L45.194 6.40964L45.605 6.35241V6.58133L45.2527 6.81024V6.9247L45.5463 6.69578L45.9573 6.75301L46.427 7.15361L47.3078 7.78313L47.1904 8.12651L46.8381 8.41265L46.6032 8.46988H45.8399L45.4288 8.41265L44.9004 9.0994L44.2544 9.78614L43.726 10.3584L43.1975 10.988L42.4929 11.7319L41.9644 12.3614L41.2598 13.1627L40.6139 13.9639L40.2028 14.3645L40.1441 14.4789L40.79 13.9639L41.6121 13.2771L42.1406 12.8765L42.9626 12.1898L43.5498 11.7319L44.4893 10.988L45.1352 10.4729L45.9573 9.84337L46.8381 9.15663L47.7189 8.52711L48.306 8.06928L49.0107 7.43976L49.4804 7.09639L49.1281 6.35241V5.60843L49.4217 5.1506L49.8327 4.92169L50.3025 4.86446L50.3612 5.09337L49.8915 5.26506L49.6566 5.5512V5.83735L50.1263 5.49398L50.4199 5.37952L50.831 5.43675V5.60843L50.1263 5.95181V6.06627L50.7722 5.83735H51.1246V6.06627L50.7135 6.23795L50.4199 6.40964L50.1851 6.75301V6.9247L50.5374 6.81024L51.1246 6.29518L51.3594 6.23795L51.5356 6.40964L51.8292 6.75301L51.7117 6.98193L51.242 7.3253L50.831 7.49699L51.0071 7.55422L51.5356 7.38253L52.0053 6.98193H52.2402L52.2989 7.21084L52.0053 7.55422L51.4181 7.84036L50.831 7.89759L50.1851 7.7259L49.8327 7.43976L49.5979 7.49699L48.952 8.06928L48.306 8.58434L47.5427 9.15663L46.6032 9.84337L46.427 10.0723L46.6032 10.1295L46.427 10.1867L46.6032 10.3584L46.8968 10.5301L47.0142 10.759V10.988L47.6601 11.6175L47.5427 11.8464L47.1904 12.0181L46.8968 12.0753L46.9555 11.7892L46.8381 11.9608L46.3683 11.9036L46.1922 11.7319L45.8399 11.7892L44.6068 12.5331L43.3149 13.3343L42.0819 14.0783L41.4359 14.4789L40.6139 14.994L40.9662 14.8795L42.0819 14.3645L44.0783 13.5633L45.8399 12.8765L47.2491 12.3614L48.3648 11.9036L49.0107 11.6175V10.8735L49.1868 10.3584L49.5391 10.0723L49.7153 10.0151H50.3612V10.1867L49.7153 10.4157L49.4804 10.7018L50.2438 10.4157L50.5374 10.4729V10.7018L50.0676 10.8735L49.9502 10.988L50.5961 10.8163L50.7135 10.9307V11.1596L50.0089 11.3313L49.8327 11.4458V11.6175L50.6548 11.2741L50.8897 11.3313V11.5602L50.3025 11.7892L50.831 11.6747L51.0658 11.7892L50.9484 12.0181L50.0676 12.3042H50.5374L51.0658 12.1325H51.3007V12.3614L50.7135 12.5904H50.0676L49.4804 12.247L49.2456 11.9608L49.0107 12.0181L47.6014 12.5904L46.1922 13.1054L43.6085 14.1355L41.5534 14.994L40.6726 15.3946L40.5552 15.4518L40.4964 15.6235L41.9644 15.3946L46.427 14.7651L48.2473 14.5361L51.0071 14.25L52.5925 13.9639L52.7687 13.1627L53.121 12.5904L53.5907 12.3042L54.1192 12.247L54.5302 12.3614L54.589 12.5904H53.7669L53.532 12.7048L53.2972 13.1054L53.7082 12.991H54.5302L54.7064 13.0482V13.2199L53.9431 13.2771L53.4733 13.506L54.4128 13.4488L54.7064 13.6205V13.7922H54.0018L53.4146 13.9066V14.3072L54.3541 14.1355H54.8238L54.7651 14.3645L53.5907 14.6506L53.532 14.7651L54.4128 14.5934H54.8238L54.8826 14.7078L54.7651 14.8795L54.1192 14.994H53.5907L53.8256 15.2229L53.9431 15.2801H54.4715L55 15.1657V15.3946L54.6477 15.5663H53.8843L53.4146 15.3373L53.0036 14.9367L52.71 14.3072L51.7705 14.4217L50.1851 14.6506L48.5409 14.8223L48.3648 14.8795L47.7776 14.9367V15.0512L48.3648 14.9367L48.5409 15.2801V15.6235L47.7189 15.6807L47.6601 15.8524H48.4822L48.5409 15.9096V16.253L48.3648 16.3102L47.7776 16.253L47.9537 16.4247L48.5409 16.4819L48.5996 16.7108H48.0125L47.6601 16.5392L47.3665 16.1958L47.3078 15.8524L44.6068 15.9096L41.3185 16.0813H40.4377V16.253L41.7295 16.3675L43.4324 16.5964L45.8399 16.997L47.7776 17.3404L48.952 17.4548L49.0107 17.1687L49.363 16.7108L49.7153 16.5392H50.1851L50.5374 16.7108L50.6548 16.9398L49.8327 16.8825L49.774 16.9398L50.3025 17.1114L50.5374 17.2259L50.5961 17.4548L50.4786 17.512L50.0089 17.3404H49.8327L50.5374 17.5693L50.4786 17.7982L49.5391 17.741V17.9127L50.4786 18.0271L50.4199 18.256L50.0676 18.3705L50.3025 18.4277L50.3612 18.5994L50.1851 18.7711L49.4804 18.5422L49.6566 18.7139L50.3025 18.8855V19.1145H49.8915L49.4217 18.9428L49.1281 18.6566L48.952 18.4277L48.8345 18.1416V17.741L47.9537 17.6837L43.4911 16.9398L40.8488 16.5392H40.4964L40.6726 16.7108L42.4342 17.4548L43.9609 18.0271L46.3683 19L48.6584 19.9729L50.0676 20.6024L51.4769 21.1175L51.8879 21.2892L52.0053 20.9458L52.5338 20.488L53.121 20.259H53.532L54.0018 20.488L54.2367 20.7741L54.1779 21.003L53.9431 20.9458L53.532 20.6024H53.0623L52.7687 20.7741L53.4733 21.003L53.9431 21.3464L54.0018 21.5753H53.7669L53.3559 21.2892L52.6512 21.1175L52.9448 21.3464L53.5907 21.6898L53.7082 21.8042L53.6495 22.0904L53.4146 22.0331L53.0623 21.747L52.5338 21.5753H52.4164L52.2989 21.9187L52.5925 22.0331L53.4146 22.3193L53.532 22.491L53.4733 22.5482L53.0623 22.491L52.3577 22.262L52.2989 22.3193L53.2972 22.8343V23.006L52.71 22.8916L52.0641 22.6054L52.2402 22.9488L52.7687 23.2922L53.1797 23.4066V23.5783L53.121 23.6355L52.5925 23.5783L52.0053 23.2349L51.653 22.7771L51.5356 22.3765L51.5943 21.747L51.653 21.5181L50.1263 20.9458L48.8932 20.4307L47.073 19.6295L47.6014 19.9729V20.2018H47.3665L47.1904 20.0301H47.073L46.8968 20.2018L46.6619 20.259L46.6032 20.4307H46.9555L46.8968 20.6596L46.6032 20.7169V20.8313L46.9555 20.6596H47.2491V20.4307L47.0142 20.3735V20.2018L47.1904 20.1446L47.484 20.4307L47.2491 20.8313L47.1317 21.003L46.8381 21.0602L46.427 20.8886V21.003L46.6032 21.0602L46.7794 21.2319L47.0142 21.3464V21.4608L46.8381 21.5181L46.427 21.2892L46.1335 20.9458V20.1446L45.6637 19.8584L43.9609 19L41.4359 17.6837L40.5552 17.2831L41.0249 17.6265L41.847 18.1988L43.9609 19.6867L44.9591 20.4307L45.8986 21.1175L46.427 21.5753L47.3665 22.2048L47.7776 22.491L48.0125 22.4337L48.3648 22.2048L48.7758 22.0904H49.363L49.774 22.3193L49.9502 22.6054L49.8915 22.7771L49.5979 22.7199L49.363 22.4337L48.8932 22.3765V22.491L49.3043 22.7199L49.6566 23.0633V23.2349H49.363L49.1281 22.9488L48.5409 22.6627V22.7771L48.8345 22.8916L49.2456 23.2349L49.3043 23.5783L49.1868 23.6355L49.0107 23.5211V23.4066L48.7758 23.2922L48.4822 23.0633H48.306L48.3648 23.2922L49.0694 23.75L49.0107 23.9217L48.7171 23.8645L48.2473 23.6355L48.7758 24.0934V24.2651L48.4822 24.2078L47.9537 23.8645L48.0125 24.0934L48.3648 24.3795L48.5996 24.5512L48.5409 24.7229L48.0125 24.5512L47.7189 24.3223L47.484 23.9217V23.2349L47.6601 22.7199L47.3665 22.6054L46.5445 22.0331L45.7224 21.4036L45.1352 20.9458L42.9039 19.3434L40.79 17.8554L40.2616 17.4548L40.0854 17.3976L40.2616 17.8554L40.9075 18.5994L41.6121 19.4006L42.258 20.2018L43.0214 21.0602L43.7847 22.0331L44.4306 22.7771L45.0178 23.5211L45.8399 24.5512L46.3683 25.238L47.0142 25.9819L47.5427 26.5542L47.6601 26.7259L47.9537 26.6687L48.5409 26.497H49.1868L49.7153 26.7259L50.0676 27.241V27.5271L49.774 27.5843L49.4217 26.9548L49.2456 26.8404L48.7171 26.7831L48.6584 26.8404L49.0107 27.0693L49.4217 27.5271L49.5391 27.756V27.9849L49.3043 28.0422L49.1281 27.756L48.8932 27.4127L48.5996 27.1837H48.4235L48.8932 27.6416L49.0694 27.9277V28.2711L48.8345 28.3283L48.6584 28.1566L48.3648 27.5843L48.0712 27.3554L47.895 27.4127L48.0125 27.756L48.4235 28.2711L48.6584 28.5L48.5996 28.6717L48.306 28.5572L48.0125 28.2711L47.6601 27.9849L48.0125 28.5L48.2473 28.7861L48.1886 28.9578L47.8363 28.7861L47.4253 28.3283L47.2491 28.1566L47.3665 28.6717L47.6014 29.0151L47.895 29.244V29.3584L47.7189 29.4157L47.2491 29.1867L46.8968 28.7289L46.8381 28.5V27.8705L47.0142 27.4127L47.3665 26.9548L46.9555 26.4398L46.3096 25.753L44.7829 23.8072L44.137 23.006L43.6085 22.3765L42.9626 21.5753L42.3167 20.8313L41.6708 20.0301L41.1423 19.4578L39.968 17.9699L40.0267 18.1988L40.9075 19.6295L41.4947 20.6596L42.1406 21.6898L42.4929 22.3193L43.0801 23.2922L43.4324 23.2349H44.0196L44.3132 23.4639L44.4893 23.8072V23.9789H44.2544L44.0196 23.5783V23.4639H43.726V23.6355L43.9609 23.75L44.1957 24.0934L44.0783 24.2651L43.5498 24.3795L43.1388 24.7229L43.0214 24.6657V24.5512L42.7278 24.494V24.2078H42.6103L42.7278 24.5512L43.0214 24.8373L42.7278 24.9518L42.4342 24.6657L42.3754 24.4367V24.0361L42.6103 23.6355H42.7278L42.7865 23.3494L41.7883 21.6898L41.4359 21.1175L40.6139 19.6867L40.0267 18.7711L39.6157 18.1416L39.3808 17.741L39.5569 18.256L40.0854 19.6867L40.9075 21.9759L41.9644 25.0663L42.1993 25.6386L42.9626 25.6958L43.4324 25.9819L43.6085 26.1536L43.6673 26.3825V26.7831L43.4324 26.8404L43.2562 26.7259L43.1975 27.012H42.8452L41.9644 27.3554L41.7295 27.2982L41.4947 26.9548L41.6121 27.2982L41.6708 27.5271H41.3185L41.0836 27.241L41.0249 27.012V26.6114L41.2598 26.1536L41.7295 25.753L41.6708 25.4669L41.2598 24.4367L40.6726 22.6054L39.7918 20.1446L39.2633 18.6566L39.0872 18.256L39.2633 19.5723L39.4395 20.7169L39.8505 23.3494L40.2616 26.6114L40.379 27.9277L40.6139 29.3012L40.7313 29.8735L41.1423 29.988L41.7883 30.1596L42.258 30.503L42.4929 30.9608V31.3614L42.3754 31.5904L42.0231 31.6476L41.7883 31.4187L41.6121 31.8193L41.3772 31.762V31.6476L40.79 31.762L40.7313 31.6476L40.79 31.1898L40.6726 30.6747L40.6139 30.5602H40.4964V31.247L40.5552 31.8193L40.3203 31.8765L40.1441 31.5904L40.0267 31.3614L40.1441 31.8765L40.0854 31.9337H39.7918L39.6157 31.5904L39.5569 31.3042V30.9036H39.4395V31.762L39.4982 32.0482L39.2046 32.1054L39.0285 31.9337L38.911 31.5904V31.0753L39.1459 30.6175L39.6157 30.2169L40.2616 29.9307L40.0267 28.4428L39.9093 27.756L39.6157 25.1235L39.1459 21.8042L38.8523 19.744L38.7936 19.9157L38.5587 24.0934L38.4413 29.5301L38.3826 31.3042L38.3238 34.4518L38.2651 38.9729L38.1477 40.8042L37.7367 45.4398L37.3843 47.9578L37.032 49.7319L36.5623 51.6205L35.6815 54.7681L34.6833 58.2018L33.6851 61.75L32.7456 65.4127L32.0409 68.6175L31.6299 70.8494L31.3363 73.0241L31.1601 74.9699L31.1014 75.9428L30.984 76H30.3968L30.2794 75.9428L30.3381 74.5693L30.5142 72.5663L30.8665 70.2199L31.4537 67.244L32.0409 64.7259L32.863 61.5211L34.2135 56.7711L35.0943 53.738L35.8577 50.991L36.3274 48.9307L36.6797 46.9277L36.9146 44.9819L37.3256 40.1175L37.3843 39.259L37.4431 37.4849L37.5018 31.4187L37.5605 28.8434L37.2669 28.9006L36.621 28.7289L35.8577 28.6717L35.7989 28.1566V27.9277L35.7402 28.5L35.6815 28.6717H35.3879L35.2705 28.5572V28.0422L35.4466 27.6988L35.8577 27.3554L36.3274 27.1837L36.6797 27.1265L36.8559 25.4669L37.0907 24.2651L37.5605 21.2892L37.9128 18.5422V18.1416L37.3843 19.3434L36.5036 21.5181L35.5053 23.8645L34.742 25.5813L33.9199 27.3554L33.3915 28.7289L33.2153 29.1295L33.5089 29.244L33.8612 29.5301L34.1548 29.988L34.2135 30.1596V30.7892L33.9786 31.1325L33.8612 31.247H33.4502L33.5089 31.0181L33.6851 30.7319L33.7438 30.2169L33.6263 29.9307V30.3313L33.3915 30.8464L33.1566 31.0753L32.863 31.0181L32.7456 30.8464L33.0391 30.503L32.7456 30.7892L32.5694 30.8464L32.3345 30.7319L32.3932 30.503L32.6281 30.0452L32.8043 29.4729L32.5694 29.5873L32.2758 30.2741L32.2171 30.6175L31.806 30.5602L31.2776 30.3313L31.4537 29.6446L31.6886 29.3012L31.395 29.4729L31.1601 29.9307V30.2741H30.8078L30.6904 30.1596L30.7491 29.7018L30.984 29.3012L31.2776 29.0723L31.6299 28.9006L32.3932 28.8434L32.8043 28.9006L32.9804 28.3283L33.7438 26.497L34.2135 25.5241L34.3897 25.1235V24.8946L33.3915 24.4367L33.1566 24.2651L33.2153 23.9789L33.3915 23.9217L33.4502 23.6928L33.2153 23.8072L32.9217 24.2651L32.8043 24.2078L32.863 23.8645L33.1566 23.5211L33.3915 23.4066H34.2135L34.8594 22.262L35.5641 21.0602L36.2687 19.744L37.3256 17.8554L37.2669 17.7982L36.4448 18.8283L35.7402 19.6295L35.3292 20.1446L34.6246 20.9458L33.8612 21.8042L33.2153 22.491L32.3932 23.4639L31.9822 23.9217L32.3345 24.7801V25.238L32.1584 25.5241L31.9235 25.6958L31.5712 25.753L31.395 25.4669L30.984 25.2952V25.1807L30.7491 25.0663V24.9518L30.4555 24.8373L29.7509 24.3223L29.8096 24.0934L30.1032 23.8072L30.4555 23.6355H31.2189L31.6299 23.6928L32.2758 22.8916L32.863 22.262L33.274 21.8042L33.8612 21.1747L34.3897 20.5452L35.0356 19.8012L35.7989 18.8855L36.3274 18.3133L36.8559 17.6837L36.7972 17.6265L36.5036 17.9127L35.9164 18.4277L35.2705 18.9428L34.5071 19.5723L33.8612 20.0873L33.274 20.6024L32.5107 21.1747L31.5125 21.9759L30.5142 22.7199L29.4573 23.5211L28.6352 24.1506L27.7544 24.9518L27.637 25.009L27.6957 25.2952L27.9306 25.8102L27.9893 26.2681L27.8132 26.7831L27.5196 27.0693L27.1085 27.2982L26.6975 27.241V27.0693L27.226 26.8404L27.4021 26.6114L27.4609 26.1536L27.0498 26.6114L26.6388 26.7831L26.2865 26.7259L26.2278 26.5542L26.8149 26.2681L26.9324 26.0392L26.5214 26.2681L26.0516 26.3253L25.8754 26.1536L26.0516 26.0392L26.5214 25.8102L26.8737 25.4096L26.9324 25.1807L26.4626 25.4096L26.0516 25.8102L25.6993 25.9247L25.2295 25.4096L25.347 25.1807L25.8167 24.8373L26.169 24.6657H26.4039V24.5512L25.8167 24.6657L25.347 24.8946L25.0534 25.1807L24.7598 25.0663L24.8772 24.7801L25.2295 24.494L25.6993 24.3223H26.5801L27.0498 24.5512L27.3434 24.7801L27.8719 24.2651L28.5178 23.75L29.3986 23.0633L30.8078 22.0331L30.3381 22.1476V21.9759L30.4555 21.8042L30.0445 21.6898L29.8683 21.3464L30.1032 21.1175L30.3968 21.003L30.4555 20.8313L30.1032 21.003L29.927 21.1175L29.6922 21.0602L29.3986 20.6596L29.2224 20.5452L29.2811 20.3163L29.6922 20.1446H30.2794L30.573 20.3163L30.7491 20.4307L31.0427 20.3735L31.9822 19.8012L32.9804 19.1717L34.2135 18.4277L35.2117 17.7982L36.2687 17.1687L35.5641 17.4548L34.331 17.9699L32.0996 18.8855L30.5142 19.5151L29.105 20.0301L28.048 20.488V21.4036L27.8719 21.8042L27.5783 22.0331L27.1085 22.1476H26.8149L26.6975 21.9759L27.1673 21.8042L27.4609 21.6325V21.5181L26.9911 21.6898H26.5801L26.5214 21.4608L27.1085 21.2319L27.226 21.1175L26.6388 21.4036L26.4039 21.2892L26.3452 21.0602L26.8737 20.8886L27.226 20.7169L27.3434 20.488L26.7562 20.7169L26.3452 20.9458L26.169 20.7741L26.2865 20.5452V20.488L26.0516 20.3735V20.2018L26.5801 19.9729L27.0498 19.9157V19.8012H26.5801L25.9929 20.0301L25.758 19.9729L25.8167 19.744L26.2278 19.5723L26.8149 19.5151L27.2847 19.6867L27.7544 20.0873L27.9306 20.2018L28.8701 19.744L30.8665 19L32.7456 18.256L34.3897 17.5693L35.8577 16.9398L36.5623 16.5964L36.621 16.4819L35.6815 16.5964L32.7456 17.0542L29.516 17.512L25.8754 17.9127L24.6423 18.1416H24.4075L24.29 19L23.9377 19.5723L23.5267 19.8012L23.4093 19.8584H22.7633L22.4698 19.6867V19.5723H23.2331L23.5854 19.4006L23.7616 19.1145V18.9428L23.468 19.1145L23.2918 19.1717H22.5872L22.3523 19.0572V18.8855L23.2918 18.8283L23.6441 18.6566H22.5872L22.3523 18.5422L22.2936 18.3133L23.1157 18.3705L23.6441 18.1988V17.9127L22.6459 18.0271H22.2349L22.2936 17.7982L22.8221 17.6265L23.4093 17.5693L23.5267 17.512H22.9395L22.2349 17.5693V17.3404L22.4698 17.2259L22.8221 17.1687H23.5267L23.2918 16.9398L23.0569 16.8825H22.5872L22 16.9398L22.0587 16.7108L22.6459 16.5392L23.1744 16.5964L23.6441 16.8253L24.0552 17.2259L24.3488 17.8554L26.1103 17.5693L28.2829 17.3404H28.5765V17.2259H29.2224L29.2811 17.1114L28.6352 17.1687L28.5178 16.7681V16.5392L29.3399 16.4247V16.253H28.5178V15.8524H29.2224V15.738L28.4591 15.6235V15.4518H29.1637L29.4573 15.6235L29.6922 15.9669L29.8096 16.253H30.9253L32.452 16.1958L34.3897 16.0813L36.1512 16.0241L36.5623 15.9669L36.2687 15.8524L33.9199 15.5663L30.7491 15.0512L29.105 14.7651L28.1655 14.6506L27.8132 15.2229L27.4609 15.509L27.3434 15.5663H26.6975L26.3452 15.3373L26.4039 15.1657L26.8737 15.2801H27.226L27.2847 15.1084L27.0498 15.1657L26.5214 14.9367L26.4626 14.7078L26.9911 14.7651L27.1673 14.8795L27.0498 14.7078L26.5214 14.5934L26.5801 14.3072L27.4609 14.4789L27.5196 14.1928L26.6388 14.1355L26.5801 13.9066L26.6975 13.8494H27.3434L26.6975 13.6777V13.4488L26.8737 13.3916L27.5783 13.6205L27.3434 13.3916L26.6388 13.2199L26.6975 13.0482H27.2847L27.7544 13.2771L28.048 13.6777L28.2242 14.3072L30.1619 14.5934L32.452 14.994L35.5053 15.4518L36.621 15.6235L36.3274 15.3373L32.452 13.8494L29.6335 12.7048L27.8719 11.9608L26.8737 11.503L25.4057 10.988L25.1708 10.8735L25.0534 11.1596L24.5249 11.6175L23.879 11.9036L23.3505 11.8464L22.8221 11.503L22.7633 11.2741L22.9395 11.1596L23.5267 11.5602H23.9377L24.29 11.3886L24.3488 11.2741H23.879L23.4093 11.1024L22.9982 10.759L23.0569 10.5301L23.5267 10.759L24.0552 10.988H24.4075L23.4093 10.4729L23.2918 10.3584L23.3505 10.0723H23.5854L23.879 10.3584L24.4662 10.5873L24.6423 10.6446V10.244L24.1139 10.0151L23.5267 9.78614V9.55723L24.2313 9.72892L24.8185 9.95783L24.5249 9.67169L23.7028 9.32831L23.6441 9.15663L23.8203 9.0994L24.7598 9.44277L24.9359 9.5L24.7011 9.15663L24.4075 8.92771L23.879 8.75602V8.52711L24.4075 8.58434L24.8772 8.81325L25.2883 9.27108L25.4057 9.55723V10.3012L25.347 10.5873L26.4626 11.0452L27.6957 11.503L28.8114 12.0181L29.105 12.1325H29.3986L29.6335 12.3042L29.9858 12.4187L30.0445 12.1325H29.5747L29.3399 11.9608L29.516 11.6747L29.6922 11.4458L30.0445 11.3313L30.2206 11.1596L30.5142 11.1024L30.3968 10.8735L29.8096 11.3886L29.7509 11.1596L30.0445 10.8163L30.2206 10.759L30.2794 10.6446L29.9858 10.5873V10.4729L30.2794 10.5301L30.6317 10.7018L30.8078 10.988L30.9253 11.2169L30.8665 11.9608L31.1601 12.0181L32.5694 12.762L33.5089 13.2199L35.0943 14.0211L35.7402 14.3072L35.5053 14.0783L34.8594 13.6777L34.0374 13.1054L32.9804 12.3614L31.8648 11.5602L31.0427 10.9307L30.4555 10.4157L29.3399 9.72892L29.2224 9.61446L28.9875 9.67169L28.6352 9.95783L28.1068 10.0723L27.5783 10.0151L27.226 9.78614L27.0498 9.55723L27.1085 9.32831L27.4021 9.38554L27.637 9.67169L27.7544 9.72892H28.2242L27.5783 9.38554L27.4021 9.15663V8.92771L27.637 8.87048L27.7544 8.52711L27.9893 8.64157L28.4591 9.04217L28.8114 9.15663L28.6352 8.87048L28.1068 8.52711L27.8719 8.41265L27.9306 8.24096H28.2829L28.7527 8.52711L28.1655 7.95482V7.84036L28.4591 7.89759L29.105 8.29819L28.9288 7.95482V7.84036L28.6352 7.7259L28.3416 7.55422L28.4004 7.43976L28.8114 7.49699L29.1637 7.7259L29.3986 8.01205L29.5747 8.41265L29.516 8.92771L29.3399 9.32831L30.0445 9.84337L30.8665 10.4157L31.7473 11.1024L33.7438 12.5331L34.8007 13.2771L35.7989 13.9639L36.8559 14.7078L36.9733 14.7651L36.7972 14.3072L36.3274 13.7349L35.6228 12.9337L35.0943 12.3042L34.3897 11.503L33.8612 10.8735L32.3345 9.04217L31.6886 8.24096L30.9253 7.26807L30.3381 6.5241L29.2811 5.37952L28.7527 5.60843L28.4004 5.66566H27.8719L27.4021 5.49398L27.0498 5.20783L26.9324 4.86446V4.57831H27.2847L27.5196 5.09337L27.9893 5.32229L28.4591 5.37952L27.8719 5.03614L27.5196 4.57831L27.4609 4.17771L27.8719 4.06325L28.1068 3.83434H28.2242L28.5178 4.40663L28.8114 4.75H28.9875L28.9288 4.3494L28.5765 3.89157L28.3416 3.66265L28.4004 3.49096L28.694 3.54819L29.2224 4.06325L29.2811 4.00602L28.9288 3.54819L28.7527 3.43373L28.8114 3.20482L29.0463 3.26205L29.3399 3.54819L29.6922 3.9488L29.6335 3.49096L29.3986 3.14759L29.105 2.86145L29.1637 2.74699L29.516 2.80422L29.927 3.14759L30.1032 3.54819L30.1619 4.12048L29.9858 4.69277L29.6922 5.03614H29.5747L29.6922 5.32229L30.4555 6.18072L30.9253 6.69578L31.806 7.84036L32.5694 8.75602L33.2153 9.55723L34.2722 10.8163L34.9181 11.5602L35.4466 12.1898L36.0925 12.9337L36.621 13.5633L37.1495 14.1355L36.9146 13.6777L36.21 12.5904L35.4466 11.2741L34.0374 8.98494L33.8612 8.81325L33.6263 8.87048H33.0979L32.6868 8.64157L32.5107 8.24096L32.5694 8.06928L32.8043 8.01205V8.29819L32.9804 8.41265L32.9217 8.12651V7.89759L33.3915 7.66867L33.8025 7.49699L34.2722 7.15361L34.5658 7.43976L34.6246 7.95482L34.4484 8.41265L34.2135 8.64157L34.6246 9.44277L35.6228 11.0452L36.3861 12.3614L37.2082 13.6777L37.7367 14.4789L37.5018 13.7922L36.9146 12.3042L35.7989 9.21386L35.3292 7.84036L34.8594 6.63855V6.40964L34.331 6.46687L33.6851 6.23795L33.3327 5.83735L33.274 5.37952L33.3915 5.26506L33.8025 5.1506L34.0374 5.03614L34.5658 4.92169L35.5053 4.57831L35.7402 4.63554L35.9751 5.03614V5.43675L35.7402 5.95181L35.2705 6.29518L35.3292 6.63855L35.7989 7.89759L36.2687 9.32831L37.2669 12.1325L37.6779 13.1627L37.9715 13.8494L37.7954 12.6476L37.4431 10.4729L37.032 7.7259L36.5623 3.83434L36.2687 2.1747L35.4466 2.06024L34.9769 1.83133L34.6246 1.43072L34.5071 1.14458V0.743976L34.6833 0.457831H34.9769V1.25904L35.3292 1.65964H35.4466L35.2705 1.25904L35.2117 0.972892V0.572289L35.2705 0.343373L35.5053 0.286145L35.6815 0.400602L35.7402 1.20181L35.7989 1.31627L35.7402 0.572289L35.7989 0.400602L36.21 0.343373L36.2687 0.457831V1.14458L36.3274 1.48795L36.5623 1.54518L36.4448 0.629518L36.3274 0.343373L36.7384 0.228916L36.9146 0.686747L36.9733 1.14458V0.743976L36.8559 0.228916L37.0907 0.171687L37.2669 0.228916L37.4431 0.801205L37.5018 1.20181L37.5605 1.14458V0.400602L37.4431 0.0572289L37.5605 0Z" fill="white"/>
<path d="M22.3959 36L22.7423 36.1154L22.8577 36.2309L22.8 36.5195H22.6845V39.8095L22.5691 41.8297L22.1649 44.8889L21.934 46.101L21.7031 46.9091L21.5876 47.0823L21.5299 47.3709H21.7031L21.8186 46.8514L22.3381 45.5238L23.0309 43.2727L23.2619 42.176L23.4928 40.4444L23.5505 39.4055L23.4928 39.0592L23.5505 39.0014H23.8969L23.9546 39.1746L23.7814 40.3867L23.5505 42.0606L23.2619 43.4459L22.9155 44.7157L22.3959 46.2742L21.8186 47.544L21.934 47.6017L21.9918 47.3131L22.2804 46.7359L22.9155 45.1198L23.4351 43.619L23.8392 42.0029L24.1278 40.2713L24.2433 39.1169L24.301 38.0779L24.0701 38.0202L24.1856 37.6739L24.4742 37.6162L24.7629 37.9048L24.6474 38.1356L24.4165 40.2136L24.2433 41.368L23.9546 42.7532L23.4928 44.4848L22.8577 46.1587L22.3959 47.14L22.0495 47.7749L21.7608 48.2367L22.0495 47.9481L22.5691 47.14L23.0887 46.2164L23.4351 45.6392L24.301 43.7345L24.7629 42.4646L25.2247 40.8485L25.5711 39.1746L25.6866 38.3665L25.6289 38.1356H25.7443L25.8021 37.9048L26.0907 37.9625L26.2639 38.2511L25.9753 38.5974L25.6289 40.2713L25.167 42.0606L24.4165 44.254L23.8969 45.4084L23.3773 46.3896L22.4536 47.8326L21.8763 48.583L21.1835 49.3911L21.4722 49.2756V49.1602L21.7608 48.9293L22.2804 48.2944L22.8577 47.544L23.5505 46.4473L24.301 45.062L25.167 43.1573L25.5134 42.2915L25.9175 41.0216L25.9753 40.733H26.3216L26.3794 40.9639L26.1485 41.368L25.3979 43.3882L24.8206 44.7734L24.1856 45.9856L23.666 46.7937L23.2619 47.4286L22.5691 48.3521L22.1072 48.9293V49.0447L22.6268 48.4675L23.7237 47.3709L24.1856 46.7937L24.7629 45.9278L25.6289 44.4271L26.3794 42.9264L26.899 41.4834L27.4186 39.7518L27.7072 38.4242L27.534 38.3665V38.1934L27.7649 38.0202L28.1113 38.0779L28.1691 38.3665L27.9959 38.6551L27.5918 40.329L27.0144 42.0606L26.2639 43.9076L25.8021 44.7734L25.4557 45.4084L25.0515 46.0433L24.3588 46.9668L23.8969 47.544L23.5505 47.9481H23.4351V48.0635L23.1464 48.3521L22.5691 48.8139L22.8 48.7561L23.8392 48.0058L24.3588 47.6017L24.9361 47.0823L25.6289 46.3319L26.2639 45.4084L26.8412 44.5426L27.3608 43.619L27.8804 42.5224L28.2845 41.4834L28.5155 40.6176L28.6309 39.9827L28.9196 39.925L29.1505 40.2136L28.9196 40.5599L28.5155 41.8874L27.9959 43.0996L27.5918 43.9654L27.0144 45.0043L26.3216 45.9278L25.3402 46.9091L25.2247 47.14L25.9753 46.3896L26.4371 45.9856L27.1299 45.3506L27.7072 44.7734L28.1113 44.3117L28.6309 43.7345L29.3814 42.6378L29.7278 42.1183L29.901 41.5988L30.0742 41.3102L30.2474 41.1948L30.5361 41.368V41.4834H30.6515L30.5938 41.7143L30.132 42.1183L29.7856 42.6955L29.266 43.4459L28.5155 44.3694L27.4763 45.5238L27.0144 45.9856L26.5526 46.3896L25.8021 47.0245L23.7237 48.5253L22.6268 49.2179L22.3381 49.3911L22.6845 49.2756L24.6474 48.3521L25.8021 47.6595L26.8412 46.9091L27.7072 46.1587L28.3423 45.5238L28.9196 44.7734L29.0928 44.4271L29.3814 44.3694L29.5546 44.658L29.0928 45.1198L28.5732 45.7547L27.6495 46.6782L26.8412 47.3131L25.9753 47.8903L24.5897 48.6984L23.4351 49.2179L23.2041 49.3911L24.9938 48.6984L26.3216 48.1212L27.5918 47.4863L28.8041 46.7359L29.5546 46.1587L30.2474 45.5238L30.6515 45.1198L31.1134 44.5426L31.3443 43.9654L31.4598 43.8499L31.7485 43.9076L31.9794 44.1385V44.3117L31.3443 44.8312L30.0165 46.1587L29.0351 46.9091L28.1113 47.544L27.0722 48.1212L26.1485 48.583L24.9361 49.0447L23.5505 49.5065L24.4165 49.3333L25.9753 48.8716L27.534 48.3521L29.1505 47.6595L30.0165 47.1977L31.0557 46.5051L31.5753 46.0433L31.7485 45.7547H32.0371L32.0948 46.0433L31.5175 46.5051L30.5361 47.1977L29.5546 47.7749L28.2845 48.4098L26.899 48.9293L25.5134 49.3333L23.7237 49.7374L21.7031 50.0837H24.1856L25.6866 49.8528L27.0722 49.5065L28.9773 48.8716L30.4206 48.1789L31.4598 47.544L32.2103 46.9668L32.9031 46.3319L33.3072 45.8701L33.4804 45.3506L33.5381 45.2929H33.8845L34 45.4084V45.697L33.4804 46.101L33.3072 46.3319H33.1918L33.0763 46.5628L32.4412 47.14L31.5175 47.8326L30.3629 48.5253L28.8041 49.2756L27.4186 49.7374L26.1485 50.026L24.4165 50.3146L23.7814 50.3723H21.4722L20.8948 50.3146L21.4722 52.2193L22.6268 55.7403L23.5505 58.6263L24.2433 60.8196L24.7629 62.7821L25.1093 64.2828L25.3979 66.0144L25.5711 67.6306L25.6289 68.6696V70.5166L25.5134 72.075L25.2825 73.8066L24.8784 75.8846L24.7629 76H24.1278L24.0701 75.8268L24.4165 74.0375L24.7052 71.9596L24.8206 70.3434V68.7273L24.7052 67.1111L24.4742 65.3795L24.1278 63.5902L23.7814 62.2049L23.1464 60.0115L22.8577 59.2035L21.934 58.7417L21.6454 58.6263L21.1258 58.684L20.2021 59.1457L19.2206 59.6652L18.2969 59.9538L17.6041 60.0693H16.9113L16.334 59.9538L15.699 59.6075L14.9485 59.0303L14.4866 58.6263V58.5108L14.7175 58.5685L15.0639 58.6263L15.5258 58.2222L16.6804 57.5873L17.4887 57.1255L17.9505 56.9524H18.7588L19.567 57.241L21.1258 58.0491L22.6268 58.7417L22.8 58.8571L22.5691 58.2222L21.5299 55.0476L20.9526 53.2006L20.3753 51.469L20.0866 50.5455V50.3723L18.0082 50.7186L16.4495 50.8341H14.8907L13.5052 50.7186L12.0619 50.4877L11.1959 50.2569L9.57938 49.6797L8.65567 49.2179L7.61649 48.6407L6.92371 48.1212L6.63505 47.9481L6.23093 47.8326L6 47.6017L6.05773 47.1977L6.34639 46.9668L6.75052 47.0245L6.86598 47.1977L6.98144 47.7172L7.78969 48.3521L8.7134 48.9293L9.63711 49.3911L10.5031 49.7374L12.2928 50.1991L13.7361 50.4877L14.1979 50.5455H17.3732L19.1629 50.3146L17.0268 50.1991L15.1794 50.026L13.6206 49.7951L12.2351 49.5065L10.9072 49.1025L9.52165 48.5253L8.59794 48.0058L8.07835 47.8326L7.96289 47.544L8.13608 47.2554H8.48247L8.65567 47.4286L8.82887 47.7172L9.81031 48.2944L10.9072 48.7561L12.6392 49.2756L13.8515 49.5642L14.9485 49.7374L16.6804 49.9105L16.7959 49.9683V49.8528L16.1031 49.7374L14.5443 49.3911L12.4082 48.6984L11.1381 48.1212L10.3876 47.6595L9.63711 47.14L9.00206 46.6205L8.42474 46.1587L8.07835 45.9278L8.02062 45.6392L8.30928 45.3506L8.54021 45.4084L8.77113 45.697L8.82887 45.9856L9.34845 46.5051L10.2144 47.14L11.0804 47.6595L12.2928 48.2944L13.7361 48.8716L14.9485 49.2179L16.5072 49.5642L17.0268 49.6219L15.0639 48.9293L13.9093 48.4098L12.6969 47.7749L11.8887 47.1977L11.0227 46.3896L10.6186 46.1587L10.5608 45.8124L10.734 45.6392L10.9649 45.697L11.3113 46.2164L12.1773 46.9668L13.5629 47.8903L14.1402 48.2367L15.1216 48.6984L17.3155 49.4488L18.0082 49.6219H18.1814L17.7196 49.4488L15.8722 48.5253L14.4289 47.7749L13.2165 46.9668L12.5814 46.5051L11.7732 45.8124L10.9072 45.062L10.4454 44.6003L9.92577 43.9654L9.34845 43.3304L9.05979 43.215L8.94433 43.0996L9.00206 42.811L9.29072 42.6378L9.52165 42.7532L9.86804 43.4459L10.5608 44.254L11.3691 45.062L12.0041 45.5815L12.8124 46.2742L13.6206 46.8514L14.4866 47.4286L14.1979 47.0823L13.7361 46.6782L13.0433 45.9278L12.466 45.1775L11.8309 44.254L11.1959 43.1573L10.5608 41.8874V41.772L10.3299 41.7143L10.1567 41.4257L10.3876 41.1948H10.734L10.7918 41.2525L10.9072 41.8874L11.6 43.3304L12.1196 44.1962L12.5237 44.7157L13.0433 45.4084L13.6784 46.101L14.0247 46.5051L14.1979 46.6205V46.7359L14.4289 46.8514L15.0639 47.4863L15.9876 48.1789L16.9113 48.6984L17.7196 49.1025L17.4309 48.8139L16.9113 48.4098L16.2763 47.8903L15.4103 47.0823L14.3711 45.8124L13.2165 44.0808L12.6392 43.0418L12.0619 41.9452L11.4268 40.4444L11.1381 39.7518L10.8495 39.5786V39.29L11.0804 39.0592L11.3691 39.1746L11.4268 39.2323L11.5423 39.925L12.0041 41.1371L12.8124 42.811L13.3897 43.8499L14.2557 45.1775L14.8907 45.9856L15.1216 46.2164V46.3319H15.2371L15.7567 46.9668L16.3918 47.6595L17.2 48.3521L18.2969 49.1602L18.3546 49.1025L17.7773 48.5253L17.5464 48.3521V48.2367L17.3732 48.1789L16.9691 47.7172L16.4495 47.14L15.6412 46.101L14.9485 45.0043L14.1402 43.6768L13.3897 42.2915L13.0433 41.772L13.1588 41.6566H13.4474L13.6206 41.9452L13.967 42.7532L14.7753 44.1385L15.2371 44.9466L15.8722 45.8701L16.4495 46.6205L17.2577 47.6017L17.4887 47.8903V48.0058H17.6041L18.0082 48.4675L18.701 49.0447L19.3361 49.4488L18.8742 48.987L18.4124 48.583L17.8351 48.0058L17.4309 47.544L16.7381 46.7359L16.1031 45.8124L15.2371 44.3694L14.7175 43.3882L14.3711 42.6378L13.7361 41.0794L13.101 39.3478L13.0433 39.1746L12.8701 39.1169L12.9856 38.8283L13.3897 38.7706L13.5629 39.0014L13.4474 39.29L13.7361 40.2713L14.1402 41.368L14.6598 42.5801L15.2948 43.9076L15.8144 44.8312L16.2763 45.5238L16.9691 46.5051L17.7773 47.544L18.4124 48.2367L18.5856 48.3521L18.4124 48.0635L18.1814 47.8326L17.7773 47.2554L17.1423 46.2164L16.334 44.658L15.7567 43.3882L15.4103 42.5224L15.0062 41.1948L14.4866 39.0014L14.3134 38.7128V38.4242L14.4866 38.3088L14.833 38.3665L14.9485 38.7128L14.7753 38.7706L15.1794 40.6753L15.5258 41.8874L16.2186 43.7922L16.8536 45.1198L17.7773 46.6782L18.3546 47.6595V47.7749L18.4701 47.7172L17.9505 46.8514L17.4309 45.9278L16.6804 44.3117L16.0454 42.6378L15.5835 41.0216L15.2948 39.9827L15.2371 39.5786L15.468 39.4632H15.7567L15.8722 39.8672L15.699 40.0981L16.1031 41.8297L16.7381 43.7345L17.2577 44.9466L18.6433 47.4863L18.8742 47.7749L18.2392 46.4473L17.8351 45.2352L17.2 43.0996L16.7381 41.1371L16.334 38.7128L16.1608 37.0967L15.9299 36.8081L16.1031 36.5195L16.3918 36.4618L16.6227 36.6926L16.5649 36.9235H16.4495L16.6227 38.5974L16.9691 40.733L17.3155 42.3492L17.8928 44.4848L18.4701 46.1587L18.0082 44.0808L17.7196 42.8687L17.6041 42.6378V42.4069L18.0082 42.2915L17.8928 41.3102L17.6041 39.1746L17.4887 38.6551L17.8928 38.5974L17.9505 38.6551L18.0082 39.6364L18.2392 41.5411L18.4701 42.8687L18.5856 43.7345L18.7588 44.658L18.8165 45.0043V44.4848L18.5856 42.811L18.4124 42.176L18.5278 42.0606H18.8742L18.932 42.3492V42.8687L19.1629 44.8312L19.5093 46.9091H19.6247L19.567 46.7937L19.3938 45.3506L19.1052 41.9452L18.932 39.4055L18.8742 38.886L18.7588 38.7128L18.8165 38.4242L19.2784 38.3665L19.3938 38.7128L19.2784 38.9437V39.6941L19.4515 42.4069L19.6247 44.4848L19.9711 47.4863L20.0866 48.4675L20.2598 49.0447L20.3175 48.6407V46.9668L20.2598 45.5238L20.2021 43.0996L20.0866 41.3102L19.9134 38.9437L19.7979 38.7706V38.4242L20.2021 38.3665L20.2598 38.7128V39.4632L20.433 41.772L20.5485 44.6003L20.6062 44.7734L20.7217 46.101L20.7794 45.5238V42.7532L20.6639 42.176L20.7217 41.8874L21.0103 41.8297L21.1258 41.8874L21.2412 43.6768L21.3567 44.4271L21.4722 44.4848L21.299 43.215L21.2412 38.8283L21.0103 38.7706L20.9526 38.5974L21.1258 38.3088H21.5299L21.6454 38.5974L21.5876 38.7128L21.5299 42.0606H21.8763L21.9918 42.2915L21.8763 42.7532L21.8186 43.0996L21.7031 45.1775L21.5876 46.0433H21.7031L21.7608 45.2929L22.0495 43.7922L22.2804 42.0029L22.3959 40.2713V36.5772L22.2227 36.5195V36.1154L22.3959 36Z" fill="white"/>
<path d="M51.4253 35L51.7081 35.0568L51.7647 35.1136V35.3975L51.595 35.5679L51.3688 36.9875L51.1991 38.6911L51.1425 39.5429V43.6316L51.1991 43.6884L51.2557 43.1773L51.3122 41.7576V40.6787L51.4819 40.5083L51.7647 40.5651L51.8778 39.5997L52.1041 37.5554V37.2147H52.4434L52.5 37.385L52.3869 37.7258L52.1606 39.4861L51.9344 42.1551L51.8213 42.6662V42.9501L52.1041 41.133L52.1606 40.5083L52.4434 40.4515L52.5566 40.5083L52.5 40.849L52.2738 41.9848L52.1041 43.7452L52.0475 44.0291V45.3352L52.1606 43.9723L52.6697 41.133L53.009 39.3158L53.2353 37.9529L53.2919 37.385L53.3484 37.3283H53.6312L53.8009 37.4418L53.7443 37.7258L53.5747 37.8961L53.2353 39.4294L52.6697 42.6094L52.2738 45.3352L52.1041 47.1524L52.5 45.9598L53.0656 43.518L53.405 42.0983L53.8575 39.7701L54.1403 37.9529V37.6122L54.1968 37.5554H54.4796L54.5362 37.8393L54.31 38.7479L53.7443 41.7576L53.1222 44.597L52.7828 45.8463L53.1787 44.6537L53.6312 43.1773L53.9706 41.8144L54.1403 40.849L54.3665 40.7922L54.5362 40.9058L54.5928 41.0762L54.7624 40.6219L55.2715 38.5208L55.3281 38.1801H55.2149V37.8961L55.3281 37.7825L55.724 37.8393L55.7805 38.0665L55.5543 38.5208L54.9887 40.6787L54.8756 41.1898L55.2149 41.3033L55.1584 41.5873L54.8756 42.2687L54.31 43.9155L54.1968 44.313L54.6493 43.4044L55.1018 42.3823L55.5543 41.2465L56.1199 39.5429L56.629 37.669L56.8552 36.59L56.9118 36.4765L56.7421 36.4197L56.7986 36.1925L56.9683 36.0789L57.2511 36.1357L57.3077 36.1925V36.4765L57.138 36.7036L56.7986 38.0665L56.1199 40.338L55.6674 41.644L54.7059 43.9723L54.0837 45.1648L53.5747 45.903L53.8575 45.6191L54.4231 44.8809L55.1584 43.7452L55.8371 42.6662L56.4593 41.4169L56.9118 40.338L57.1946 39.4294L57.2511 38.9751H57.5905L57.6471 39.0886L57.2511 40.1676L56.7986 41.3033L56.1765 42.6094L55.6109 43.6316L54.9887 44.597L54.2534 45.5623L53.8575 46.0166L54.2534 45.6759L54.819 44.9377L55.4977 43.9723L56.1765 42.9501L56.6855 42.0416L57.138 41.133L57.7036 39.8269L58.0995 38.6343L58.1561 38.2936L57.9864 38.1233L58.1561 37.8961H58.4955L58.6086 38.0097L58.552 38.2936L58.2127 39.2022L57.6471 40.6787L57.0814 41.928L56.2896 43.2909L55.7805 44.1427L55.2149 44.8809L54.7059 45.5055L54.1968 46.0734L53.7443 46.5845L53.6878 46.6981L54.1403 46.3006L55.4412 44.9945L55.8371 44.5402L56.5724 43.6884L57.138 42.9501L58.043 41.5305L58.7783 40.1676L59.1742 39.3158L59.4005 38.5776L59.6833 38.5208L59.8529 38.6343V38.9183L59.5701 39.1454L58.948 40.4515L58.2127 41.7576L57.4208 43.0069L56.7421 43.9723L56.233 44.5402L55.8371 44.9945L54.7624 46.0734L54.31 46.4709L53.5747 47.0388L53.1222 47.3795L53.405 47.2659L53.9706 46.8684L54.7059 46.3006L55.6109 45.4488L56.233 44.8241L56.3462 44.6537H56.4593L56.5724 44.4266L57.0249 43.9155L57.6471 43.1205L58.0995 42.5526L58.4955 41.9848L58.948 41.3033L59.0611 41.0194L59.3439 41.0762L59.4005 41.2465L58.948 41.8144L58.4389 42.5526L57.7602 43.4612L57.3643 43.9723L56.7421 44.7105L56.233 45.2784L55.1018 46.3006L54.31 46.9252L53.7443 47.3227L54.1968 47.1524L55.4977 46.3573L56.233 45.7895L56.4027 45.7327V45.6191L57.0249 45.108L57.4774 44.6537L57.5339 44.5402H57.6471L57.7602 44.313L58.3824 43.6316L58.8914 43.0069L59.4005 42.3255L60.0792 41.3033L60.8145 39.9972L61.0407 39.4861V39.1454H61.1538V39.0319L61.4932 39.0886L61.6063 39.3158L61.267 39.7701L60.6448 40.9626L60.0226 41.928L59.5701 42.5526L58.7783 43.6316L58.1561 44.313L57.7602 44.7673L57.0814 45.4488L56.3462 46.0166L55.4977 46.6413L54.4231 47.2659L54.7624 47.2091L56.2896 46.5277L56.9118 46.187L57.8733 45.5055L58.7217 44.7105L58.8914 44.6537L59.0045 44.4266L59.457 44.0291L60.0792 43.3476L60.5882 42.6662L61.1538 41.8144L61.4932 41.0194L61.6063 40.9058H61.776L61.9457 41.133L61.8891 41.3601L61.6063 41.7008L61.0407 42.6094L60.3054 43.5748L59.6833 44.2562L59.457 44.5402L59.0045 44.9377L58.552 45.392L57.9864 45.7895L57.0814 46.3573L57.9864 45.903L59.5136 45.0512L60.362 44.4834L61.0973 43.9155L61.8891 43.2341L62.2851 42.7798L62.5113 42.4391L62.7941 42.4958L62.9638 42.723L62.8507 42.9501L62.2851 43.2909L61.8326 43.7452L61.0407 44.3698L60.4186 44.8241L59.8529 45.2216L59.1176 45.6759L58.043 46.2438L56.233 46.982L54.7059 47.5499L54.0837 47.6066V47.7202L54.819 47.777L55.1584 47.8906L55.2715 48.0042L56.233 48.1177H58.3258L59.9661 47.8906L61.1538 47.6066L62.2851 47.2091L62.8507 46.9252L63.0204 46.7548L63.2466 46.8684L63.19 47.0956L62.4548 47.4363L61.5498 47.777L60.1923 48.1177L59.0045 48.3449L58.552 48.4017H54.5928L53.5181 48.2881H53.0656L54.4231 48.6288L56.233 48.9127L56.9118 48.9695H58.4955L60.4751 48.7424L61.6629 48.4584L62.7941 48.0609L63.6991 47.6066L64.3778 47.1524L64.6041 46.8116L64.7738 46.7548L65 46.982L64.9434 47.2091L64.3778 47.4931L63.6425 47.9474L62.7941 48.3449L61.4367 48.7992L60.1357 49.0831L58.8914 49.2535H57.1946L55.3281 49.0263L53.9706 48.7424L52.7262 48.4017L52.3303 48.3449L51.595 49.7078L50.9163 51.0139L50.2941 52.3767L49.7851 53.91L49.5588 54.8753L49.4457 55.8407V57.3172L49.6154 58.7368L49.9548 60.554L50.7466 63.6773L51.086 64.9266L51.1425 65.0402L51.4819 64.4723L51.7647 63.6205L52.2172 62.7119L52.6697 62.144L53.0656 61.8033L54.8756 60.8947L55.3846 60.554L56.0068 59.9862L56.629 59.1343L56.8552 58.7936L56.9683 58.5097L57.138 58.5665L57.2511 59.4183V60.554L57.0814 61.5762L56.6855 62.4848L56.1199 63.2798L55.724 63.7341L55.1018 64.2452L54.4231 64.5859L53.9706 64.6994L52.3869 64.8698H51.9344L51.595 64.813L51.2557 65.3241V65.7784L51.5385 67.3684L51.6516 68.5609V70.4349L51.4819 71.9114L51.1991 73.331L50.7466 74.9211L50.4072 75.8864L50.2376 76H49.6154L49.6719 75.6025L50.2376 73.8989L50.6335 72.1953L50.8032 70.946L50.8597 70.2078V68.6745L50.7466 67.482L50.4638 65.892L49.5588 62.2576L49.0498 60.1565L48.767 58.5665L48.6538 57.4875V55.6704L48.8801 54.2507L49.2195 53.0582L49.7285 51.6953L50.2941 50.446L50.9729 49.1967L51.4253 48.3449L51.5385 48.0609L49.8416 47.9474L48.3145 47.6634L46.8439 47.2659L45.2036 46.6413L44.0724 46.0734L42.9412 45.2784L42.3756 44.8241L41.81 44.313L41.3575 43.9155L40.8484 43.3476L40.5656 42.9501V42.8366L40.1697 42.723L40 42.5526V42.2119L40.1697 41.9848H40.6787L40.7919 42.0983L40.8484 42.3823V42.723L41.2443 43.2909L41.7534 43.8587L42.6018 44.7105L43.6199 45.4488L44.9208 46.187L46.1086 46.7548L47.8054 47.3227L48.8235 47.5499L50.2376 47.777H50.6335L49.2195 47.3227L47.6357 46.7548L46.052 46.0734L45.1471 45.6191L44.2986 45.108L43.5068 44.5402L42.5452 43.7452L42.1493 43.3476L41.6968 43.0069V42.7798L41.9231 42.6094H42.2059L42.3756 42.8934L42.4887 43.2341L42.9977 43.7452L43.5633 44.1994L44.2421 44.7105L45.2602 45.3352L46.1652 45.8463L47.5792 46.4709L48.371 46.8116L49.1629 47.0388L48.5407 46.7548L47.862 46.4141L46.6176 45.7327L45.3733 44.8809L44.638 44.2562L44.0724 43.7452L43.6765 43.3476L43.1674 42.723L42.6018 41.928L42.2059 41.4737L42.1493 41.2465L42.4321 41.0194L42.7149 41.0762L42.8281 41.1898V41.644L43.2805 42.3255L43.733 42.8934L44.3552 43.5748L44.8077 43.9723L45.4864 44.597L46.3914 45.2784L47.5792 46.0166L49.1063 46.7548L49.0498 46.5845L48.7104 46.4709L47.5792 45.6759L46.957 45.1648L46.2217 44.4834L45.4864 43.7452V43.6316H45.3733L44.8643 42.8934L44.4683 42.2687L44.2986 42.0983V41.928L44.4683 41.8144H44.7511L44.9774 42.4391L45.3733 43.0069L45.9389 43.7452L46.5045 44.313L46.9005 44.7673L47.5226 45.3352L48.371 45.9598L49.6154 46.7548L50.0113 46.9252L49.4457 46.4141L48.8235 45.903L47.9186 45.0512L47.4661 44.6537V44.5402L47.2398 44.4266L46.5611 43.6884L45.9389 42.8934L45.1471 41.7576L44.5814 40.7922L43.9027 39.3726L43.6765 39.3158L43.6199 39.0319L43.8462 38.8047L44.0724 38.8615L44.1855 38.9751L44.2986 39.5429L44.7511 40.5083L45.4299 41.5873L45.8824 42.2687L46.2783 42.7798L46.7873 43.4044L47.1833 43.9155L47.4661 44.1427L47.2398 43.8019L46.7873 43.0637L46.1652 41.7008L45.7692 40.5083L45.4299 39.1454L45.2602 38.4072L45.0905 38.1233L45.1471 37.8961L45.4299 37.7825L45.6561 38.0097L45.7127 38.1801H45.543L45.8258 39.6565L46.1652 40.9058L46.9005 42.6094L47.4095 43.518L47.8054 44.1427L48.371 44.9377L49.276 45.903L49.9548 46.4709L50.1244 46.5277L49.7851 46.187V46.0734H49.6719L49.2195 45.5055L48.767 44.8241L48.2014 43.8587L47.6923 42.6662L47.2398 41.4169L46.8439 39.9404L46.5045 38.1801L46.3348 36.874L46.2217 36.59L46.1086 36.4765V36.2493L46.2783 36.1357H46.5611L46.7308 36.4765L46.6176 36.5332V37.1011L46.9005 38.9751L47.2398 40.5083L47.6923 41.9848L47.9751 42.6662L48.4842 43.7452L49.2195 45.0512L49.8982 46.0166L50.2941 46.4709L50.4072 46.5277L49.5023 44.9377L48.9367 43.7452L48.3145 41.8712L47.9186 40.4515L47.6357 39.259L47.5226 38.9183L47.8054 38.8615L47.9751 39.3726L48.371 41.0762L48.8235 42.5526L49.276 43.7452L49.9548 45.2784L50.2941 45.903L50.8032 46.6413L51.086 46.9252L50.6335 46.187L50.0113 45.0512L49.4457 43.7452L48.9367 42.2119L48.5407 40.5083L48.3145 39.0319L48.0882 36.7036L48.0317 36.6468V36.3629H48.5407V36.7036L48.4276 36.874L48.5407 38.5776L48.8235 40.6219L49.1629 42.0983L49.5023 43.0069L50.1244 44.6537L50.5769 45.6191L50.8032 46.0166L50.7466 45.7327L50.5204 45.2216L50.181 44.3698L49.8416 42.9501L49.5023 40.9058L49.3891 39.7701V36.7036L49.3326 36.3061L49.4457 36.2493H49.7851L49.8416 36.3061L49.7851 36.7036L49.7285 36.7604L49.6719 37.4418V39.9404L49.8982 41.8144L50.1244 43.0069L50.4072 44.0291L50.5769 44.6537L50.5204 44.2562L50.2376 42.8366L50.0113 41.3601L49.9548 40.5651L49.8982 37.8393L49.8416 37.6122L50.0679 37.4418L50.3507 37.4986L50.4638 37.669L50.4072 37.9529L50.2376 38.0097V40.9626L50.5204 42.8934L50.69 43.518L50.9729 44.9377H51.0294L50.9729 44.2562L50.9163 44.0859V38.8615L51.2557 35.6247L51.1991 35.1704L51.4253 35Z" fill="white"/>
<path d="M71.023 12H71.2529L71.1954 12.25L70.5057 12.45L70.1609 12.7L70.046 12.9V13.05L70.5057 12.75L71.0805 12.55L71.3678 12.6L71.3103 12.75L70.2184 13.15L70.1034 13.3L71.2529 12.95L71.4828 13V13.15L70.5632 13.4L70.2759 13.5L70.3333 13.7H70.7931L71.3678 13.55L71.5977 13.5V13.7L71.0805 13.95L70.7931 14.05V14.1L71.3678 14.05L71.6552 13.95L71.8276 14L71.5402 14.25L71.1954 14.4L70.6782 14.45L70.7356 14.6L71.1379 14.7L71.5402 14.65L71.8276 14.5L72 14.55L71.5402 14.9L71.023 15L70.6207 14.85L70.2759 14.6L69.8736 14.05L69.7586 13.95L69.2989 14.1L67.7471 14.45L67.3448 14.55H67L67.2299 14.35L68.2644 14.05L69.5862 13.75H69.7586L69.7011 13.25L69.8736 12.75L70.2759 12.35L70.7356 12.1L71.023 12Z" fill="white"/>
<path d="M13.6623 24H13.9221L14.1818 24.2597L14.3896 24.5714L14.5455 25.039V25.4026L14.3896 25.8182L14.2338 26.026L14.3377 26.2338L15.0649 26.8571L15.8442 27.5844L16 27.7922V28L15.7922 27.8961L15.3766 27.4805L14.8052 27.013L14.1818 26.4416L13.9221 26.3377L13.5065 26.6494L13.0909 26.8052H12.7273L12.3117 26.5974L12.0519 26.2857L12 25.9221H12.1039L12.3636 26.3377L12.5714 26.4416L13.1429 26.4935L12.987 26.3377L12.5714 26.026L12.4156 25.7143L12.4675 25.4545L12.6234 25.6104L12.7273 25.8701L12.987 25.974L13.2987 26.0779L13.039 25.8182L12.8312 25.5584L12.7792 25.1948L12.9351 25.2468L13.2468 25.6623L13.5065 25.8182L13.8701 25.8701L13.8182 25.6104L13.0909 24.9351V24.7792L13.3506 24.8312L13.974 25.4026L14.1299 25.6104L14.0779 25.3506L13.6104 24.8312L13.4026 24.6753L13.4545 24.4156L13.7143 24.5714L14.1299 25.039L14.2857 25.4026L14.3896 25.3506L14.2857 24.8831L14.026 24.4675L13.6623 24.1039V24Z" fill="white"/>
<path d="M60.1053 25H60.3684V25.1579L60.0526 25.3684L59.7368 25.8421L59.6316 26.4211H59.7368L59.8421 26.1053L60.1579 25.6842L60.4211 25.4737H60.6316L60.6842 25.6316L60.2632 25.9474L60.0526 26.2105L60 26.4211H59.8947V26.5789H60L60.3158 26.1053L60.7368 25.7895L60.9474 25.8421L60.8421 26.0526L60.3158 26.4737L60.1579 26.7368V26.8421L60.5263 26.7895L60.8421 26.5789L61.0526 26.3158L61.1579 26.1053L61.2632 26.3684L61.0526 26.7895L60.7895 27L60.7368 27.1053L61.2632 26.8421L61.4211 26.6842L61.5263 26.4737L61.6316 26.6842L61.4211 27.1053L60.8947 27.4211L60.9474 27.4737H61.4211L61.7368 27.3684L61.8421 27.1579L62 26.9474V27.3158L61.7368 27.6316L61.3158 27.8421L60.7368 27.7895L60.3158 27.5789L60.0526 27.3684L59.8421 27.4737L59.3158 27.9474L58.7368 28.4211L58.3684 28.7895L58.1053 29H58L58.0526 28.7368L58.7895 28L59.5263 27.4211L59.7895 27.2105L59.4737 26.4211V25.9474L59.7368 25.3158L60.1053 25Z" fill="white"/>
<path d="M2.17143 13L2.45714 13.0595L2.74286 13.4762L2.91429 13.9524V14.6071L2.62857 15.2024L2.4 15.4405L2.45714 15.6786L3.2 16.5714L3.82857 17.4643L4 17.8214V18L3.77143 17.881L3.2 17.1071L2.57143 16.3333L2.11429 15.7381L1.82857 15.8571L1.37143 16.0357H0.742857L0.4 15.8571L0.114286 15.5L0 15.2619V14.9048H0.114286L0.285714 15.3214L0.628571 15.619L1.14286 15.6786L0.857143 15.381L0.571429 15.0238L0.457143 14.5476L0.628571 14.4881L0.914286 14.9643L1.25714 15.2619L1.42857 15.3214L1.02857 14.7262L0.914286 14.369L0.971429 14.25L1.14286 14.3095L1.48571 14.9048L1.71429 15.0833H2.05714L2.17143 14.9643L1.65714 14.369L1.37143 13.9524L1.54286 13.7738L2 14.3095L2.28571 14.7857L2.4 14.8452L2.22857 14.3095L1.77143 13.7143L1.82857 13.4762L2.11429 13.6548L2.57143 14.4286L2.62857 14.6667L2.74286 14.6071L2.68571 14.0119L2.4 13.4762L2.17143 13.1786V13Z" fill="white"/>
<path d="M11.7558 14L12.2791 14.0508L12.8023 14.3559L13.093 14.661L13.2674 15.0169V15.7288L14.2558 15.9322L15.6512 16.2881L16 16.4915V16.5932L15.4767 16.4915L13.2674 15.9831H13.1512L12.8605 16.4915L12.3372 16.8983L11.7558 17L11.2326 16.7966L11 16.5932V16.4915L11.5814 16.6949H11.9302L12.3372 16.4915L12.3953 16.3898H11.814L11.3488 16.1864L11.1744 15.9831L11.2326 15.8814L11.814 16.0847L12.3372 16.0339L11.7558 15.8814L11.3488 15.5763V15.4746L12.0465 15.678H12.7442V15.4746L11.5814 15.1695L11.5233 14.9661L12.0465 15.0169L12.6279 15.1695L12.8605 15.2712V15.3729H12.9767L12.8605 15.1186L11.7558 14.7627L11.6977 14.5593L11.8721 14.5085L12.4535 14.7119L12.8605 14.9661L13.0349 15.0169L12.7442 14.6102L12.3953 14.3559L11.7558 14.2034L11.6977 14.1017L11.7558 14Z" fill="white"/>
</svg>
