<svg width="73" height="93" viewBox="0 0 73 93" fill="none" xmlns="http://www.w3.org/2000/svg">
<path d="M3.25806 43.6057L3.53536 43.675L3.74334 44.091L3.60468 44.5069L3.74334 44.7149L3.53536 45.2002L3.46603 45.4775L4.08996 46.2401L4.50592 46.7947L4.57524 47.2107L4.22862 46.864L3.67401 46.1708L3.18873 45.5468L2.8421 45.6855L2.70345 45.7548H2.01019L1.59424 45.2695V45.1309L1.87154 45.2695L2.01019 45.4082H2.35682L2.42615 45.2695L2.14884 45.2002L2.07952 44.9922L2.42615 45.0616H2.5648L2.42615 44.9229L2.49547 44.6456L2.8421 44.9922L3.18873 45.0616L2.8421 44.5069L2.63412 44.299L3.1194 43.883H3.25806V43.6057Z" fill="#923F48"/>
<path d="M10.6762 44.2297L11.1615 44.2991L11.5081 44.5764L11.7854 45.0616L11.8547 45.6856L13.3799 46.1015L13.7959 46.3095L13.8652 46.4482L13.1719 46.3095L11.9241 45.9629H11.7161L11.3001 46.5868L10.8842 46.7948H10.4682L10.1909 46.5868L10.2602 46.3788V46.5175H10.7455L11.0228 46.3788L11.0922 46.2402L10.6762 46.3095L10.3296 46.1709L10.5375 45.9629L11.3001 45.6856L11.3695 45.4776H11.0228V45.0616L10.8148 44.9923L10.7455 45.2696L10.5375 45.2003L10.6762 44.715H11.0228L11.4388 45.3389L11.5081 45.131L11.3001 44.715L11.0922 44.507L10.6762 44.3684V44.2297Z" fill="#923F48"/>
<path d="M11.7161 51.9941L11.9934 52.0635L12.34 52.6181V53.3807L12.2014 53.5886L12.2707 53.8659L13.4492 54.9751L13.6572 55.2525L13.5879 55.3911L12.8946 54.7672L12.34 54.2819L11.9934 54.0046L11.7161 54.1432L11.0922 54.4205L10.7455 54.3512L10.3989 54.0739L10.3296 53.7966L11.1615 54.2126V54.0046L10.8842 53.8659L10.6069 53.658L10.6762 53.3807L10.9535 53.034H11.0922L11.0228 53.3113L10.8149 53.3807L10.8842 53.5886H11.0922L11.1615 53.3113L11.8548 53.5886L11.6468 53.3113V53.1727L11.3695 53.034V52.826L11.7161 53.1034L11.9241 53.1727V53.3113H12.0627L12.1321 52.7567L11.9241 52.4101V52.2714L11.7161 52.2021V51.9941Z" fill="#923F48"/>
<path d="M35.2175 0H37.8519L39.9316 0.138651L42.15 0.415954L44.6458 0.901235L46.5869 1.38651L49.0826 2.21842L50.8158 2.91168L52.6182 3.74359L54.2127 4.5755L55.9459 5.61538L57.6097 6.7246L58.9269 7.69516L59.8281 8.45774L60.5907 9.08167L61.6306 10.0522L62.3238 10.6762L63.0171 11.3694L63.5024 11.924L64.4036 12.9639L65.0969 13.7958L65.7901 14.6971L66.622 15.8756L67.3153 16.9155L68.1472 18.302L68.8405 19.5499L69.811 21.491L70.7816 23.8481L71.5442 26.1358L72.0988 28.2156L72.5147 30.226L72.792 32.1671L72.9307 33.623L73 34.8015V91.9953L72.3067 92.0646H51.0931L19.1339 91.9953L19.2032 91.4407L19.5499 89.7075L19.7578 88.113V84.9934L19.5499 83.3989L19.1339 81.3884L18.51 79.2393L18.2327 78.6847L17.4008 78.3381L16.9155 78.4074L16.2222 78.8234L15.5983 79.17L14.7664 79.378H13.5185L12.9639 79.1007L12.132 78.4767V78.2688H12.4786L13.1719 77.7835L14.1425 77.2289L14.5584 77.0902H15.3903L16.2915 77.4369L17.4701 78.0608L18.2327 78.4074L16.9848 74.5945L16.2915 72.3067V72.0988L14.3504 72.4454L13.8651 72.5147H12.4786L10.2602 72.2374L9.22032 71.9601L8.18044 71.5442L6.86325 70.8509L6.37797 70.5736L6.44729 70.9202V84.1614H18.5793L18.6486 84.2308V84.924L18.5793 84.9934H5.68471L5.61538 84.924L5.54606 74.4558V69.6724L5.61538 49.5679L6.03134 49.8452L6.37797 50.1918L6.44729 50.6078V67.5926L6.51662 70.019L6.79392 70.3656L7.69516 70.9896L8.73504 71.4748L9.84425 71.8215L11.1614 72.0988L13.1026 72.3067H13.9345L15.0437 72.1681L13.1719 71.9601L11.0228 71.6135L9.84425 71.3362L8.87369 70.9896L7.41785 70.2963L7.14055 70.1576L7.07123 69.9497L7.34853 69.6724L7.62583 69.811L7.97246 70.1576L9.08167 70.7122L10.0522 71.0589L11.3694 71.4055L11.9934 71.5442L13.0332 71.6828L13.2412 71.7521V71.6135H13.7265L13.6572 71.5442L13.1719 71.4055V71.4748H12.4093L10.1909 70.7816L9.01235 70.1576L8.04179 69.4644L7.55651 68.9791L7.20988 68.7711L7.14055 68.4245L7.20988 68.3552H7.55651L7.97246 68.8405L8.31909 69.1871L8.80437 69.603L9.77493 70.1576L11.0921 70.7816L12.4093 71.1975L12.9639 71.2669L12.2707 70.9202L10.6068 70.1576L9.63628 69.3951L9.01235 68.8405L9.151 68.4938L9.4283 68.6325L9.84425 69.1178L11.0921 70.019L12.2013 70.6429L13.5878 71.1975L14.2118 71.3362L12.6173 70.5043L11.5774 69.9497L10.4682 69.1178L9.49763 68.2859L9.151 68.0085L8.52707 67.246L8.18044 66.83L7.90313 66.622L7.97246 66.2754L8.31909 66.3447L8.52707 66.7607L9.151 67.4539L9.63628 67.9392L10.1909 68.4245L10.8148 68.9791L11.4387 69.3951L11.8547 69.7417L11.5081 69.3257L11.0228 68.9098L10.3295 68.0085L9.35897 66.3447L8.87369 65.4435V65.1662L9.22032 65.2355L9.4283 65.8595L10.0522 67.038L10.6762 67.9392L11.4387 68.9098L11.924 69.3951L12.4786 69.8803L13.5185 70.6429L14.0731 70.9202L14.1425 70.8509L13.1719 70.0883L12.4093 69.3257L11.7854 68.4245L10.9535 67.1766L10.2602 65.8595L9.7056 64.6116L9.35897 63.9183V63.641H9.7056L9.98291 64.5423L10.5375 65.8595L11.4387 67.4539L12.2707 68.6325L12.8946 69.3257L13.3799 69.8803L13.9345 70.435L14.4891 70.9202V71.0589L14.8357 71.1282L14.0038 70.227L13.6572 69.9497L12.9639 69.0484L12.4093 68.1472L11.716 66.9687L11.0228 65.7208V65.5128H11.3001L12.0627 67.038L12.8946 68.4245L13.5185 69.1871L13.7265 69.5337V69.6724H13.8651L14.3504 70.227L15.1823 71.0589L15.321 71.1282L15.1823 70.8509L14.6971 70.2963L13.7958 69.4644L13.3105 68.7018L12.8946 68.0779L12.0627 66.5527L11.4387 65.0969L10.8841 63.5717L10.9535 63.3637L11.3001 63.433L11.3694 64.057L11.7854 65.3048L12.6173 67.038L13.3105 68.2859L13.9345 69.1178L14.4198 69.6724L14.0731 69.0484L13.5878 68.2859L13.0332 67.038L12.4786 65.3742L11.9934 63.433L11.8547 63.1557L11.9934 63.0171L12.34 63.0864V63.7104L12.6866 65.1662L13.3799 67.1766L13.9345 68.2859V68.1472L13.5185 67.038L13.2412 66.3447L12.8946 65.1662L12.6866 64.3343L12.6173 63.9183H13.1026L13.0332 64.5423L13.3105 65.7208L13.9345 67.4539L14.4891 68.7018L14.6971 68.9098L14.1425 67.038L13.7265 65.1662L13.4492 63.641L13.3105 62.0465L13.1719 61.9079V61.6999L13.5878 61.6306L13.6572 63.0171L14.0731 65.5821L14.6277 67.7312L14.8357 68.2859L14.7664 67.7312L14.4198 66.2754L14.4891 65.9981L14.7664 65.9288L14.4891 64.5423L14.3504 63.2251H14.6277L14.7664 64.6809L14.9744 65.7208L15.3903 65.8595L15.529 68.0085L15.6676 68.1472V67.3846L15.529 66.4141L15.4596 64.1263L15.3903 63.5024L15.2517 63.1557L15.321 63.0864H15.7369V64.7502L15.8063 66.2754L16.0142 68.0085L16.1529 69.4644L16.2915 70.7122L16.3609 71.1975H16.4995L16.3609 69.603L16.2915 68.3552L16.2222 64.8889L16.0836 63.5717V63.0864L16.4302 63.1557V64.057L16.4995 65.0275L16.5689 68.9791L16.7768 67.3846V65.9288L16.6382 65.7208L17.0541 65.6515V63.2944L16.9155 63.2251V63.0864L17.3314 63.0171L17.4008 63.2251L17.2621 65.7901L17.6087 65.8595L17.6781 67.5233L17.8167 66.7607L17.9554 64.1956V61.6999L17.886 61.3533H18.3713L18.302 63.5024L18.0247 67.1073L17.886 67.7312V68.3552H18.0247L18.1633 67.5233L18.51 66.4834L18.8566 64.4036L18.9259 63.5717H19.2032L18.9953 65.1662L18.7873 66.3447L18.4406 67.8699L18.8566 66.7607L19.2032 64.9582L19.4112 63.3637V62.8091L19.2726 62.7398L19.3419 62.5318H19.6885L19.7578 62.6705L19.5499 64.4036L19.2726 66.1368L18.8566 67.8006L18.5793 68.4938L18.4406 68.6325L18.3713 68.9791L18.6486 68.7018L19.2726 67.3153L19.6192 66.622L20.1738 64.6809L20.4511 63.3637L20.5204 62.7398L20.7284 62.6705L20.867 62.9478L20.5897 63.9877L20.1045 65.9288L19.5499 67.5233L18.9953 68.7711L18.5793 69.3951H18.4406L18.302 69.7417L18.1633 69.9497H18.3713L18.4406 69.7417H18.5793L18.7179 69.3257L18.9259 68.9791L19.4805 67.8699L20.0351 66.6914L20.4511 65.5821L20.6591 64.8196L20.9364 64.8889V65.0969L20.5204 66.1368L20.1045 67.3153L19.4805 68.7018L18.9259 69.5337L18.5793 70.019L18.094 70.227L17.7474 70.5043L17.6781 70.6429L17.9554 70.5043L18.302 70.227H18.6486L19.5499 69.0484L20.3124 67.7312L21.0057 66.4141L21.699 64.3343L21.9069 63.433L21.9763 62.8091L22.3229 62.8784L22.0456 64.1956L21.6296 65.5128L20.9364 67.246L20.3818 68.3552L19.5499 69.5337L18.8566 70.2963L18.302 70.6429L18.0247 70.9202L18.7873 70.435L19.2726 70.1576L20.1738 69.3257L20.7977 68.4938L21.5603 67.3153L22.1842 65.9981L22.5309 64.9582L22.6695 64.265L23.0161 64.1956L23.0855 64.4729L22.8082 65.2355L22.2536 66.6914L21.699 67.8006L21.3523 68.4245L22.6695 67.1073L23.3628 66.0674L23.7787 65.2355H24.1254L24.1947 65.5821L23.6401 66.2754L22.8082 67.4539L22.0456 68.2859L21.2137 69.1178L19.4112 70.5043L18.3713 71.1975L19.4805 70.6429L20.4511 70.0883L21.283 69.4644L21.9763 68.8405L22.6695 68.1472L23.0161 67.5233L23.3628 67.6619L23.2934 68.0085L22.3229 69.0484L21.6296 69.6724L20.5897 70.3656L19.4805 70.9896L18.9953 71.2669L19.6885 71.0589L20.0351 70.7816L21.2137 70.227L22.5309 69.5337L23.2934 68.9791L24.1254 68.2165L24.68 67.5233L24.8879 67.1766L25.2346 67.3153L25.1652 67.5926L24.3333 68.3552L23.6401 69.0484L22.7388 69.7417L21.9763 70.227L20.9364 70.7816L19.9658 71.1282L20.867 70.9202L22.4615 70.2963L23.5014 69.811L24.4027 69.2564L25.0959 68.6325H25.3039L25.2346 68.9098L24.5413 69.4644L23.4321 70.1576L22.1149 70.7816L20.7977 71.2669L17.7474 71.8908H18.4406L19.9658 71.7521L21.5603 71.4055L23.1548 70.8509L24.264 70.2963L25.3732 69.5337L26.0665 68.9098L26.4131 68.2859H26.7597V68.5632L26.3438 68.9098L25.8585 69.4644L24.7493 70.2963L23.6401 70.9202L22.3922 71.4748L21.491 71.7521L19.8272 72.0294L18.7179 72.0988H17.6781L16.9155 72.0294L17.2621 73.208L18.4406 76.8822L19.4805 80.2099L19.9658 82.151L20.3124 84.2308L20.4511 86.1719L20.3818 88.321L20.1045 90.2621L19.8965 91.2327L24.1947 91.1633L24.472 88.4596L24.8186 86.2412L25.3732 83.6068L26.3438 79.7246L27.037 77.2289L28.0076 73.8319L28.5622 71.5442L28.9088 69.7417L29.1861 67.5233L29.4634 63.7797L29.6021 57.679L29.6714 55.5992L29.1168 55.5299L27.9383 55.3913V54.9753L28.2156 54.5594L28.3542 54.4207L28.9088 54.2821L29.1168 53.1728L29.5328 50.4691L29.9487 47.3495L29.0475 49.6372L28.2156 51.6477L27.453 53.3808L26.7597 55.0446L26.5518 55.5992V55.8072L27.1064 56.2925L27.245 56.8471L27.037 57.3324L26.7597 57.471L26.0665 57.1937L25.5119 56.9164L24.5413 56.5698L24.6106 56.1538L24.9573 55.7379L25.4425 55.5299H26.1358L26.8984 53.6581L27.3143 52.6876V52.5489L26.8984 52.4103L26.4824 52.2023L26.0665 51.925L26.3438 51.5784L26.7597 51.3704H27.1757L28.0769 49.7759L28.9088 48.2507L29.2555 47.6961L29.3941 47.2802L28.4929 48.3894L27.9383 49.0826L27.245 49.8452L26.6211 50.6078L25.9972 51.301L25.5812 51.8557L25.6505 52.133L25.7892 52.4796V52.8955L25.4425 53.2422L25.1652 53.1728L24.1254 52.3409L23.9174 52.133L23.9867 51.8557L24.3333 51.5784H24.9573L25.3732 51.6477L25.5119 51.3704L25.9278 50.8158L26.7597 49.9145L27.3837 49.1519L28.1462 48.2507L29.0475 47.2802L29.1168 47.1415L28.7702 47.3495L28.4236 47.6961L27.5223 48.4587L26.7597 49.0826L25.8585 49.8452L24.9573 50.5385L23.9174 51.3704L23.2934 51.8557L22.3229 52.6876L22.4615 53.0342L22.5309 53.2422V53.8661L22.3229 54.2127L21.9069 54.4207L21.5603 54.3514V54.2127L22.0456 54.0047L22.1842 53.6581L21.7683 53.9354H21.491L21.4217 54.0741L21.283 53.7274L20.9364 53.3808L20.5204 52.8955L20.9364 52.5489L21.1444 52.4103L20.7284 52.5489L20.4511 52.8262L20.2431 52.7569L20.3124 52.4103L20.7284 52.133L21.2137 52.0636L21.7683 52.2023L22.1149 52.4103L22.8082 51.7863L23.9867 50.8851L24.4027 50.5385L23.9867 49.9145L23.5014 49.2906L23.6401 48.944H24.1254L24.472 49.0826L24.7493 49.1519L25.5119 48.6667L26.6904 47.9041L27.8689 47.2108L28.0769 47.0722L27.453 47.2802L25.0959 48.2507L23.6401 48.8053L22.6695 49.2213H22.5309L22.6002 49.4986V50.0532L22.3229 50.3998L22.1842 50.4691H21.7683L21.491 50.1918V49.7759L21.9069 49.4293H22.0456V49.1519L21.6296 49.4986L21.4217 49.7066L21.0057 48.944L20.9364 48.6667L21.3523 48.4587H21.7683L22.2536 48.736L22.3922 48.944L23.0161 48.736L24.9573 47.9734L26.6211 47.2802L28.2156 46.5869L28.7702 46.3789V46.2403L26.9677 46.5176L23.6401 47.0028L20.1738 47.4188H19.8965V47.9734L19.6192 48.528L19.1339 48.8053H18.7179L18.51 48.5973L18.3713 47.6961L18.4406 47.6268H19.3419V47.2802H18.302V46.8642H19.2726L19.2032 46.7255L18.1633 46.5176V46.3096H19.0646L19.4805 46.5176L19.7578 46.8642L19.8272 47.1415L21.1444 47.0028L23.1548 46.7255L23.4321 46.6562L22.9468 46.5176V46.3096L23.5014 46.2403L23.4321 46.0323H22.9468L23.0161 45.2004L23.2934 45.2697L23.7787 45.6857L23.9174 46.0323H24.68L27.037 45.8243L28.2156 45.6857L27.5223 45.547L25.5119 45.2697L22.9468 44.8538L22.6695 44.7844L22.5309 45.1311L22.1149 45.4777H21.4217L21.3523 45.2697L21.9763 45.0617V44.9924H21.491L21.4217 44.7844L21.5603 44.2298L21.699 43.5366L22.1149 43.6059L22.5309 43.8832L22.7388 44.4378L23.6401 44.6458L26.8984 45.2004L28.2849 45.4084H28.8395L28.2156 45.1311L24.8879 43.8139L22.8082 42.9126L21.699 42.4274L20.6591 42.0114L20.4511 42.0807L20.1045 42.4274L19.7578 42.6353L19.2032 42.7047L18.7873 42.4967L18.7179 42.2194L19.3419 40.9715L19.6192 40.9022L19.8965 40.7635L20.1738 40.6942V40.5556L19.8965 40.4862L19.6885 40.5556L19.5499 40.8329L19.4112 40.9022L19.4805 40.5556L19.6192 40.1396L20.0351 40.2089L20.4511 40.4862L20.6591 40.8329V41.8034L21.075 41.8727L22.7388 42.566L24.056 43.1206L23.9867 42.982L23.6401 42.8433L23.7094 42.4967L24.1947 41.5261L23.5014 41.0408L23.2241 41.1102L23.0161 41.2488L22.3229 41.3181L21.9763 41.1102L21.8376 40.9022L22.4615 40.0703L22.8082 39.6543L23.3628 40.0009L23.0855 39.585L22.9468 39.4463V39.2384L23.2934 39.377L23.6401 39.793L23.7787 40.0703L23.7094 40.4169L23.5708 40.8329L23.9174 40.9715L25.3039 42.0114L26.4824 42.9126L27.7303 43.8139L28.7702 44.5765L29.1861 44.7844L28.9088 44.2991L28.4236 43.8139L27.8689 43.1206L27.037 42.15L26.2745 41.1795L25.6505 40.4169L24.9573 39.5157L24.1947 38.5451L23.5014 37.7825L22.9468 37.9905H22.4615L22.0456 37.7825L21.8376 37.5746V37.1586L22.3229 36.7426L22.8082 36.4653L23.5014 35.7721L23.8481 35.8414L24.1254 36.188L24.1947 36.604L24.056 37.2279L23.8481 37.5052L23.9174 37.7825L24.6106 38.5451L25.3732 39.5157L26.0665 40.4169L27.037 41.5954L27.7996 42.566L28.7009 43.6059L29.1861 44.2298L28.7702 43.3979L28.1462 42.4274L27.661 41.5954L27.1064 40.6942L26.9677 40.4169H26.3438L25.9972 40.1396L26.0665 39.8623L26.4824 39.5157L27.245 39.0304L27.3143 39.2384L27.1757 39.4463H27.3143V39.3077L27.5223 39.377L27.5916 39.6543L27.245 40.2783L27.8689 41.4568L28.7009 42.8433L29.6021 44.3685L29.3941 43.6752L28.9088 42.2887L28.2156 40.3476L27.7303 38.9611L27.5916 38.5451H27.1064L26.6904 38.3371L26.4824 37.9905L26.5518 37.7132L27.1757 37.4359L28.0076 37.1586H28.3542L28.5622 37.5746L28.4236 37.9905L28.2849 38.2678L27.9383 38.4065L28.5622 40.2783L29.0475 41.6648L29.8794 44.1605L29.7407 42.9126L29.1861 39.0997L28.8395 36.3267L28.6315 35.3561L27.8689 35.1481L27.5223 34.8708L27.3143 34.3162L27.3837 34.1083L27.8689 33.9696L29.3941 33.7616L29.8794 33.6923L30.018 33.9003V34.4549L29.8101 34.8708L29.5328 35.1481L29.1168 35.2868L29.5328 38.7531L30.226 43.8139L30.2953 44.1605L30.434 44.2298L30.642 42.0807L30.9886 39.6543L31.2659 37.8519V37.3666L30.642 36.8813L30.5033 36.6733V36.2574L30.7113 36.0494L31.5432 36.1187L32.5831 36.2574L32.7911 36.396L32.7217 36.812L32.3751 37.2279L32.0285 37.3666H31.6819L31.4739 39.169L31.1966 40.9022L30.85 43.6752V44.2298L31.6819 42.0807L32.4444 40.2089L32.9297 39.0304L33.7616 37.1586L34.1776 35.9107V35.7721L33.831 35.6334L33.4843 35.2175L33.415 34.8708L33.6923 34.3162L34.0389 34.2469L34.8708 34.6629L36.188 35.1481L36.0494 35.5641L35.7721 35.9107L35.2175 36.1187H34.4549L34.3856 36.604L33.831 37.9905L33.3457 39.169L33.7616 39.2384L34.6629 39.7236L34.5935 40.0009L34.3856 40.2089L33.623 40.3476L33.207 41.0408L32.6524 42.0114L31.6819 43.7445L31.3352 44.4378L32.1671 43.3979L33.0684 42.358L33.9003 41.3875L34.5935 40.6249L35.1481 39.9316L35.0788 39.5157L34.9402 39.169L35.0095 38.7531L35.2868 38.4758L35.6334 38.5451L36.0494 38.8917L36.3267 39.169L36.8813 39.6543L36.6733 40.0009L36.3267 40.1396H35.7721L35.4948 40.0703L34.8708 40.8329L34.0389 41.7341L33.415 42.4967L32.5831 43.4672L31.7512 44.5071L32.0978 44.2298L32.7911 43.6059L33.7616 42.8433L34.7322 42.0114L35.6334 41.3181L36.6733 40.4862L37.5052 39.8623L38.1985 39.2384L38.4065 39.0997L38.1985 38.4758V37.9905L38.4758 37.5746L38.6838 37.3666H39.0304L39.4463 37.8519L39.6543 38.1985L40.4169 38.9611L40.5556 39.0304L40.4169 39.377L39.9316 39.6543H39.2384L38.7531 39.377L38.4065 39.5157L37.6439 40.2089L36.8813 40.7635L36.3267 41.1795L36.396 41.4568L37.0199 42.358L37.0893 42.7047L36.9506 42.8433L36.3267 42.774L36.1187 42.6353L35.7028 42.7047L34.5935 43.3979L33.415 44.1605L32.6524 44.6458L32.3058 44.8538L32.9297 44.6458L34.1083 44.0912L36.188 43.2593L37.6439 42.7047L38.0598 42.4967H38.1985L38.1292 42.358V41.8034L38.3371 41.4568L38.4758 41.3181H39.0304L39.3077 41.6648L39.6543 42.8433L39.8623 42.982V43.1206L39.169 43.3286L38.4758 42.982L38.1985 42.774L37.4359 43.1206L34.9402 44.0912L32.7217 45.0617L31.8898 45.339L31.8205 45.4777L34.7322 45.0617L40.4862 44.2991L40.7635 44.2298L40.9022 43.6059L41.3875 43.0513L41.7341 42.9126H42.0807L42.2194 43.1899H41.8034L41.3875 43.5366L41.3181 43.6752L41.7341 43.3979L42.2194 43.2593L42.2887 44.1605L42.0807 44.2298H41.4568V44.3685L42.358 44.5071L42.4274 44.5765V44.9231L41.5261 44.9924L41.6648 45.1311L42.566 45.2697L42.4967 45.4777H41.6648L41.2488 45.2004L40.9715 44.8538L40.9022 44.5071L39.2384 44.7844L37.7132 44.9924L37.3666 45.0617V45.2004L37.6439 45.1311L37.7825 45.339V46.1016L37.7132 46.2403L37.3666 46.1709L37.2972 46.3096L36.9506 46.0323L36.812 45.755H32.9297L31.8898 45.8936L35.9801 46.5869L37.1586 46.7949L37.9212 46.8642L38.0598 46.9335L38.1985 46.5869L38.4758 46.3096L38.8224 46.2403L39.3077 46.3096L39.377 46.5176L39.0997 46.6562V46.7949L39.3077 46.8642L39.169 47.6268L39.0997 48.1121H38.4758L38.0598 47.6268L37.9905 47.1415L36.6733 47.0028L34.2469 46.5869L32.6524 46.3096H31.9592L32.5138 46.5869L33.831 47.0722L35.2175 47.6961L37.2279 48.528L38.9611 49.2906L40.0009 49.7066H40.2783L40.6249 49.2906L41.1795 49.0133L41.5954 49.0826L41.9421 49.2906L42.0114 49.5679H41.8034L41.3875 49.2906L41.1102 49.3599L41.8034 49.7759L41.7341 50.0532L41.4568 49.9839L41.2488 49.7759L40.8329 49.6372V49.8452L41.3181 49.9839L41.5954 50.1918L41.5261 50.5385L41.2488 50.8851L40.6249 51.0237L40.5556 50.8158V51.0237L40.6942 51.2317L41.1102 51.1624L41.3181 51.0931L41.2488 51.3704L41.1795 51.509L40.7635 51.5784L40.2783 51.301L40.0009 50.8158V50.3305L40.0703 49.9839L39.4463 49.7759L37.4359 48.944L36.6733 48.6667V48.8053L37.0893 48.8746L37.0199 49.2213L36.604 49.9145H36.3267V49.6372L36.0494 49.7759L35.9801 49.2213L35.9107 48.8746L33.2764 47.5575L32.6524 47.1415L32.1671 46.9335L33.2764 47.7654L33.9003 48.2507L35.3561 49.3599L36.1187 49.9145L36.7426 50.3998L37.1586 50.6771L37.5052 50.6078L37.7825 50.4691H38.4758L38.8917 50.8158L38.4758 51.3704L38.1292 51.7863L37.7825 52.133L37.7132 52.4796L37.2972 52.2716L37.0199 51.925L36.9506 51.3704L37.0199 50.8851L36.2574 50.3998L35.2868 49.6372L33.9696 48.6667L32.8604 47.8348L31.6125 46.9335L31.6819 47.2802L32.1671 47.7654L32.9297 48.736L33.5537 49.4293L35.0788 51.3704L36.0494 52.6182L36.604 53.3115L37.1586 53.9354L37.8519 53.7274L38.3371 53.7968L38.7531 54.0741L38.8917 54.2821V54.6287L38.5451 54.906L37.9212 55.2526L37.2279 55.9459L36.8813 55.8765L36.604 55.5992L36.5347 55.3913V54.7673L36.6733 54.4207L36.8813 54.1434L36.3267 53.4501L35.7721 52.8262L35.1481 51.9943L34.8708 51.6477V51.509L34.6629 51.4397L34.1776 50.7464L33.5537 49.9839L31.7512 47.7654L31.5432 47.6961L31.9592 48.2507L33.2764 50.4691L33.6923 51.301H34.5242V51.4397L34.7322 51.6477L34.5935 51.9943L33.623 52.5489L33.2764 52.4796L33.1377 52.0636L33.415 51.5784L33.3457 51.2317L32.9297 50.3998L32.3751 49.4986L31.6125 48.2507L31.4046 47.8348L31.1966 47.4881L31.4046 48.1814L31.8898 49.5679L32.4444 51.2317L33.0684 53.0342L33.1377 53.1035L33.7616 53.1728L34.1083 53.4501L34.1776 53.5888V54.0047L33.6923 54.2127L32.7217 54.49L32.4444 54.6287L32.2365 54.3514L32.1671 53.9354L32.5138 53.3808L32.7217 53.1728L31.5432 49.7066L30.9886 48.1121L30.9193 47.6268L30.85 48.1121L30.9886 48.6667L31.6125 53.2422L31.8898 55.5992L31.9592 55.8765V56.3618L32.7911 56.5698L33.207 56.8471L33.3457 57.1937V57.5404L33.207 57.679L32.4444 57.8177L31.1273 57.9563L31.2659 57.4017V57.1937L31.0579 57.5404V58.0256H30.7806L30.642 57.679L30.7113 57.1244L31.1966 56.5698L31.6125 56.3618L31.4739 55.3913L31.2659 53.6581L30.7806 49.9839L30.642 48.736L30.5033 49.9839L30.2953 57.471L30.1567 63.5717L30.018 65.8595L29.7407 68.7018L29.3941 70.9202L28.9088 73L26.9677 79.9326L26.2051 82.9136L25.6505 85.4093L25.1652 88.2517L24.9573 90.1235L24.8879 91.2327L38.4758 91.1633L39.0304 89.4995L39.3077 88.113L39.377 87.5584V85.2707L39.0997 83.6068L38.0598 79.378L37.7825 77.7835L37.7132 77.0902V76.0503L37.8519 75.0104L38.1985 73.6933L38.7531 72.3067L39.4463 70.9202L39.8623 70.1576V70.019L38.2678 69.8803L36.5347 69.4644L35.2868 69.0484L34.1776 68.4938L33.3457 67.9392L32.4444 67.1766L32.0285 66.83L31.4739 66.0674L30.9886 65.7208L31.1966 65.3742L31.4739 65.2355L31.7512 65.5128L31.9592 66.2061L32.3751 66.6914V66.83L32.6524 66.9687V67.1073L32.9297 67.246L33.4843 67.7312L34.6629 68.4245L35.9801 69.0484L37.0199 69.3951L38.7531 69.7417H38.9611L38.1985 69.4644L36.9506 69.0484L35.4948 68.4245L34.2469 67.7312L33.2764 66.9687L32.5831 66.3447L32.3751 66.2061L32.4444 65.8595L32.7911 65.7901L33.0684 66.3447L33.5537 66.83L34.7322 67.6619L35.9801 68.3552L37.0199 68.8405L37.5746 68.9791H37.7825L37.3666 68.6325L37.0199 68.2859L36.3267 67.7312L35.6334 67.1073L35.0095 66.4141L34.4549 65.5128V65.2355L34.8015 65.3048L35.2175 66.0674L36.0494 67.038L36.5347 67.5926L37.2972 68.2165L38.1985 68.9098L38.6144 69.1178L37.9905 68.4938L37.4359 68.0085L36.8813 67.4539L36.3267 66.9687L35.9107 66.4834L35.0788 65.3048L34.5242 64.3343L34.0389 63.3637L33.9003 63.0171L34.1776 62.8784L34.3162 63.0171L34.5242 63.7104L35.1481 64.8196L35.9107 65.9288L36.4653 66.622L36.2574 66.1368L35.9107 65.4435L35.5641 64.4036L35.2175 63.0864L35.0095 62.2545L35.2868 62.1159L35.4255 62.2545L35.4948 63.2251L35.9107 64.6809L36.6733 66.2754L37.5052 67.5926L37.9212 68.0779L38.6144 68.6325L38.9611 68.8405L38.6838 68.4938L38.3371 68.1472L37.7825 67.5233L37.2279 66.5527L36.396 64.057L36.0494 62.3932L35.9801 61.2146L35.7721 61.1453V60.9373L36.1187 60.868L36.188 60.9373L36.3267 62.4625L36.7426 64.3343L37.2972 65.9288L37.8519 67.1073L38.3371 67.8699L38.6144 68.1472L38.5451 67.8699L38.1292 67.246L37.7825 66.4141L37.2972 64.8196L36.9506 63.2944L36.812 63.0171H37.1586L37.2279 63.0864L37.4359 64.265L37.8519 65.8595L38.1292 66.3447L38.1985 66.83H38.3371L38.0598 65.9288L37.6439 64.3343L37.3666 62.6705L37.2972 61.0066L37.6439 61.076L37.5746 61.3533V62.0465L37.8519 64.057L38.1985 65.5128L38.4758 66.3447L38.6144 66.4834V67.038L38.4758 67.246L38.8224 67.038L38.7531 66.622L38.6838 66.5527L38.4065 64.9582L38.2678 63.0171V62.1852L38.4065 62.3932L38.7531 65.5128L38.8224 65.7901V65.0969L38.5451 63.0171L38.4065 62.1159L38.3371 61.2146L38.2678 61.0066L38.5451 60.9373L38.6838 61.2146V61.9772L39.0997 61.9079L39.169 62.1852L39.0997 62.3238L38.7531 62.2545L39.0304 64.7502L39.2384 66.4141L39.377 66.2754L39.4463 65.9288V63.433L39.5157 62.2545L39.6543 61.2146L39.7236 60.0361H40.0703L40.1396 60.3134L40.0009 60.3827L39.7236 62.8091V65.5128H39.8623V64.3343L40.2089 64.1956L40.2783 62.6705L40.4169 61.6999H40.6942L40.4862 62.9478L40.4169 64.1263L40.7635 64.1956L40.6942 64.6809L40.4862 65.5128V66.1368L40.5556 66.2061L40.9022 64.265L41.1102 63.1557L41.3181 61.8386L41.5954 61.7692L41.7341 61.9772L41.5954 62.1159L41.2488 63.7797L40.8329 66.0674L40.6249 67.7312L40.4862 68.1472V68.7018L40.5556 68.7711L40.7635 68.2165L40.9022 67.3846L41.1102 66.4141L41.5261 64.6116L41.9421 62.1852L42.0114 61.9772H42.2887L42.2194 62.3238L42.0114 63.2944L41.8034 64.6116L41.3875 66.2754L41.5261 66.2061L41.7341 65.5821L41.8727 64.9582L42.0807 64.4729L42.2887 64.4036L42.566 63.7104L42.774 62.8091L42.8433 62.1159H43.1206L43.1899 62.3238L42.8433 63.5717L42.6353 64.265L42.4274 64.6809L42.774 64.7502L42.566 65.4435L42.2887 66.3447L42.4967 66.2061L42.9126 65.0969L43.2593 64.1956L43.7445 62.4625L43.9525 61.4226L44.0218 60.868L44.2991 60.7987L44.3685 61.1453L44.1605 61.7692L43.6752 63.5717L43.0513 65.4435L42.4967 66.7607L42.15 67.5233L42.7047 66.6914L43.4672 65.3742L43.8832 64.5423L44.2991 63.433L44.4378 63.0864L44.6458 63.0171L44.5765 63.433L43.9525 64.9582L43.3979 66.0674L43.1899 66.5527L43.8832 65.5128L44.5071 64.1263L44.9924 62.6705L45.0617 62.2545H45.339L45.4084 62.5318L45.1311 63.1557L44.5765 64.6116L44.0218 65.7901L43.2593 67.038L42.4967 67.8699L42.2194 68.0779L42.8433 67.6619L43.5366 66.9687L44.2991 65.9981L45.0617 64.7502L45.8936 63.1557L46.1016 62.6705L46.3789 62.8091L45.8243 63.9183L45.2004 65.0969L44.7151 65.8595L44.1605 66.6914L43.0513 67.8699L42.4274 68.3552L42.0807 68.8405H42.2194L43.7445 67.3153L43.9525 67.038H44.0912L44.2298 66.7607L44.9231 65.8595L45.547 64.9582L45.755 64.6116L45.963 64.6809L45.8936 64.9582L44.9924 66.2754L44.2991 67.1766L43.8139 67.6619L43.4672 68.0779L42.6353 68.7018L42.358 69.2564H42.566L42.6353 68.9791L43.3286 68.4245L44.0218 67.8006L44.9924 66.83L45.4777 66.2754L46.2403 65.2355L46.9335 64.057L47.2802 63.433L47.4188 63.0864L47.6961 63.2251L47.1415 64.3343L46.5869 65.2355L45.6163 66.5527L44.8538 67.4539L44.2991 68.0085L43.4672 68.6325L42.8433 69.0484L42.982 69.1178L43.9525 68.6325L44.5765 68.2165L45.4084 67.4539L46.1016 66.83L46.9335 65.7901L47.6961 64.6116H47.9734L47.9041 64.9582L47.4188 65.6515L46.7255 66.622L46.1016 67.3846L45.4777 67.9392L44.9924 68.2165L45.339 68.0779L46.3789 67.4539L47.2802 66.83L47.9734 66.2061L48.32 65.7901L48.5973 65.7208L48.8053 65.8595L48.6667 66.1368L48.1121 66.5527L47.2108 67.3153L46.5176 67.8006L45.4777 68.4245L44.3685 68.9098L43.2593 69.3257L44.1605 69.603H44.7844L46.5869 69.1178L47.6961 68.5632L48.3894 68.1472L48.8746 67.7312L49.1519 67.8006L49.0826 68.1472L47.9041 68.7711L46.7949 69.3257L45.8243 69.6724L44.9231 69.9497L46.2403 69.8803L47.6961 69.5337L48.528 69.1871L48.944 68.9791L49.0133 69.1178L48.736 69.3951L47.6961 69.811L46.3096 70.1576L44.7151 70.3656H43.3979L42.15 70.227H41.3181L43.1206 70.5736L44.4378 70.7122H45.2697L47.2108 70.435L48.32 70.0883L49.4293 69.5337L50.0532 69.0484L50.3305 69.1178L50.1918 69.3951L48.8746 70.1576L47.4188 70.6429L46.1016 70.9202L45.4777 70.9896H44.6458L42.982 70.7816L41.5954 70.5043L40.8329 70.2963H40.5556L39.6543 71.9601L38.9611 73.4853L38.5451 74.8025L38.4065 75.6344V77.5062L38.6838 79.17L39.0997 80.9031L39.6543 82.9829L40.4169 81.3191L40.8329 80.7645L41.5261 80.2792L42.8433 79.5859L43.3979 79.1007L44.1605 78.0608H44.3685V79.7939L44.0912 80.7645L43.6059 81.5964L42.9126 82.2896L42.15 82.7056L41.4568 82.8443H40.1396L39.793 83.1216V83.6762L40.0009 84.9934L40.0703 85.8946V87.0038L39.9316 88.1823L39.6543 89.5689L39.2384 90.9554L39.169 91.1633L72.2374 91.2327L72.1681 35.8414L72.0294 33.2764L71.7521 31.0579L71.3362 28.8395L70.9202 27.1064L70.2963 25.0959L69.811 23.7094L69.0484 21.9069L68.2165 20.1738L67.3846 18.6486L66.4834 17.1928L65.9288 16.3609L65.0275 15.113L64.265 14.1425L63.5024 13.2412L62.2545 11.8547L60.66 10.2602L60.1054 9.77493L59.1349 8.94302L58.1643 8.18044L56.8471 7.20988L55.4606 6.30864L53.9354 5.40741L52.5489 4.64482L50.6078 3.74359L48.6667 2.98101L46.5869 2.28775L43.8139 1.59449L41.3875 1.17854L39.5157 0.97056L38.5451 0.901235H34.3162L32.1671 1.10921L29.8794 1.45584L27.7303 1.94112L25.7892 2.49573L24.3333 2.98101L22.1149 3.88224L20.1045 4.8528L18.5793 5.68471L16.9155 6.7246L15.529 7.69516L14.2811 8.66572L13.3799 9.4283L12.6173 10.0522L11.716 10.9535L11.1614 11.4387L10.1216 12.548L9.28965 13.5185L8.52707 14.4198L7.55651 15.7369L6.30864 17.6087L5.75404 18.51L5.06078 19.7578L4.22887 21.3523L3.39696 23.2934L2.91168 24.6106L2.28775 26.4824L1.80247 28.3542L1.31719 30.85L1.03989 32.8604L0.901235 35.0095L0.831909 57.1937V91.9953H0.0693257L0 91.9259V36.6733L0.0693257 34.2469L0.277303 32.0285L0.623932 29.8101L1.03989 27.9383L1.66382 25.6505L2.28775 23.8481L3.11966 21.8376L3.74359 20.4511L4.50617 19.0646L4.92213 18.302L5.75404 16.9155L6.44729 15.8756L7.14055 14.905L7.83381 14.0038L8.38841 13.3105L9.28965 12.2707L10.0522 11.4387L11.924 9.56695L12.4786 9.08167L13.4492 8.24976L14.4198 7.48718L15.7369 6.51662L17.3314 5.47673L18.3713 4.8528L20.0351 3.95157L21.1444 3.39696L23.0161 2.56505L25.3732 1.73314L27.245 1.17854L29.7407 0.623932L31.8205 0.277303L33.9003 0.0693257L35.2175 0Z" fill="#923F48"/>
<path d="M35.2174 7.07104H35.8413V7.83363L35.772 7.90295L33.2763 8.11093L31.4045 8.38823L29.5327 8.80419L27.7995 9.28947L26.205 9.84407L24.5412 10.5373L22.8081 11.3692L21.1442 12.3398L19.6884 13.3104L18.9258 13.865L18.0246 14.5582L17.1234 15.3208L16.2221 16.1527L15.3902 16.9153L14.5583 17.8165L13.6571 18.8564L12.8945 19.827L11.2307 22.1841L10.5374 23.3626L9.98281 24.4718L9.35887 25.789L8.59629 27.6608L7.97236 29.6019L7.48708 31.4737L7.14045 33.3455L6.86315 35.7719L6.79382 37.713V42.5658L6.65517 42.6351L5.96191 42.1499V36.2572L6.16989 34.1081L6.51652 31.959L7.0018 29.9485L7.48708 28.2847L8.24966 26.2743L9.08157 24.3332L9.98281 22.7387L11.0227 21.1442L11.7159 20.035L12.5479 18.9257L13.4491 17.8165L15.3902 15.7368L15.9448 15.2515L16.8461 14.4196L17.8166 13.657L19.0645 12.6864L20.451 11.7852L21.4909 11.1613L22.7387 10.468L24.6105 9.56677L26.5517 8.80419L28.4928 8.18026L30.4339 7.69498L32.375 7.34835L34.2468 7.14037L35.2174 7.07104Z" fill="#923F48"/>
<path d="M67.0377 80.0017H67.731L67.8003 80.071V84.8545L67.5923 84.9932H41.3872L41.3179 84.2306H66.9684V80.071L67.0377 80.0017Z" fill="#923F48"/>
<path d="M39.5848 5.61523H40.2087L40.694 5.89254L40.902 6.30849V7.76433L40.7633 8.59624H40.486L40.3474 8.24961L39.8621 8.52692H39.3075L38.8916 8.31894L38.6142 7.97231L38.5449 7.83366V7.27905L38.8222 6.93242L40.2781 6.30849L40.2087 5.82321H39.6541L39.0995 6.30849L38.8222 6.72445L38.7529 6.51647L39.1689 5.89254L39.5848 5.61523Z" fill="#923F48"/>
<path d="M61.9075 19.4805H62.5314L62.9474 19.7578L63.294 20.451L63.2247 20.7977L62.9474 21.2136L61.9075 21.9762L61.4222 22.3228H61.1449L61.0756 21.9069L61.1449 21.7682L60.8676 21.6989L60.4516 21.3523L60.313 21.075V20.3817L60.5903 19.9657L61.1449 19.7578L62.8087 20.5897H62.9474L62.8087 19.8964L62.4621 19.6884H61.4915L61.5609 19.5498L61.9075 19.4805Z" fill="#923F48"/>
<path d="M54.0046 10.8147L54.282 10.884L54.2126 11.3L54.8366 11.3693L55.2525 11.5773L55.5298 12.0626L55.5991 12.5478L55.8764 12.4785H56.3617L56.7777 12.6865L57.055 13.1024L57.1243 13.6571L56.847 14.2117L56.2231 15.0436L55.8071 15.5288L55.5298 15.4595L55.5991 15.1129L56.5004 13.865L56.5697 13.7264V13.3104L56.431 13.0331L56.0151 12.8251L55.4605 12.8945L54.9059 13.5877L54.3513 14.3503L54.2126 14.4196L54.0046 14.281L54.074 13.9344L54.9752 12.6865L55.0445 12.2012L54.8366 11.8546L54.1433 11.508L53.45 12.3399L52.8261 13.1718L52.5488 13.2411L52.4102 12.9638L53.3114 11.7159L54.0046 10.8147Z" fill="#923F48"/>
<path d="M63.572 21.9067L64.0573 21.9761L64.4039 22.3227L64.6812 22.808L64.8198 23.5012L64.9585 23.7785L64.2652 24.1252L64.0573 24.0558L64.4732 23.6399V23.016L64.2652 22.392L63.6413 22.3227L63.5027 22.5307L63.6413 23.5706V24.2638L63.364 24.6104L63.0867 24.7491L62.6014 24.6798L62.1161 24.2638L61.8388 23.5706L61.7002 23.0853L61.6309 22.8773L62.3934 22.5307L62.5321 22.6L62.1161 23.2239L62.1855 23.9172L62.4628 24.2638L62.948 24.3331H63.0867V23.4319L63.0174 23.0853V22.392L63.2947 22.0454L63.572 21.9067Z" fill="#923F48"/>
<path d="M51.2318 9.42822H51.8557L52.341 9.6362L52.6183 9.98283L52.7569 10.3295V11.0227L52.4796 11.6466L52.133 11.9933L51.5784 12.2706H50.9545L50.5385 11.9933L50.1919 11.5773L50.0532 11.1614L50.1225 10.5374L50.3999 9.98283L50.8851 9.56687L51.2318 9.42822ZM51.5784 9.6362L51.0931 9.9135L50.6772 10.3988L50.4692 10.8841V11.5773L50.7465 11.9933L50.8851 12.0626H51.3704L51.925 11.6466L52.341 10.9534L52.4103 10.7454V10.1215L52.2023 9.77485L51.925 9.6362H51.5784Z" fill="#923F48"/>
<path d="M43.8831 6.37793H44.5764L44.9923 6.65523L45.2697 7.07119L45.4083 7.48714V8.04175L45.339 8.11107L44.7844 8.04175L43.8138 7.83377L43.7445 7.69512H44.4377L44.923 7.83377V7.34849L44.715 6.86321L44.5764 6.65523L44.1604 6.58591L43.8138 6.79388L43.4672 7.20984L43.3285 7.55647V8.52703L43.6058 8.94298L43.8138 9.08163L44.2298 9.01231L44.715 8.66568H44.9923V8.94298L44.2991 9.28961H43.7445L43.1899 9.01231L42.8433 8.4577L42.7739 8.1804V7.62579L43.0512 7.00186L43.3979 6.58591L43.8831 6.37793Z" fill="#923F48"/>
<path d="M59.0657 15.8755H59.759L60.1749 16.0835L60.5216 16.4994L60.5909 16.7074V17.4007L60.3829 17.8859L60.1749 18.1632L59.8976 18.0246L59.4124 17.47L58.9964 16.9847L59.2044 16.9154L59.8283 17.6086H60.0363L60.2443 17.1927V16.4994L60.0363 16.2914L59.8976 16.2221H59.4124L58.7191 16.5687L58.3032 17.054L58.1645 17.47L58.2338 18.0246L58.5111 18.2326L59.343 18.3019L59.4817 18.5099L59.2737 18.6485L58.5111 18.5099L57.9565 18.0246L57.8179 17.5393L57.8872 16.9847L58.1645 16.4301L58.6498 16.0141L59.0657 15.8755Z" fill="#923F48"/>
<path d="M48.597 8.04175H49.2209L49.7062 8.31905L49.9835 8.73501L50.0528 9.35894L49.7755 9.28961L49.5676 8.59635L49.1516 8.24973L48.805 8.31905L48.2504 8.73501L47.9731 9.28961V10.1215L48.181 10.4681L48.4583 10.6068H49.0129L49.4982 10.5375L49.4289 10.7455L48.9436 10.8841H48.3197L47.9037 10.6761L47.6264 10.3295L47.4185 9.84422L47.4878 9.15096L47.7651 8.59635L48.2504 8.1804L48.597 8.04175Z" fill="#923F48"/>
<path d="M54.7674 49.5676H54.9754L54.8367 49.8449L54.5594 50.2609L54.4901 50.6075L54.7674 50.6768V50.8155L55.0447 50.9541L55.322 51.0235L55.53 50.9541L55.5993 50.5382L55.738 50.6075L55.8073 50.9541L56.0846 51.0235L55.9459 51.3008L55.8073 51.4394L56.2926 51.3701L56.3619 51.0928L56.2926 50.8848L56.0846 50.8155L56.0153 50.5382L56.3619 50.8155L56.5699 51.1621L56.4312 51.5087L56.0846 51.7861H55.5993L54.906 51.5087L54.7674 51.8554L54.0048 52.7566L53.7275 53.1032L53.5195 53.1726L53.6582 52.8259L54.4208 51.8554L54.6981 51.5087L54.6287 51.1621L54.3514 50.6075L54.4208 50.1222L54.6287 49.7063L54.7674 49.5676Z" fill="#923F48"/>
<path d="M37.7133 4.78345L38.0599 4.85277L38.2679 4.99142V5.61536L37.9213 5.75401V6.93255L37.8519 7.90311L37.644 8.24973L37.3667 8.38839H37.0894V8.24973L37.2973 8.11108L37.3667 7.90311L37.436 5.82333L37.228 5.75401V5.54603L37.3667 5.4767L37.5746 4.9221L37.7133 4.78345Z" fill="#923F48"/>
<path d="M46.3094 53.658L46.656 53.8659L47.0026 54.2126L47.4186 54.0046L47.6266 53.8659V54.1432L47.4879 54.2126L47.5572 54.4205L47.6266 54.2126H47.9732L47.6959 54.6285V54.7672L48.2505 54.6285V54.3512H48.3891L48.3198 54.6978L47.9732 54.9751L47.8345 55.0445H47.3493L46.7947 54.6978L46.5174 54.8365L45.4775 55.7377L45.1308 56.015L44.9922 55.9457L45.4775 55.3911L46.448 54.4899L46.3094 54.0739V53.658Z" fill="#923F48"/>
<path d="M42.081 5.19946H42.4276L42.4969 5.40744L41.9423 8.8044L41.665 8.87373L41.5264 8.8044L41.5957 7.83384L42.0116 5.26879L42.081 5.19946Z" fill="#923F48"/>
<path d="M54.4899 43.1206H54.5592L54.8365 44.0218V44.1605L55.1138 44.2991L55.5991 44.5071L55.3218 44.7844L55.1138 44.8537L55.5991 44.9231L55.9457 44.7151L55.8764 44.9924L55.5298 45.2004L55.0445 45.1311L54.5592 44.7151L54.4206 44.5071V44.2991L52.5488 44.7844H52.2021L52.4101 44.5764L53.866 44.1605L54.2126 44.0912L54.2819 43.3979L54.4899 43.1206Z" fill="#923F48"/>
<path d="M62.255 17.678L62.5323 17.7473V18.0246L61.2151 18.9258L60.0365 19.6884L59.7592 19.8964H59.4819L59.4126 19.5498L60.0365 19.1338L62.255 17.678Z" fill="#923F48"/>
<path d="M67.3153 27.7302H67.5926L67.4539 28.0075L64.6809 28.8394L63.5024 29.1861H63.0864V28.9781L66.2754 28.0075L67.3153 27.7302Z" fill="#923F48"/>
<path d="M46.8642 53.0339L47.2108 53.2419L47.4881 53.5885L47.2108 53.6579L46.9335 53.9352L46.7256 53.7272H46.5869L46.6562 53.3806H46.8642V53.0339Z" fill="#923F48"/>
<path d="M54.6982 43.1897H55.3915L55.5302 43.3977V43.675L55.1835 43.6057L55.0449 43.467L54.7676 43.3283L54.6982 43.1897Z" fill="#923F48"/>
<path d="M46.7255 52.6875H46.9335L46.7949 53.0341L46.6562 53.1035L46.4482 53.5887H46.3789V53.1728L46.6562 52.7568L46.7255 52.6875Z" fill="#923F48"/>
<path d="M55.0449 42.6353L55.4608 42.7046V42.8432L54.8369 42.9819L54.5596 43.1205L54.6982 42.8432L55.0449 42.6353Z" fill="#923F48"/>
<path d="M55.1143 43.9524H55.5995L55.8075 44.2297V44.4377H55.6689V44.2297L55.1836 44.091L55.1143 43.9524Z" fill="#923F48"/>
</svg>
