<svg width="195" height="77" viewBox="0 0 195 77" fill="none" xmlns="http://www.w3.org/2000/svg">
<path d="M167.122 7H169.494L171.422 7.44318L173.498 8.47727L174.981 9.80682L175.871 10.8409L176.612 12.1705L177.057 12.7614L177.798 11.2841L178.985 9.80682L180.319 8.625L182.692 7.44318L184.323 7H186.992L188.772 7.44318L191.144 8.625L192.776 10.1023L194.11 12.1705L194.703 13.7955L194.852 14.6818L195 32.8523L194.852 33H190.996L190.848 32.4091V16.1591L190.551 14.5341L189.662 13.2045L188.624 12.3182L186.844 11.4318L185.658 11.1364H182.989L180.913 11.7273L179.43 12.7614L178.243 14.3864L177.65 15.5682L177.502 33H173.498L173.35 15.2727L172.757 13.7955L172.015 12.9091L170.532 11.875L168.901 11.2841L168.16 11.1364H165.49L163.711 11.5795L162.228 12.4659L161.19 13.3523L160.3 14.9773L160.152 17.9318V32.8523L160.004 33H156.148L156 32.8523V10.3977L156.148 7.44318H160.004L160.152 7.73864V10.9886L160.3 12.7614L160.894 11.2841L161.487 10.3977L162.525 9.21591L164.008 8.18182L165.787 7.29545L167.122 7Z" fill="#923F48"/>
<path d="M52.3793 51H55.1103L58.4483 51.5714L60.269 52.2857L61.1793 53L61.7862 54.1429V55.5714L61.1793 56.8571L60.269 57.8571L58.1448 59.1429L50.2552 62.2857L48.2828 63.4286L46.7655 64.8571L46.0069 66.4286L45.8552 67V68.2857L46.3103 69.7143L47.3724 71.1429L48.7379 72L50.7103 72.5714H52.6828L54.2 72L55.5655 71L57.5379 69.1429L59.0552 67.2857L60.7241 64.8571L62.0897 62.7143L62.8483 61.4286H63V76.1429L62.8483 76.2857H58.9035L58.7517 70L57.3862 72L56.0207 73.7143L54.6552 75.1429L52.9862 76.1429L51.6207 76.7143L50.2552 77H47.9793L46.1586 76.4286L44.7931 75.7143L43.2759 74.4286L42.2138 73.1429L41.3034 71.1429L41 69.5714V68.2857L41.3034 67L42.0621 65.7143L42.669 65L44.9448 63.4286L48.2828 61.8571L52.0759 60.2857L54.2 59L55.1103 58.2857H55.4138L55.7172 57.7143L56.4759 56.5714L56.7793 55.7143L56.931 54.2857L56.4759 53.2857L55.2621 52.5714L54.3517 52.4286H52.8345L50.7103 52.8571L49.1931 53.4286L47.8276 54.4286L46.7655 55.5714L45.5517 57.5714L44.9448 59.5714L44.7931 61L44.4897 61.2857H43.5793L43.2759 61.1429L43.4276 59.2857L43.8828 57.5714L45.0966 55.2857L46.4621 53.7143L48.131 52.4286L50.2552 51.4286L52.3793 51Z" fill="#923F48"/>
<path d="M34.5862 7L37.0483 7.14754L39.8 7.7377L41.2483 8.32787L42.4069 9.36066L42.8414 10.3934V11.5738L42.4069 12.9016L41.2483 14.2295L39.2207 15.5574L34.2966 17.623L31.1103 19.0984L29.6621 20.1311L28.6483 21.1639L27.7793 22.9344L27.6345 23.5246V25L28.2138 26.623L28.7931 27.5082L29.9517 28.541L31.2552 29.1311L33.2828 29.4262L34.731 29.1311L36.0345 28.3934L37.9172 26.7705L39.5103 24.8525L41.2483 22.3443L43.131 19.0984L43.8552 17.7705H44V32.9672L43.8552 33.1148H40.0897L39.9448 26.7705L38.931 28.2459L37.6276 30.1639L36.0345 31.9344L34.731 32.8197L33.2828 33.5574L31.2552 34L29.5172 33.8525L27.7793 33.2623L26.331 32.3771L24.8828 31.0492L23.869 29.4262L23.1448 27.3607L23 26.4754V24.7049L23.4345 23.2295L24.3034 21.9016L25.7517 20.5738L27.6345 19.3934L31.6897 17.4754L34.4414 16.1475L36.1793 14.8197L36.9034 14.082L37.4828 13.3443L38.0621 11.8689L38.2069 10.541L37.7724 9.21311L37.1931 8.91803L36.3241 8.62295H33.5724L31.9793 9.06557L30.2414 9.95082L28.9379 11.1311L27.6345 13.1967L26.9103 15.1148L26.4759 17.623H25.1724L25.3172 15.4098L26.0414 13.0492L26.9103 11.4262L28.2138 9.95082L29.2276 8.91803L31.2552 7.7377L32.5586 7.29508L34.5862 7Z" fill="#923F48"/>
<path d="M76.1 51H79.85L81.65 51.4358L84.05 52.5978L86 53.4693L86.9 53.6145L87.35 53.0335L87.8 51.581L87.95 51.4358H88.7L89 51.7263V60.8771L88.4 61.4581L87.8 61.3128L87.5 59.8603L87.05 57.9721L86 56.0838L84.8 54.7765L82.7 53.4693L80.9 52.743L79.25 52.4525H77.45L75.05 52.8883L73.55 53.6145L72.5 54.7765L71.9 56.3743V57.6816L72.5 58.8436L73.85 59.7151L75.5 60.4413L81.2 62.1844L84.35 63.3464L86.6 64.5084L87.8 65.6704L88.55 67.1229L89 69.0112V71.0447L88.4 72.7877L87.5 73.9497L86.3 74.9665L84.5 75.838L82.1 76.5642L78.95 77L76.85 76.8547L74.45 76.1285L71.6 74.676L70.4 74.095H69.8L69.35 76.2737L69.05 76.5642H68.3L68 75.5475V69.1564L68.15 66.8324L68.45 66.5419L69.2 66.6872L70.1 69.3017L71.15 71.0447L72.35 72.4972L73.7 73.8045L75.8 74.9665L77.15 75.4022L78.2 75.5475H79.7L82.1 74.9665L83.45 74.2402L84.35 73.2235L84.95 71.9162L85.1 71.3352V69.8827L84.5 68.7207L82.85 67.5587L80.45 66.5419L76.4 65.2346L72.2 64.0726L70.85 63.3464L69.8 62.4749L68.9 61.0223L68.3 59.4246L68.15 58.6983V56.0838L68.75 54.486L70.1 53.0335L71.75 52.0168L74.15 51.2905L76.1 51Z" fill="#923F48"/>
<path d="M138.062 7H140.794L143.094 7.58427L145.394 8.75281L147.262 10.3596L148.7 12.1124L149.562 13.573L150.569 16.3483L150.856 17.809L151 19.2697L150.856 22.3371L150.281 24.6742L149.562 26.427L148.556 28.1798L146.975 29.9326L145.538 31.2472L144.1 32.1236L141.944 32.8539L141.225 33H137.631L135.906 32.5618L133.606 31.3933L132.312 30.3708L130.875 28.9101L129.581 26.8652L128.575 24.5281L128 21.8989V18.2472L128.431 16.0562L129.294 13.7191L130.587 11.6742L131.881 10.2135L132.887 9.19101L134.469 8.16854L136.194 7.4382L138.062 7ZM138.925 8.31461L137.631 8.60674L136.05 9.48315L134.612 11.0899L133.463 13.1348L132.6 15.4719L132.169 17.809L132.025 20.4382L132.312 23.3596L133.031 25.9888L134.181 28.3258L135.188 29.6404L136.337 30.809L138.062 31.6854L138.781 31.8315H140.075L141.944 31.2472L143.237 30.2247L144.387 28.9101L145.538 26.8652L146.4 24.236L146.688 22.9213L146.831 21.4607V18.6854L146.544 16.4944L145.969 14.4494L144.962 12.1124L143.669 10.3596L142.375 9.19101L140.938 8.46067L140.075 8.31461H138.925Z" fill="#923F48"/>
<path d="M70.0625 7H72.7937L74.8062 7.4382L76.3875 8.16854L77.825 9.04494L79.55 10.6517L80.8438 12.2584L82.1375 14.7416L82.7125 16.7865L83 18.8315V20L81.275 20.1461H69.2L68.1937 19.8539V18.8315L68.3375 18.6854H78.8312L78.1125 15.1798L77.25 12.9888L76.3875 11.382L75.0938 9.92135L73.9437 9.04494L72.9375 8.60674L72.075 8.46067H70.925L69.3438 8.89888L68.05 9.77528L67.6187 9.92135L67.3312 10.5056L66.325 11.8202L65.175 14.1573L64.4562 16.9326L64.3125 18.2472V21.8989L64.7438 24.382L65.4625 26.573L66.6125 28.764L68.1937 30.5169L69.6312 31.3933L70.7812 31.6854H72.075L73.9437 31.1011L75.2375 30.0787L76.3875 28.764L77.5375 26.573L77.825 25.8427H81.7062L81.4187 26.7191L80.125 28.764L78.8312 30.2247L77.1062 31.5393L74.95 32.5618L73.225 33H69.775L67.6187 32.4157L65.6062 31.3933L63.7375 29.7865L62.5875 28.4719L61.4375 26.573L60.575 24.382L60.1437 22.6292L60 21.6067V18.5393L60.4312 16.2022L61.2937 13.8652L62.1562 12.2584L63.45 10.6517L64.6 9.48315L66.4688 8.16854L68.1937 7.4382L70.0625 7Z" fill="#923F48"/>
<path d="M4 0H26V1.47321L23.7397 1.62054L9.57534 1.76786L8.9726 2.35714L8.67123 3.09375L8.52055 4.125L8.36986 13.4062H19.6712L19.8219 13.5536V15.0268L8.52055 15.1741L8.36986 33H4V0Z" fill="#923F48"/>
<path d="M112.199 7H114.967L117.298 7.58101L119.629 8.74302L121.232 10.0503L122.252 11.067L123.563 13.1006L124 13.9721V14.2626H120.212L119.775 13.5363L118.755 11.648L117.735 10.3408L116.57 9.32402L115.113 8.59777L114.238 8.45251H113.073L111.47 8.88827L110.159 9.75978L109.43 10.486L108.265 12.0838L107.245 14.2626L106.662 16.4413L106.371 18.1844V21.5251L106.808 23.8492L107.682 26.0279L108.993 27.9162L110.305 29.2235L111.47 29.9497L113.219 30.5307H115.987L117.881 29.9497L119.775 28.933L120.649 28.2067L121.96 26.3184L122.252 25.7374H124L123.709 26.6089L122.689 28.352L121.086 30.095L119.338 31.4022L117.152 32.419L115.55 32.8547L113.219 33L111.033 32.7095L108.993 31.9832L106.954 30.676L105.497 29.3687L104.185 27.6257L103.02 25.4469L102.291 23.1229L102 21.2346V18.7654L102.291 16.8771L103.02 14.4078L104.04 12.5196L105.497 10.6313L106.517 9.61453L108.556 8.16201L110.742 7.2905L112.199 7Z" fill="#923F48"/>
<path d="M32 44H36V76.852L35.8519 77H32V44Z" fill="#923F48"/>
<path d="M51 0H54V32.852L53.8889 33H51V0Z" fill="#923F48"/>
<path d="M13.9355 51H16.9839L19.3065 51.5778L21.4839 52.7333L23.0806 54.0333L24.3871 55.4778L25.5484 57.3556L26.2742 58.9444L26.8548 61.2556L27 61.9778V63.8556L26.2742 64H22.7903L20.7581 63.4222L19.7419 62.9889L18.2903 62.1222L16.9839 61.6889L15.6774 61.8333L13.9355 62.5556L12.629 63.1333L11.1774 63.7111L10.0161 64H7.54839L5.37097 63.2778L3.33871 62.1222L0.870968 60.3889L0 59.6667L0.580645 58.6556L1.45161 58.9444L3.62903 60.5333L5.66129 61.6889L7.40323 62.4111L9.14516 62.5556L10.7419 62.2667L14.6613 60.5333L16.6935 60.1L18.7258 60.6778L22.0645 62.2667L22.7903 62.5556L22.2097 59.3778L21.3387 57.0667L20.4677 55.4778L19.4516 54.1778L18.1452 53.1667L16.8387 52.5889L16.1129 52.4444H14.8065L12.9194 53.0222L11.6129 54.0333L10.5968 55.1889L9.58064 56.9222L8.70968 59.2333L8.12903 61.9778L7.25806 61.8333L5.66129 61.1111L4.5 60.3889L4.35484 59.6667L5.37097 57.3556L6.24194 55.9111L7.83871 54.0333L9.43548 52.7333L10.8871 51.8667L13.0645 51.1444L13.9355 51Z" fill="#923F48"/>
<path d="M4 63L6.89474 64.1789L8.34211 64.6211L8.77632 67.8632L9.5 70.2211L10.6579 72.4316L11.8158 73.9053L12.9737 74.7895L14.4211 75.3789L16.3026 75.5263L18.0395 74.9368L19.6316 73.7579L20.7895 72.1368L22.0921 69.6316H26L25.7105 70.3684L24.8421 71.8421L23.5395 73.4632L21.9474 74.9368L20.2105 75.9684L18.0395 76.7053L16.3026 77L13.8421 76.8526L12.1053 76.4105L9.78947 75.2316L8.48684 74.2L7.03947 72.7263L5.59211 70.5158L4.72368 68.3053L4.14474 65.8L4 63Z" fill="#923F48"/>
<path d="M138.714 51L139.857 51.1724L140.571 51.8621L141 52.7241V54.4483L140.143 55.6552L139.429 56H138.286L137.143 54.7931L137 54.2759V52.7241L137.571 51.6897L138.143 51.1724L138.714 51Z" fill="#F4CCC5"/>
<path d="M160.154 51H163.077L163.846 51.5882L164 51.8824V53.3529L163.692 53.9412L163.077 54.5294V54.8235H163.385L164 55.7059V56L163.385 55.7059L162.308 54.3824L160.615 54.2353V55.8529H160V51.1471L160.154 51Z" fill="#923F48"/>
<path d="M170.424 51L171.03 51.5714L173 55.5714V56L172.394 55.7143L171.939 54.8571H169.061L168.303 56H168L168.455 54.7143L170.121 51.2857L170.424 51Z" fill="#923F48"/>
<path d="M192.344 51L192.812 51.1429L195 55.4286L194.844 56L193.906 54.8571H191.094L190.312 56H190L190.156 55.2857L191.406 52.5714L192.344 51Z" fill="#923F48"/>
<path d="M138.222 51L139.472 51.1429L140.444 51.8571L141 53V54.1429L140.306 55.2857L139.472 55.8571L139.056 56H137.667L136.833 55.4286L136.278 54.7143L136 54.1429V53L136.556 51.8571L137.528 51.1429L138.222 51ZM138.222 51.4286L137.25 51.8571L136.694 52.5714L136.556 52.8571V54.1429L136.972 54.8571L137.806 55.5714H138.917L139.75 55.1429L140.444 54.2857V52.8571L139.75 51.8571L138.778 51.4286H138.222Z" fill="#923F48"/>
<path d="M109.421 51L110.526 51.1667L111 51.8333V53.3333L110.526 53.8333L109.737 54H108.158L108 53.8333V51.3333L108.158 51.1667L109.421 51Z" fill="#F4CCC5"/>
<path d="M178 52H179.684L180 52.3529V53.6471L179.684 53.8824L178.316 54L178 53.8824V52Z" fill="#F4CCC5"/>
<path d="M161 52H163.526L164 52.5V53.625L163.526 54H161V52Z" fill="#F4CCC5"/>
<path d="M177 51H180.04L181 51.7353V53.6471L180.04 54.2353H177.48V56H177V51ZM177.48 51.4412V53.7941L178.76 53.9412L180.36 53.6471L180.52 53.5V51.8824L180.04 51.4412H177.48Z" fill="#923F48"/>
<path d="M108.115 51H110.423L111 51.7576V53.5758L110.538 54.1818L109.038 54.4848H108.577L108.462 56L108 55.8485L108.115 51ZM109.5 51.303L108.577 51.4545L108.462 51.6061V53.8788L108.577 54.0303H109.731L110.538 53.7273L110.654 53.4242V52.0606L110.308 51.4545L109.5 51.303Z" fill="#923F48"/>
<path d="M116.167 51H118.5L118.667 51.5882L117.167 51.4412L116.167 51.7353L115.833 52.3235L116.667 52.9118L118.667 53.6471L119 54.0882V55.2647L118.167 55.8529L117.667 56H116.5L115.333 55.5588L115 54.9706L115.667 55.1176L116.667 55.4118L118 55.2647L118.333 54.8235V54.0882L116.833 53.6471L115.333 52.9118L115.167 51.8824L115.833 51.1471L116.167 51Z" fill="#923F48"/>
<path d="M153 51H155.875V51.2941L153.5 51.4412L153.375 53.2059H155.75V53.5L154.625 53.6471H153.375L153.5 55.4118L155.875 55.5588L156 55.8529L153.125 56L153 55.8529V51Z" fill="#923F48"/>
<path d="M130 51L131.333 51.1429L132 51.7143V52L130.8 51.5714L129.6 51.7143L128.933 52.2857L128.667 52.8571V54.2857L129.2 55.1429L129.867 55.4286H130.8L132 55L131.733 55.5714L131.333 55.8571L130.667 56H129.733L128.933 55.5714L128.267 54.7143L128 54V53L128.533 51.8571L129.467 51.1429L130 51Z" fill="#923F48"/>
<path d="M191.875 52L192.375 52.5L193 54.5V54.8333L192.125 55H191L191.125 54.1667L191.625 52.6667L191.875 52Z" fill="#F4CCC5"/>
<path d="M170.875 52L171.25 52.4737L171.875 54.5263L172 54.8421L170 55L170.125 54.0526L170.875 52Z" fill="#F4CCC5"/>
<path d="M145 51H149V51.2941L147.37 51.5882L147.222 56H146.778L146.63 51.4412L145 51.2941V51Z" fill="#923F48"/>
<path d="M185 51H186V56H185V51Z" fill="#923F48"/>
<path d="M123 51L124 51.1471V55.8529L123.5 56L123 55.8529V51Z" fill="#923F48"/>
</svg>
