<svg width="102" height="108" viewBox="0 0 102 108" fill="none" xmlns="http://www.w3.org/2000/svg">
<g id="Group 198">
<path id="Vector" d="M53.4976 0L53.9026 0.0812506L54.1456 0.487504V1.54376L53.8216 2.19377L53.1736 2.76252L52.6066 3.00627H52.3636L52.6066 4.71254L52.8496 6.33755L53.0926 8.85632L53.4166 11.2938L53.6596 13.0001L54.3885 17.6314L54.6315 19.4189L54.8745 19.7439L55.1985 17.3876L55.4415 15.2751L55.9275 11.7813L56.1705 10.0751L56.3325 9.50632L56.6565 6.9063L55.6845 6.33755L55.2795 5.85004L55.1175 5.52504V4.95629L55.4415 4.46878L55.7655 4.38753L55.8465 4.79379L55.7655 4.95629V5.60629L56.0085 6.01255L55.9275 5.76879L55.8465 5.60629V5.03754L56.0895 4.46878L56.6565 4.55003L57.0615 4.71254H57.9524L58.4384 4.95629V5.11879H58.6004L58.6814 4.71254L59.0864 4.87504L59.1674 5.03754V5.85004L58.8434 6.33755L58.3574 6.7438L57.9524 6.9063H57.2235V7.63756L56.8995 10.1563L56.6565 11.4563L55.8465 17.1439L55.6845 19.0939L55.6035 19.4189V19.9877L56.4945 17.7939L57.1425 16.0876L58.5194 12.6751L59.1674 11.1313L60.2204 8.69382L61.1113 6.66255L61.8403 4.63129L61.9213 4.14378L61.1923 3.57503L60.8684 3.16877L60.7064 2.84377V1.78751L61.1923 1.13751L61.5163 1.05626L61.7593 1.21876V1.46251L61.3543 1.86876L61.2733 2.35627L61.4353 2.68127L61.6783 1.95001L62.1643 1.46251L62.5693 1.54376L63.3793 1.95001L62.9743 2.51877L62.7313 3.65628L63.0553 3.33128L63.3793 2.43752L63.4603 2.03127L63.9463 2.11252L64.6752 2.43752L64.5942 3.08752L64.2703 3.73753L64.1083 3.98128L64.5132 3.73753L64.8372 3.16877L64.9992 2.51877H65.4042L65.5662 2.76252L65.4852 3.33128L65.0802 3.98128L64.3513 4.46878L64.0273 4.55003H62.6503L61.5163 7.47506L60.6254 9.42507L60.4634 9.91258V10.2376H60.8684L61.1923 10.4813V10.6438L61.6783 10.7251L62.3263 11.2126L62.1643 11.6188L61.9213 11.7001L61.8403 11.9438L62.2453 11.7001L62.4883 11.2126H62.8123L62.7313 11.7001L62.4073 12.1063L61.8403 12.3501H61.1923L60.7874 12.2688L60.6254 12.7563L59.6534 14.4626L58.5194 16.4939L57.2235 18.8501L56.4135 20.3939L56.7375 20.0689L57.5475 19.0126L58.3574 18.0376L59.0864 17.1439L59.8154 16.3314L60.5444 15.4376L60.7874 15.1126H60.9494L61.1113 14.7876L62.0833 13.7314L62.6503 13.0814L63.7033 11.7813L63.8653 11.3751L63.4603 10.6438L63.3793 9.91258L63.6223 9.42507L64.0273 9.10007L64.5942 9.01882V9.34382L64.1083 9.66882V9.83133L64.5132 9.50632L65.0802 9.58757L65.7282 10.1563L66.9432 11.0501L66.7812 11.5376L66.2952 11.9438L65.9712 12.0251H64.9182L64.3513 11.9438L63.6223 12.9188L62.7313 13.8939L62.0023 14.7064L61.2733 15.6001L60.3014 16.6564L59.5724 17.5501L58.6004 18.6876L57.7094 19.8252L57.1425 20.3939L57.0615 20.5564L57.9524 19.8252L59.0864 18.8501L59.8154 18.2814L60.9494 17.3064L61.7593 16.6564L63.0553 15.6001L63.9463 14.8689L65.0802 13.9751L66.2952 13.0001L67.5102 12.1063L68.3201 11.4563L69.2921 10.5626L69.9401 10.0751L69.4541 9.01882V7.96256L69.8591 7.31256L70.4261 6.98755L71.0741 6.9063L71.1551 7.23131L70.5071 7.47506L70.1831 7.88131V8.28756L70.8311 7.80006L71.236 7.63756L71.803 7.71881V7.96256L70.8311 8.45006V8.61257L71.722 8.28756H72.208V8.61257L71.641 8.85632L71.236 9.10007L70.9121 9.58757V9.83133L71.398 9.66882L72.208 8.93757L72.532 8.85632L72.775 9.10007L73.18 9.58757L73.018 9.91258L72.37 10.4001L71.803 10.6438L72.046 10.7251L72.775 10.4813L73.423 9.91258H73.747L73.828 10.2376L73.423 10.7251L72.613 11.1313L71.803 11.2126L70.9121 10.9688L70.4261 10.5626L70.1021 10.6438L69.2111 11.4563L68.3201 12.1876L67.2672 13.0001L65.9712 13.9751L65.7282 14.3001L65.9712 14.3814L65.7282 14.4626L65.9712 14.7064L66.3762 14.9501L66.5382 15.2751V15.6001L67.4292 16.4939L67.2672 16.8189L66.7812 17.0626L66.3762 17.1439L66.4572 16.7376L66.2952 16.9814L65.6472 16.9001L65.4042 16.6564L64.9182 16.7376L63.2173 17.7939L61.4353 18.9314L59.7344 19.9877L58.8434 20.5564L57.7094 21.2877L58.1954 21.1252L59.7344 20.3939L62.4883 19.2564L64.9182 18.2814L66.8622 17.5501L68.4011 16.9001L69.2921 16.4939V15.4376L69.5351 14.7064L70.0211 14.3001L70.2641 14.2189H71.1551V14.4626L70.2641 14.7876L69.9401 15.1939L70.9931 14.7876L71.398 14.8689V15.1939L70.7501 15.4376L70.5881 15.6001L71.479 15.3564L71.641 15.5189V15.8439L70.6691 16.0876L70.4261 16.2501V16.4939L71.56 16.0064L71.884 16.0876V16.4126L71.0741 16.7376L71.803 16.5751L72.127 16.7376L71.965 17.0626L70.7501 17.4689H71.398L72.127 17.2251H72.451V17.5501L71.641 17.8751H70.7501L69.9401 17.3876L69.6161 16.9814L69.2921 17.0626L67.3482 17.8751L65.4042 18.6064L61.8403 20.0689L59.0054 21.2877L57.7904 21.8564L57.6285 21.9377L57.5475 22.1814L59.5724 21.8564L65.7282 20.9627L68.2391 20.6377L72.046 20.2314L74.233 19.8252L74.476 18.6876L74.9619 17.8751L75.6099 17.4689L76.3389 17.3876L76.9059 17.5501L76.9869 17.8751H75.8529L75.5289 18.0376L75.2049 18.6064L75.7719 18.4439H76.9059L77.1489 18.5251V18.7689L76.0959 18.8501L75.4479 19.1751L76.7439 19.0939L77.1489 19.3376V19.5814H76.1769L75.3669 19.7439V20.3127L76.6629 20.0689H77.3109L77.2299 20.3939L75.6099 20.8002L75.5289 20.9627L76.7439 20.7189H77.3109L77.3919 20.8814L77.2299 21.1252L76.3389 21.2877H75.6099L75.9339 21.6127L76.0959 21.6939H76.8249L77.5539 21.5314V21.8564L77.0679 22.1002H76.0149L75.3669 21.7752L74.7999 21.2064L74.395 20.3127L73.099 20.4752L70.9121 20.8002L68.6441 21.0439L68.4011 21.1252L67.5912 21.2064V21.3689L68.4011 21.2064L68.6441 21.6939V22.1814L67.5102 22.2627L67.4292 22.5064H68.5631L68.6441 22.5877V23.0752L68.4011 23.1564L67.5912 23.0752L67.8341 23.3189L68.6441 23.4002L68.7251 23.7252H67.9151L67.4292 23.4814L67.0242 22.9939L66.9432 22.5064L63.2173 22.5877L58.6814 22.8314H57.4665V23.0752L59.2484 23.2377L61.5973 23.5627L64.9182 24.1314L67.5912 24.6189L69.2111 24.7814L69.2921 24.3752L69.7781 23.7252L70.2641 23.4814H70.9121L71.398 23.7252L71.56 24.0502L70.4261 23.9689L70.3451 24.0502L71.0741 24.2939L71.398 24.4564L71.479 24.7814L71.317 24.8627L70.6691 24.6189H70.4261L71.398 24.9439L71.317 25.2689L70.0211 25.1877V25.4314L71.317 25.5939L71.236 25.9189L70.7501 26.0814L71.0741 26.1627L71.1551 26.4065L70.9121 26.6502L69.9401 26.3252L70.1831 26.569L71.0741 26.8127V27.1377H70.5071L69.8591 26.894L69.4541 26.4877L69.2111 26.1627L69.0491 25.7564V25.1877L67.8341 25.1064L61.6783 24.0502L58.0334 23.4814H57.5475L57.7904 23.7252L60.2204 24.7814L62.3263 25.5939L65.6472 26.9752L68.8061 28.3565L70.7501 29.2502L72.694 29.9815L73.261 30.2252L73.423 29.7377L74.152 29.0877L74.9619 28.7627H75.5289L76.1769 29.0877L76.5009 29.494L76.4199 29.819L76.0959 29.7377L75.5289 29.2502H74.8809L74.476 29.494L75.4479 29.819L76.0959 30.3065L76.1769 30.6315H75.8529L75.2859 30.2252L74.314 29.9815L74.7189 30.3065L75.6099 30.794L75.7719 30.9565L75.6909 31.3627L75.3669 31.2815L74.8809 30.8752L74.152 30.6315H73.99L73.828 31.119L74.233 31.2815L75.3669 31.6877L75.5289 31.9315L75.4479 32.0127L74.8809 31.9315L73.909 31.6065L73.828 31.6877L75.2049 32.419V32.6628L74.395 32.5002L73.504 32.094L73.747 32.5815L74.476 33.069L75.0429 33.2315V33.4753L74.9619 33.5565L74.233 33.4753L73.423 32.9878L72.937 32.3377L72.775 31.769L72.856 30.8752L72.937 30.5502L70.8311 29.7377L69.1301 29.0065L66.6192 27.869L67.3482 28.3565V28.6815H67.0242L66.7812 28.4377H66.6192L66.3762 28.6815L66.0522 28.7627L65.9712 29.0065H66.4572L66.3762 29.3315L65.9712 29.4127V29.5752L66.4572 29.3315H66.8622V29.0065L66.5382 28.9252V28.6815L66.7812 28.6002L67.1862 29.0065L66.8622 29.5752L66.7002 29.819L66.2952 29.9002L65.7282 29.6565V29.819L65.9712 29.9002L66.2142 30.144L66.5382 30.3065V30.469L66.2952 30.5502L65.7282 30.2252L65.3232 29.7377V28.6002L64.6752 28.194L62.3263 26.9752L58.8434 25.1064L57.6285 24.5377L58.2764 25.0252L59.4104 25.8377L62.3263 27.9502L63.7033 29.0065L64.9992 29.9815L65.7282 30.6315L67.0242 31.5252L67.5912 31.9315L67.9151 31.8502L68.4011 31.5252L68.9681 31.3627H69.7781L70.3451 31.6877L70.5881 32.094L70.5071 32.3377L70.1021 32.2565L69.7781 31.8502L69.1301 31.769V31.9315L69.6971 32.2565L70.1831 32.744V32.9878H69.7781L69.4541 32.5815L68.6441 32.1752V32.3377L69.0491 32.5002L69.6161 32.9878L69.6971 33.4753L69.5351 33.5565L69.2921 33.394V33.2315L68.9681 33.069L68.5631 32.744H68.3201L68.4011 33.069L69.3731 33.719L69.2921 33.9628L68.8871 33.8815L68.2391 33.5565L68.9681 34.2065V34.4503L68.5631 34.369L67.8341 33.8815L67.9151 34.2065L68.4011 34.6128L68.7251 34.8565L68.6441 35.1003L67.9151 34.8565L67.5102 34.5315L67.1862 33.9628V32.9878L67.4292 32.2565L67.0242 32.094L65.8902 31.2815L64.7562 30.3877L63.9463 29.7377L60.8684 27.4627L57.9524 25.3502L57.2235 24.7814L56.9805 24.7002L57.2235 25.3502L58.1144 26.4065L59.0864 27.544L59.9774 28.6815L61.0303 29.9002L62.0833 31.2815L62.9743 32.3377L63.7843 33.394L64.9182 34.8565L65.6472 35.8315L66.5382 36.8878L67.2672 37.7003L67.4292 37.944L67.8341 37.8628L68.6441 37.619H69.5351L70.2641 37.944L70.7501 38.6753V39.0816L70.3451 39.1628L69.8591 38.269L69.6161 38.1065L68.8871 38.0253L68.8061 38.1065L69.2921 38.4315L69.8591 39.0816L70.0211 39.4066V39.7316L69.6971 39.8128L69.4541 39.4066L69.1301 38.919L68.7251 38.594H68.4821L69.1301 39.244L69.3731 39.6503V40.1378L69.0491 40.2191L68.8061 39.9753L68.4011 39.1628L67.9961 38.8378L67.7532 38.919L67.9151 39.4066L68.4821 40.1378L68.8061 40.4628L68.7251 40.7066L68.3201 40.5441L67.9151 40.1378L67.4292 39.7316L67.9151 40.4628L68.2391 40.8691L68.1581 41.1128L67.6722 40.8691L67.1052 40.2191L66.8622 39.9753L67.0242 40.7066L67.3482 41.1941L67.7532 41.5191V41.6816L67.5102 41.7628L66.8622 41.4378L66.3762 40.7878L66.2952 40.4628V39.5691L66.5382 38.919L67.0242 38.269L66.4572 37.5378L65.5662 36.5628L63.4603 33.8003L62.5693 32.6628L61.8403 31.769L60.9494 30.6315L60.0584 29.5752L59.1674 28.4377L58.4384 27.6252L56.8185 25.5127L56.8995 25.8377L58.1144 27.869L58.9244 29.3315L59.8154 30.794L60.3014 31.6877L61.1113 33.069L61.5973 32.9878H62.4073L62.8123 33.3128L63.0553 33.8003V34.044H62.7313L62.4073 33.4753V33.3128H62.0023V33.5565L62.3263 33.719L62.6503 34.2065L62.4883 34.4503L61.7593 34.6128L61.1923 35.1003L61.0303 35.019V34.8565L60.6254 34.7753V34.369H60.4634L60.6254 34.8565L61.0303 35.2628L60.6254 35.4253L60.2204 35.019L60.1394 34.694V34.1253L60.4634 33.5565H60.6254L60.7064 33.1503L59.3294 30.794L58.8434 29.9815L57.7094 27.9502L56.8995 26.6502L56.3325 25.7564L56.0085 25.1877L56.2515 25.9189L56.9805 27.9502L58.1144 31.2002L59.5724 35.5878L59.8964 36.4003L60.9494 36.4815L61.5973 36.8878L61.8403 37.1315L61.9213 37.4565V38.0253L61.5973 38.1065L61.3543 37.944L61.2733 38.3503H60.7874L59.5724 38.8378L59.2484 38.7565L58.9244 38.269L59.0864 38.7565L59.1674 39.0816H58.6814L58.3574 38.6753L58.2764 38.3503V37.7815L58.6004 37.1315L59.2484 36.5628L59.1674 36.1565L58.6004 34.694L57.7904 32.094L56.5755 28.6002L55.8465 26.4877L55.6035 25.9189L55.8465 27.7877L56.0895 29.4127L56.6565 33.1503L57.2235 37.7815L57.3855 39.6503L57.7094 41.6003L57.8714 42.4128L58.4384 42.5753L59.3294 42.8191L59.9774 43.3066L60.3014 43.9566V44.5253L60.1394 44.8503L59.6534 44.9316L59.3294 44.6066L59.0864 45.1753L58.7624 45.0941V44.9316L57.9524 45.0941L57.8714 44.9316L57.9524 44.2816L57.7904 43.5503L57.7094 43.3878H57.5475V44.3628L57.6285 45.1753L57.3045 45.2566L57.0615 44.8503L56.8995 44.5253L57.0615 45.2566L56.9805 45.3378H56.5755L56.3325 44.8503L56.2515 44.4441V43.8753H56.0895V45.0941L56.1705 45.5003L55.7655 45.5816L55.5225 45.3378L55.3605 44.8503V44.1191L55.6845 43.4691L56.3325 42.9003L57.2235 42.4941L56.8995 40.3816L56.7375 39.4066L56.3325 35.669L55.6845 30.9565L55.2795 28.0315L55.1985 28.2752L54.8745 34.2065L54.7125 41.9253L54.6315 44.4441L54.5505 48.9129L54.4695 55.3317L54.3075 57.9317L53.7406 64.513L53.2546 68.088L52.7686 70.6068L52.1206 73.2881L50.9056 77.7568L49.5287 82.6319L48.1517 87.6694L46.8558 92.8695L45.8838 97.4195L45.3168 100.588L44.9118 103.676L44.6688 106.438L44.5878 107.82L44.4258 107.901H43.6159L43.4539 107.82L43.5349 105.87L43.7779 103.026L44.2638 99.6945L45.0738 95.4695L45.8838 91.8945L47.0178 87.3444L48.8807 80.6006L50.0957 76.2943L51.1486 72.3943L51.7966 69.4693L52.2826 66.6255L52.6066 63.863L53.1736 56.9567L53.2546 55.7379L53.3356 53.2192L53.4166 44.6066L53.4976 40.9503L53.0926 41.0316L52.2016 40.7878L51.1486 40.7066L51.0676 39.9753V39.6503L50.9866 40.4628L50.9056 40.7066H50.5007L50.3387 40.5441V39.8128L50.5817 39.3253L51.1486 38.8378L51.7966 38.594L52.2826 38.5128L52.5256 36.1565L52.8496 34.4503L53.4976 30.2252L53.9836 26.3252V25.7564L53.2546 27.4627L52.0396 30.5502L50.6627 33.8815L49.6097 36.319L48.4757 38.8378L47.7467 40.7878L47.5037 41.3566L47.9087 41.5191L48.3947 41.9253L48.7997 42.5753L48.8807 42.8191V43.7128L48.5567 44.2003L48.3947 44.3628H47.8277L47.9087 44.0378L48.1517 43.6316L48.2327 42.9003L48.0707 42.4941V43.0628L47.7467 43.7941L47.4228 44.1191L47.0178 44.0378L46.8558 43.7941L47.2608 43.3066L46.8558 43.7128L46.6128 43.7941L46.2888 43.6316L46.3698 43.3066L46.6938 42.6566L46.9368 41.8441L46.6128 42.0066L46.2078 42.9816L46.1268 43.4691L45.5598 43.3878L44.8308 43.0628L45.0738 42.0878L45.3978 41.6003L44.9928 41.8441L44.6688 42.4941V42.9816H44.1828L44.0209 42.8191L44.1018 42.1691L44.4258 41.6003L44.8308 41.2753L45.3168 41.0316L46.3698 40.9503L46.9368 41.0316L47.1798 40.2191L48.2327 37.619L48.8807 36.2378L49.1237 35.669V35.344L47.7467 34.694L47.4228 34.4503L47.5037 34.044L47.7467 33.9628L47.8277 33.6378L47.5037 33.8003L47.0988 34.4503L46.9368 34.369L47.0178 33.8815L47.4228 33.394L47.7467 33.2315H48.8807L49.7717 31.6065L50.7437 29.9002L51.7156 28.0315L53.1736 25.3502L53.0926 25.2689L51.9586 26.7315L50.9866 27.869L50.4197 28.6002L49.4477 29.7377L48.3947 30.9565L47.5037 31.9315L46.3698 33.3128L45.8028 33.9628L46.2888 35.1815V35.8315L46.0458 36.2378L45.7218 36.4815L45.2358 36.5628L44.9928 36.1565L44.4258 35.9128V35.7503L44.1018 35.5878V35.4253L43.6969 35.2628L42.7249 34.5315L42.8059 34.2065L43.2109 33.8003L43.6969 33.5565H44.7498L45.3168 33.6378L46.2078 32.5002L47.0178 31.6065L47.5847 30.9565L48.3947 30.0627L49.1237 29.169L50.0147 28.1127L51.0676 26.8127L51.7966 26.0002L52.5256 25.1064L52.4446 25.0252L52.0396 25.4314L51.2296 26.1627L50.3387 26.894L49.2857 27.7877L48.3947 28.519L47.5847 29.2502L46.5318 30.0627L45.1548 31.2002L43.7779 32.2565L42.3199 33.394L41.1859 34.2878L39.971 35.4253L39.809 35.5065L39.89 35.9128L40.214 36.644L40.295 37.294L40.052 38.0253L39.647 38.4315L39.08 38.7565L38.513 38.6753V38.4315L39.242 38.1065L39.485 37.7815L39.566 37.1315L38.999 37.7815L38.432 38.0253L37.946 37.944L37.865 37.7003L38.675 37.294L38.837 36.969L38.27 37.294L37.622 37.3753L37.379 37.1315L37.622 36.969L38.27 36.644L38.756 36.0753L38.837 35.7503L38.189 36.0753L37.622 36.644L37.1361 36.8065L36.4881 36.0753L36.6501 35.7503L37.298 35.2628L37.784 35.019H38.108V34.8565L37.298 35.019L36.6501 35.344L36.2451 35.7503L35.8401 35.5878L36.0021 35.1815L36.4881 34.7753L37.1361 34.5315H38.351L38.999 34.8565L39.404 35.1815L40.133 34.4503L41.0239 33.719L42.2389 32.744L44.1828 31.2815L43.5349 31.444V31.2002L43.6969 30.9565L43.1299 30.794L42.8869 30.3065L43.2109 29.9815L43.6159 29.819L43.6969 29.5752L43.2109 29.819L42.9679 29.9815L42.6439 29.9002L42.2389 29.3315L41.9959 29.169L42.0769 28.844L42.6439 28.6002H43.4539L43.8589 28.844L44.1018 29.0065L44.5068 28.9252L45.8028 28.1127L47.1798 27.219L48.8807 26.1627L50.2577 25.2689L51.7156 24.3752L50.7437 24.7814L49.0427 25.5127L45.9648 26.8127L43.7779 27.7065L41.8339 28.4377L40.376 29.0877V30.3877L40.133 30.9565L39.728 31.2815L39.08 31.444H38.675L38.513 31.2002L39.161 30.9565L39.566 30.7127V30.5502L38.918 30.794H38.351L38.27 30.469L39.08 30.144L39.242 29.9815L38.432 30.3877L38.108 30.2252L38.027 29.9002L38.756 29.6565L39.242 29.4127L39.404 29.0877L38.594 29.4127L38.027 29.7377L37.784 29.494L37.946 29.169V29.0877L37.622 28.9252V28.6815L38.351 28.3565L38.999 28.2752V28.1127H38.351L37.541 28.4377L37.2171 28.3565L37.298 28.0315L37.865 27.7877L38.675 27.7065L39.323 27.9502L39.971 28.519L40.214 28.6815L41.5099 28.0315L44.2638 26.9752L46.8558 25.9189L49.1237 24.9439L51.1486 24.0502L52.1206 23.5627L52.2016 23.4002L50.9056 23.5627L46.8558 24.2127L42.4009 24.8627L37.379 25.4314L35.6781 25.7564H35.3541L35.1921 26.9752L34.7061 27.7877L34.1391 28.1127L33.9771 28.194H33.0862L32.6812 27.9502V27.7877H33.7342L34.2201 27.544L34.4631 27.1377V26.894L34.0581 27.1377L33.8152 27.219H32.8432L32.5192 27.0565V26.8127L33.8152 26.7315L34.3011 26.4877H32.8432L32.5192 26.3252L32.4382 26.0002L33.5722 26.0814L34.3011 25.8377V25.4314L32.9242 25.5939H32.3572L32.4382 25.2689L33.1672 25.0252L33.9771 24.9439L34.1391 24.8627H33.3292L32.3572 24.9439V24.6189L32.6812 24.4564L33.1672 24.3752H34.1391L33.8152 24.0502L33.4912 23.9689H32.8432L32.0332 24.0502L32.1142 23.7252L32.9242 23.4814L33.6532 23.5627L34.3011 23.8877L34.8681 24.4564L35.2731 25.3502L37.703 24.9439L40.6999 24.6189H41.1049V24.4564H41.9959L42.0769 24.2939L41.1859 24.3752L41.0239 23.8064V23.4814L42.1579 23.3189V23.0752H41.0239V22.5064H41.9959V22.3439L40.9429 22.1814V21.9377H41.9149L42.3199 22.1814L42.6439 22.6689L42.8059 23.0752H44.3448L46.4508 22.9939L49.1237 22.8314L51.5536 22.7502L52.1206 22.6689L51.7156 22.5064L48.4757 22.1002L44.1018 21.3689L41.8339 20.9627L40.538 20.8002L40.052 21.6127L39.566 22.0189L39.404 22.1002H38.513L38.027 21.7752L38.108 21.5314L38.756 21.6939H39.242L39.323 21.4502L38.999 21.5314L38.27 21.2064L38.189 20.8814L38.918 20.9627L39.161 21.1252L38.999 20.8814L38.27 20.7189L38.351 20.3127L39.566 20.5564L39.647 20.1502L38.432 20.0689L38.351 19.7439L38.513 19.6627H39.404L38.513 19.4189V19.0939L38.756 19.0126L39.728 19.3376L39.404 19.0126L38.432 18.7689L38.513 18.5251H39.323L39.971 18.8501L40.376 19.4189L40.619 20.3127L43.2919 20.7189L46.4508 21.2877L50.6627 21.9377L52.2016 22.1814L51.7966 21.7752L46.4508 19.6627L42.5629 18.0376L40.133 16.9814L38.756 16.3314L36.7311 15.6001L36.4071 15.4376L36.2451 15.8439L35.5161 16.4939L34.6251 16.9001L33.8961 16.8189L33.1672 16.3314L33.0862 16.0064L33.3292 15.8439L34.1391 16.4126H34.7061L35.1921 16.1689L35.2731 16.0064H34.6251L33.9771 15.7626L33.4102 15.2751L33.4912 14.9501L34.1391 15.2751L34.8681 15.6001H35.3541L33.9771 14.8689L33.8152 14.7064L33.8961 14.3001H34.2201L34.6251 14.7064L35.4351 15.0314L35.6781 15.1126V14.5439L34.9491 14.2189L34.1391 13.8939V13.5689L35.1111 13.8126L35.9211 14.1376L35.5161 13.7314L34.3821 13.2439L34.3011 13.0001L34.5441 12.9188L35.8401 13.4064L36.0831 13.4876L35.7591 13.0001L35.3541 12.6751L34.6251 12.4313V12.1063L35.3541 12.1876L36.0021 12.5126L36.5691 13.1626L36.7311 13.5689V14.6251L36.6501 15.0314L38.189 15.6814L39.89 16.3314L41.4289 17.0626L41.8339 17.2251H42.2389L42.5629 17.4689L43.0489 17.6314L43.1299 17.2251H42.4819L42.1579 16.9814L42.4009 16.5751L42.6439 16.2501L43.1299 16.0876L43.3729 15.8439L43.7779 15.7626L43.6159 15.4376L42.8059 16.1689L42.7249 15.8439L43.1299 15.3564L43.3729 15.2751L43.4539 15.1126L43.0489 15.0314V14.8689L43.4539 14.9501L43.9399 15.1939L44.1828 15.6001L44.3448 15.9251L44.2638 16.9814L44.6688 17.0626L46.6128 18.1189L47.9087 18.7689L50.0957 19.9064L50.9866 20.3127L50.6627 19.9877L49.7717 19.4189L48.6377 18.6064L47.1798 17.5501L45.6408 16.4126L44.5068 15.5189L43.6969 14.7876L42.1579 13.8126L41.9959 13.6501L41.6719 13.7314L41.1859 14.1376L40.457 14.3001L39.728 14.2189L39.242 13.8939L38.999 13.5689L39.08 13.2439L39.485 13.3251L39.809 13.7314L39.971 13.8126H40.619L39.728 13.3251L39.485 13.0001V12.6751L39.809 12.5938L39.971 12.1063L40.295 12.2688L40.9429 12.8376L41.4289 13.0001L41.1859 12.5938L40.457 12.1063L40.133 11.9438L40.214 11.7001H40.6999L41.3479 12.1063L40.538 11.2938V11.1313L40.9429 11.2126L41.8339 11.7813L41.5909 11.2938V11.1313L41.1859 10.9688L40.7809 10.7251L40.8619 10.5626L41.4289 10.6438L41.9149 10.9688L42.2389 11.3751L42.4819 11.9438L42.4009 12.6751L42.1579 13.2439L43.1299 13.9751L44.2638 14.7876L45.4788 15.7626L48.2327 17.7939L49.6907 18.8501L51.0676 19.8252L52.5256 20.8814L52.6876 20.9627L52.4446 20.3127L51.7966 19.5001L50.8246 18.3626L50.0957 17.4689L49.1237 16.3314L48.3947 15.4376L46.2888 12.8376L45.3978 11.7001L44.3448 10.3188L43.5349 9.26257L42.0769 7.63756L41.3479 7.96256L40.8619 8.04381H40.133L39.485 7.80006L38.999 7.39381L38.837 6.9063V6.50005H39.323L39.647 7.23131L40.295 7.55631L40.9429 7.63756L40.133 7.15005L39.647 6.50005L39.566 5.9313L40.133 5.76879L40.457 5.44379H40.619L41.0239 6.2563L41.4289 6.7438H41.6719L41.5909 6.17505L41.1049 5.52504L40.7809 5.20004L40.8619 4.95629L41.2669 5.03754L41.9959 5.76879L42.0769 5.68754L41.5909 5.03754L41.3479 4.87504L41.4289 4.55003L41.7529 4.63129L42.1579 5.03754L42.6439 5.60629L42.5629 4.95629L42.2389 4.46878L41.8339 4.06253L41.9149 3.90003L42.4009 3.98128L42.9679 4.46878L43.2109 5.03754L43.2919 5.85004L43.0489 6.66255L42.6439 7.15005H42.4819L42.6439 7.55631L43.6969 8.77507L44.3448 9.50632L45.5598 11.1313L46.6128 12.4313L47.5037 13.5689L48.9617 15.3564L49.8527 16.4126L50.5817 17.3064L51.4726 18.3626L52.2016 19.2564L52.9306 20.0689L52.6066 19.4189L51.6346 17.8751L50.5817 16.0064L48.6377 12.7563L48.3947 12.5126L48.0707 12.5938H47.3418L46.7748 12.2688L46.5318 11.7001L46.6128 11.4563L46.9368 11.3751V11.7813L47.1798 11.9438L47.0988 11.5376V11.2126L47.7467 10.8876L48.3137 10.6438L48.9617 10.1563L49.3667 10.5626L49.4477 11.2938L49.2047 11.9438L48.8807 12.2688L49.4477 13.4064L50.8246 15.6814L51.8776 17.5501L53.0116 19.4189L53.7406 20.5564L53.4166 19.5814L52.6066 17.4689L51.0676 13.0814L50.4197 11.1313L49.7717 9.42507V9.10007L49.0427 9.18132L48.1517 8.85632L47.6657 8.28756L47.5847 7.63756L47.7467 7.47506L48.3137 7.31256L48.6377 7.15005L49.3667 6.98755L50.6627 6.50005L50.9866 6.5813L51.3106 7.15005V7.71881L50.9866 8.45006L50.3387 8.93757L50.4197 9.42507L51.0676 11.2126L51.7156 13.2439L53.0926 17.2251L53.6596 18.6876L54.0646 19.6627L53.8216 17.9564L53.3356 14.8689L52.7686 10.9688L52.1206 5.44379L51.7156 3.08752L50.5817 2.92502L49.9337 2.60002L49.4477 2.03127L49.2857 1.62501V1.05626L49.5287 0.650005H49.9337V1.78751L50.4197 2.35627H50.5817L50.3387 1.78751L50.2577 1.38126V0.812506L50.3387 0.487504L50.6627 0.406253L50.9056 0.568754L50.9866 1.70626L51.0676 1.86876L50.9866 0.812506L51.0676 0.568754L51.6346 0.487504L51.7156 0.650005V1.62501L51.7966 2.11252L52.1206 2.19377L51.9586 0.893757L51.7966 0.487504L52.3636 0.325002L52.6066 0.975007L52.6876 1.62501V1.05626L52.5256 0.325002L52.8496 0.243752L53.0926 0.325002L53.3356 1.13751L53.4166 1.70626L53.4976 1.62501V0.568754L53.3356 0.0812506L53.4976 0Z" fill="#FEFEFE"/>
<path id="Vector_2" d="M31.6298 51.4214L32.1199 51.5844L32.2833 51.7474L32.2016 52.1549H32.0382V56.8004L31.8748 59.6529L31.303 63.9724L30.9762 65.6838L30.6495 66.8248L30.4861 67.0693L30.4044 67.4768H30.6495L30.8129 66.7433L31.5481 64.8688L32.5283 61.6904L32.8551 60.1419L33.1819 57.6969L33.2636 56.2299L33.1819 55.7409L33.2636 55.6594H33.7537L33.8354 55.9039L33.5903 57.6154L33.2636 59.9789L32.8551 61.9349L32.365 63.7279L31.6298 65.9283L30.8129 67.7213L30.9762 67.8028L31.0579 67.3953L31.4664 66.5803L32.365 64.2984L33.1002 62.1794L33.672 59.8974L34.0805 57.4524L34.2438 55.8224L34.3255 54.3554L33.9988 54.2739L34.1622 53.7849L34.5706 53.7034L34.9791 54.1109L34.8157 54.4369L34.4889 57.3709L34.2438 59.0009L33.8354 60.9569L33.1819 63.4019L32.2833 65.7653L31.6298 67.1508L31.1396 68.0473L30.7312 68.6993L31.1396 68.2918L31.8748 67.1508L32.61 65.8468L33.1002 65.0318L34.3255 62.3424L34.9791 60.5494L35.6326 58.2674L36.1227 55.9039L36.2861 54.7629L36.2044 54.4369H36.3678L36.4495 54.1109L36.8579 54.1924L37.103 54.5999L36.6946 55.0889L36.2044 57.4524L35.5509 59.9789L34.4889 63.0759L33.7537 64.7058L33.0185 66.0913L31.7114 68.1288L30.8945 69.1883L29.9143 70.3293L30.3227 70.1663V70.0033L30.7312 69.6773L31.4664 68.7808L32.2833 67.7213L33.2636 66.1728L34.3255 64.2169L35.5509 61.5274L36.041 60.3049L36.6129 58.5119L36.6946 58.1044H37.1847L37.2664 58.4304L36.9396 59.0009L35.8777 61.8534L35.0608 63.8094L34.1622 65.5208L33.4269 66.6618L32.8551 67.5583L31.8748 68.8623L31.2213 69.6773V69.8403L31.9565 69.0253L33.5086 67.4768L34.1622 66.6618L34.9791 65.4393L36.2044 63.3204L37.2664 61.2014L38.0016 59.1639L38.7368 56.7189L39.1453 54.8444L38.9002 54.7629V54.5184L39.227 54.2739L39.7171 54.3554L39.7988 54.7629L39.5537 55.1704L38.9819 57.5339L38.165 59.9789L37.103 62.5869L36.4495 63.8094L35.9593 64.7058L35.3875 65.6023L34.4072 66.9063L33.7537 67.7213L33.2636 68.2918H33.1002V68.4548L32.6917 68.8623L31.8748 69.5143L32.2016 69.4328L33.672 68.3733L34.4072 67.8028L35.2241 67.0693L36.2044 66.0098L37.103 64.7058L37.9199 63.4834L38.6551 62.1794L39.3903 60.6309L39.9622 59.1639L40.2889 57.9414L40.4523 57.0449L40.8608 56.9634L41.1875 57.3709L40.8608 57.8599L40.2889 59.7344L39.5537 61.4459L38.9819 62.6684L38.165 64.1354L37.1847 65.4393L35.796 66.8248L35.6326 67.1508L36.6946 66.0913L37.3481 65.5208L38.3284 64.6243L39.1453 63.8094L39.7171 63.1574L40.4523 62.3424L41.5143 60.7939L42.0044 60.0604L42.2495 59.3269L42.4946 58.9194L42.7396 58.7564L43.1481 59.0009V59.1639H43.3115L43.2298 59.4899L42.5763 60.0604L42.0861 60.8754L41.3509 61.9349L40.2889 63.2389L38.8185 64.8688L38.165 65.5208L37.5115 66.0913L36.4495 66.9878L33.5086 69.1068L31.9565 70.0848L31.5481 70.3293L32.0382 70.1663L34.8157 68.8623L36.4495 67.8843L37.9199 66.8248L39.1453 65.7653L40.0439 64.8688L40.8608 63.8094L41.1058 63.3204L41.5143 63.2389L41.7594 63.6464L41.1058 64.2984L40.3706 65.1948L39.0636 66.4988L37.9199 67.3953L36.6946 68.2103L34.734 69.3513L33.1002 70.0848L32.7734 70.3293L35.3058 69.3513L37.1847 68.5363L38.9819 67.6398L40.6974 66.5803L41.7594 65.7653L42.7396 64.8688L43.3115 64.2984L43.965 63.4834L44.2918 62.6684L44.4551 62.5054L44.8636 62.5869L45.1904 62.9129V63.1574L44.2918 63.8909L42.4129 65.7653L41.0241 66.8248L39.7171 67.7213L38.2467 68.5363L36.9396 69.1883L35.2241 69.8403L33.2636 70.4923L34.4889 70.2478L36.6946 69.5958L38.9002 68.8623L41.1875 67.8843L42.4129 67.2323L43.8833 66.2543L44.6185 65.6023L44.8636 65.1948H45.272L45.3537 65.6023L44.5368 66.2543L43.1481 67.2323L41.7594 68.0473L39.9622 68.9438L38.0016 69.6773L36.041 70.2478L33.5086 70.8183L30.6495 71.3073H34.1622L36.2861 70.9813L38.2467 70.4923L40.9425 69.5958L42.9847 68.6178L44.4551 67.7213L45.5171 66.9063L46.4974 66.0098L47.0692 65.3578L47.3143 64.6243L47.396 64.5428H47.8861L48.0495 64.7058V65.1133L47.3143 65.6838L47.0692 66.0098H46.9059L46.7425 66.3358L45.8439 67.1508L44.5368 68.1288L42.903 69.1068L40.6974 70.1663L38.7368 70.8183L36.9396 71.2258L34.4889 71.6333L33.5903 71.7148H30.3227L29.5058 71.6333L30.3227 74.3228L31.9565 79.2943L33.2636 83.3693L34.2438 86.4663L34.9791 89.2373L35.4692 91.3563L35.8777 93.8013L36.1227 96.0833L36.2044 97.5503V100.158L36.041 102.359L35.7143 104.804L35.1424 107.738L34.9791 107.901H34.0805L33.9988 107.656L34.4889 105.13L34.8974 102.196L35.0608 99.9137V97.6318L34.8974 95.3498L34.5706 92.9048L34.0805 90.3783L33.5903 88.4223L32.6917 85.3253L32.2833 84.1843L30.9762 83.5323L30.5678 83.3693L29.8326 83.4508L28.5255 84.1028L27.1368 84.8363L25.8297 85.2438L24.8495 85.4068H23.8692L23.0523 85.2438L22.1537 84.7548L21.0917 83.9398L20.4382 83.3693V83.2063L20.7649 83.2878L21.2551 83.3693L21.9086 82.7988L23.5424 81.9023L24.6861 81.2503L25.3396 81.0058H26.4833L27.6269 81.4133L29.8326 82.5543L31.9565 83.5323L32.2016 83.6953L31.8748 82.7988L30.4044 78.3163L29.5875 75.7083L28.7706 73.2633L28.3621 71.9593V71.7148L25.4213 72.2038L23.2156 72.3668H21.01L19.0494 72.2038L17.0072 71.8778L15.7818 71.5518L13.4945 70.7368L12.1874 70.0848L10.717 69.2698L9.73673 68.5363L9.32828 68.2918L8.75645 68.1288L8.42969 67.8028L8.51138 67.2323L8.91983 66.9063L9.49166 66.9878L9.65504 67.2323L9.81842 67.9658L10.9621 68.8623L12.2691 69.6773L13.5762 70.3293L14.8015 70.8183L17.3339 71.4703L19.3762 71.8778L20.0297 71.9593H24.5227L27.0551 71.6333L24.0325 71.4703L21.4185 71.2258L19.2128 70.8998L17.2522 70.4923L15.3734 69.9218L13.4128 69.1068L12.1058 68.3733L11.3705 68.1288L11.2072 67.7213L11.4522 67.3138H11.9424L12.1874 67.5583L12.4325 67.9658L13.8213 68.7808L15.3734 69.4328L17.8241 70.1663L19.5396 70.5738L21.0917 70.8183L23.5424 71.0628L23.7058 71.1443V70.9813L22.7255 70.8183L20.5199 70.3293L17.4973 69.3513L15.7001 68.5363L14.6382 67.8843L13.5762 67.1508L12.6776 66.4173L11.8607 65.7653L11.3705 65.4393L11.2889 65.0318L11.6973 64.6243L12.0241 64.7058L12.3508 65.1133L12.4325 65.5208L13.1677 66.2543L14.3931 67.1508L15.6184 67.8843L17.3339 68.7808L19.3762 69.5958L21.0917 70.0848L23.2973 70.5738L24.0325 70.6553L21.2551 69.6773L19.6213 68.9438L17.9058 68.0473L16.7621 67.2323L15.5368 66.0913L14.9649 65.7653L14.8832 65.2763L15.1283 65.0318L15.4551 65.1133L15.9452 65.8468L17.1706 66.9063L19.1311 68.2103L19.948 68.6993L21.3368 69.3513L24.441 70.4108L25.4213 70.6553H25.6664L25.0128 70.4108L22.3987 69.1068L20.3565 68.0473L18.641 66.9063L17.7424 66.2543L16.5987 65.2763L15.3734 64.2169L14.7198 63.5649L13.9846 62.6684L13.1677 61.7719L12.7593 61.6089L12.5959 61.4459L12.6776 61.0384L13.086 60.7939L13.4128 60.9569L13.9029 61.9349L14.8832 63.0759L16.0269 64.2169L16.9255 64.9503L18.0692 65.9283L19.2128 66.7433L20.4382 67.5583L20.0297 67.0693L19.3762 66.4988L18.3959 65.4393L17.579 64.3799L16.6804 63.0759L15.7818 61.5274L14.8832 59.7344V59.5714L14.5565 59.4899L14.3114 59.0824L14.6382 58.7564H15.1283L15.21 58.8379L15.3734 59.7344L16.3537 61.7719L17.0889 62.9944L17.6607 63.7279L18.3959 64.7058L19.2945 65.6838L19.7846 66.2543L20.0297 66.4173V66.5803L20.3565 66.7433L21.2551 67.6398L22.5621 68.6178L23.8692 69.3513L25.0128 69.9218L24.6044 69.5143L23.8692 68.9438L22.9706 68.2103L21.7452 67.0693L20.2748 65.2763L18.641 62.8314L17.8241 61.3644L17.0072 59.8159L16.1086 57.6969L15.7001 56.7189L15.2917 56.4744V56.0669L15.6184 55.7409L16.0269 55.9039L16.1086 55.9854L16.272 56.9634L16.9255 58.6749L18.0692 61.0384L18.8861 62.5054L20.1114 64.3799L21.01 65.5208L21.3368 65.8468V66.0098H21.5001L22.2354 66.9063L23.134 67.8843L24.2776 68.8623L25.8297 70.0033L25.9114 69.9218L25.0945 69.1068L24.7678 68.8623V68.6993L24.5227 68.6178L23.9509 67.9658L23.2156 67.1508L22.072 65.6838L21.0917 64.1354L19.948 62.2609L18.8861 60.3049L18.3959 59.5714L18.5593 59.4084H18.9677L19.2128 59.8159L19.703 60.9569L20.8466 62.9129L21.5001 64.0539L22.3987 65.3578L23.2156 66.4173L24.3593 67.8028L24.6861 68.2103V68.3733H24.8495L25.4213 69.0253L26.4016 69.8403L27.3002 70.4108L26.6466 69.7588L25.9931 69.1883L25.1762 68.3733L24.6044 67.7213L23.6241 66.5803L22.7255 65.2763L21.5001 63.2389L20.7649 61.8534L20.2748 60.7939L19.3762 58.5934L18.4776 56.1484L18.3959 55.9039L18.1508 55.8224L18.3142 55.4149L18.8861 55.3334L19.1311 55.6594L18.9677 56.0669L19.3762 57.4524L19.948 59.0009L20.6832 60.7124L21.5818 62.5869L22.3171 63.8909L22.9706 64.8688L23.9509 66.2543L25.0945 67.7213L25.9931 68.6993L26.2382 68.8623L25.9931 68.4548L25.6664 68.1288L25.0945 67.3138L24.1959 65.8468L23.0523 63.6464L22.2354 61.8534L21.7452 60.6309L21.1734 58.7564L20.4382 55.6594L20.1931 55.2519V54.8444L20.4382 54.6814L20.9283 54.7629L21.0917 55.2519L20.8466 55.3334L21.4185 58.0229L21.9086 59.7344L22.8889 62.4239L23.7875 64.2984L25.0945 66.4988L25.9114 67.8843V68.0473L26.0748 67.9658L25.3396 66.7433L24.6044 65.4393L23.5424 63.1574L22.6438 60.7939L21.9903 58.5119L21.5818 57.0449L21.5001 56.4744L21.8269 56.3114H22.2354L22.3987 56.8819L22.1537 57.2079L22.7255 59.6529L23.6241 62.3424L24.3593 64.0539L26.3199 67.6398L26.6466 68.0473L25.748 66.1728L25.1762 64.4613L24.2776 61.4459L23.6241 58.6749L23.0523 55.2519L22.8072 52.9699L22.4804 52.5624L22.7255 52.1549L23.134 52.0734L23.4607 52.3994L23.379 52.7254H23.2156L23.4607 55.0889L23.9509 58.1044L24.441 60.3864L25.2579 63.4019L26.0748 65.7653L25.4213 62.8314L25.0128 61.1199L24.8495 60.7939V60.4679L25.4213 60.3049L25.2579 58.9194L24.8495 55.9039L24.6861 55.1704L25.2579 55.0889L25.3396 55.1704L25.4213 56.5559L25.748 59.2454L26.0748 61.1199L26.2382 62.3424L26.4833 63.6464L26.565 64.1354V63.4019L26.2382 61.0384L25.9931 60.1419L26.1565 59.9789H26.6466L26.7283 60.3864V61.1199L27.0551 63.8909L27.5452 66.8248H27.7086L27.6269 66.6618L27.3819 64.6243L26.9734 59.8159L26.7283 56.2299L26.6466 55.4964L26.4833 55.2519L26.565 54.8444L27.2185 54.7629L27.3819 55.2519L27.2185 55.5779V56.6374L27.4635 60.4679L27.7086 63.4019L28.1988 67.6398L28.3621 69.0253L28.6072 69.8403L28.6889 69.2698V66.9063L28.6072 64.8688L28.5255 61.4459L28.3621 58.9194L28.1171 55.5779L27.9537 55.3334V54.8444L28.5255 54.7629L28.6072 55.2519V56.3114L28.8523 59.5714L29.0157 63.5649L29.0974 63.8094L29.2607 65.6838L29.3424 64.8688V60.9569L29.179 60.1419L29.2607 59.7344L29.6692 59.6529L29.8326 59.7344L29.9959 62.2609L30.1593 63.3204L30.3227 63.4019L30.0776 61.6089L29.9959 55.4149L29.6692 55.3334L29.5875 55.0889L29.8326 54.6814H30.4044L30.5678 55.0889L30.4861 55.2519L30.4044 59.9789H30.8945L31.0579 60.3049L30.8945 60.9569L30.8129 61.4459L30.6495 64.3799L30.4861 65.6023H30.6495L30.7312 64.5428L31.1396 62.4239L31.4664 59.8974L31.6298 57.4524V52.2364L31.3847 52.1549V51.5844L31.6298 51.4214Z" fill="#FEFEFE"/>
<path id="Vector_3" d="M72.202 48.8926L72.6121 48.9743L72.6941 49.056V49.4647L72.4481 49.7099L72.12 51.7531L71.874 54.205L71.792 55.4309V61.3154L71.874 61.3971L71.956 60.6615L72.038 58.6183V57.0655L72.284 56.8203L72.6941 56.902L72.8581 55.5126L73.1861 52.5704V52.08H73.6782L73.7602 52.3252L73.5962 52.8156L73.2681 55.3492L72.9401 59.1904L72.7761 59.926V60.3346L73.1861 57.7193L73.2681 56.8203L73.6782 56.7386L73.8422 56.8203L73.7602 57.3107L73.4322 58.9452L73.1861 61.4788L73.1041 61.8875V63.7672L73.2681 61.8057L74.0062 57.7193L74.4983 55.104L74.8263 53.1425L74.9083 52.3252L74.9903 52.2435H75.4004L75.6464 52.4069L75.5644 52.8156L75.3184 53.0608L74.8263 55.2674L74.0062 59.8443L73.4322 63.7672L73.1861 66.3826L73.7602 64.6663L74.5803 61.1519L75.0723 59.1087L75.7284 55.7578L76.1385 53.1425V52.6521L76.2205 52.5704H76.6305L76.7125 52.979L76.3845 54.2867L75.5644 58.6183L74.6623 62.7048L74.1702 64.5028L74.7443 62.7865L75.4004 60.6615L75.8924 58.7L76.1385 57.3107L76.4665 57.2289L76.7125 57.3924L76.7945 57.6376L77.0406 56.9837L77.7786 53.9598L77.8606 53.4694H77.6966V53.0608L77.8606 52.8973L78.4347 52.979L78.5167 53.3059L78.1887 53.9598L77.3686 57.0655L77.2046 57.801L77.6966 57.9645L77.6146 58.3731L77.2046 59.3539L76.3845 61.724L76.2205 62.2961L76.8765 60.9885L77.5326 59.5173L78.1887 57.8828L79.0088 55.4309L79.7468 52.7338L80.0749 51.181L80.1569 51.0175L79.9109 50.9358L79.9929 50.6089L80.2389 50.4454L80.6489 50.5272L80.731 50.6089V51.0175L80.4849 51.3444L79.9929 53.3059L79.0088 56.5751L78.3527 58.4549L76.9585 61.8057L76.0564 63.5221L75.3184 64.5845L75.7284 64.1759L76.5485 63.1134L77.6146 61.4788L78.5987 59.926L79.5008 58.1279L80.1569 56.5751L80.5669 55.2674L80.6489 54.6136H81.141L81.223 54.7771L80.6489 56.3299L79.9929 57.9645L79.0908 59.8443L78.2707 61.3154L77.3686 62.7048L76.3025 64.0942L75.7284 64.748L76.3025 64.2576L77.1226 63.1951L78.1067 61.8057L79.0908 60.3346L79.8289 59.027L80.4849 57.7193L81.305 55.8395L81.8791 54.1232L81.9611 53.6329L81.7151 53.3877L81.9611 53.0608H82.4531L82.6172 53.2242L82.5351 53.6329L82.0431 54.9405L81.223 57.0655L80.4029 58.8635L79.2548 60.825L78.5167 62.0509L77.6966 63.1134L76.9585 64.0124L76.2205 64.8297L75.5644 65.5653L75.4824 65.7287L76.1385 65.1566L78.0247 63.2769L78.5987 62.623L79.6648 61.3971L80.4849 60.3346L81.7971 58.2914L82.8632 56.3299L83.4372 55.104L83.7653 54.0415L84.1753 53.9598L84.4214 54.1232V54.5319L84.0113 54.8588L83.1092 56.7386L82.0431 58.6183L80.895 60.4164L79.9109 61.8057L79.1728 62.623L78.5987 63.2769L77.0406 64.8297L76.3845 65.4018L75.3184 66.2191L74.6623 66.7095L75.0723 66.546L75.8924 65.9739L76.9585 65.1566L78.2707 63.9307L79.1728 63.0317L79.3368 62.7865H79.5008L79.6648 62.4596L80.3209 61.724L81.223 60.5798L81.8791 59.7625L82.4531 58.9452L83.1092 57.9645L83.2732 57.5558L83.6833 57.6376L83.7653 57.8828L83.1092 58.7L82.3711 59.7625L81.387 61.0702L80.813 61.8057L79.9109 62.8682L79.1728 63.6855L77.5326 65.1566L76.3845 66.0556L75.5644 66.6277L76.2205 66.3826L78.1067 65.2384L79.1728 64.4211L79.4188 64.3393V64.1759L80.3209 63.4403L80.977 62.7865L81.059 62.623H81.223L81.387 62.2961L82.2891 61.3154L83.0272 60.4164L83.7653 59.4356L84.7494 57.9645L85.8155 56.0847L86.1435 55.3492V54.8588H86.3076V54.6953L86.7996 54.7771L86.9636 55.104L86.4716 55.7578L85.5695 57.4741L84.6674 58.8635L84.0113 59.7625L82.8632 61.3154L81.9611 62.2961L81.387 62.9499L80.4029 63.9307L79.3368 64.748L78.1067 65.647L76.5485 66.546L77.0406 66.4643L79.2548 65.4835L80.1569 64.9932L81.551 64.0124L82.7812 62.8682L83.0272 62.7865L83.1912 62.4596L83.8473 61.8875L84.7494 60.9067L85.4875 59.926L86.3076 58.7L86.7996 57.5558L86.9636 57.3924H87.2097L87.4557 57.7193L87.3737 58.0462L86.9636 58.5366L86.1435 59.8443L85.0774 61.2336L84.1753 62.2144L83.8473 62.623L83.1912 63.1951L82.5351 63.849L81.7151 64.4211L80.4029 65.2384L81.7151 64.5845L83.9293 63.3586L85.1594 62.5413L86.2255 61.724L87.3737 60.7433L87.9477 60.0894L88.2758 59.5991L88.6858 59.6808L88.9318 60.0077L88.7678 60.3346L87.9477 60.825L87.2917 61.4788L86.1435 62.3778L85.2414 63.0317L84.4214 63.6038L83.3552 64.2576L81.7971 65.0749L79.1728 66.1374L76.9585 66.9547L76.0564 67.0364V67.1999L77.1226 67.2816L77.6146 67.445L77.7786 67.6085L79.1728 67.772H82.2071L84.5854 67.445L86.3076 67.0364L87.9477 66.4643L88.7678 66.0556L89.0139 65.8105L89.3419 65.9739L89.2599 66.3008L88.1938 66.7912L86.8816 67.2816L84.9134 67.772L83.1912 68.0989L82.5351 68.1806H76.7945L75.2364 68.0171H74.5803L76.5485 68.5075L79.1728 68.9162L80.1569 68.9979H82.4531L85.3235 68.671L87.0456 68.2623L88.6858 67.6902L89.998 67.0364L90.9821 66.3826L91.3101 65.8922L91.5561 65.8105L91.8842 66.1374L91.8022 66.4643L90.9821 66.8729L89.916 67.5268L88.6858 68.0989L86.7176 68.7527L84.8314 69.1613L83.0272 69.4065H80.5669L77.8606 69.0796L75.8924 68.671L74.0882 68.1806L73.5142 68.0989L72.4481 70.0604L71.4639 71.9401L70.5618 73.9016L69.8238 76.1083L69.4957 77.4977L69.3317 78.8871V81.012L69.5777 83.0553L70.0698 85.6706L71.2179 90.1657L71.71 91.9637L71.792 92.1272L72.284 91.3099L72.6941 90.0839L73.3502 88.7763L74.0062 87.959L74.5803 87.4686L77.2046 86.161L77.9426 85.6706L78.8447 84.8533L79.7468 83.6274L80.0749 83.137L80.2389 82.7283L80.4849 82.8101L80.6489 84.036V85.6706L80.4029 87.1417L79.8289 88.4494L79.0088 89.5936L78.4347 90.2474L77.5326 90.983L76.5485 91.4733L75.8924 91.6368L73.5962 91.882H72.9401L72.4481 91.8003L71.956 92.5358V93.1896L72.366 95.4781L72.5301 97.1944V99.8914L72.284 102.016L71.874 104.06L71.2179 106.348L70.7259 107.737L70.4798 107.901H69.5777L69.6598 107.329L70.4798 104.877L71.0539 102.425L71.2999 100.627L71.3819 99.5645V97.3578L71.2179 95.6415L70.8079 93.3531L69.4957 88.1224L68.7577 85.0985L68.3476 82.8101L68.1836 81.2572V78.6419L68.5116 76.5987L69.0037 74.8824L69.7418 72.9209L70.5618 71.1228L71.546 69.3248L72.202 68.0989L72.366 67.6902L69.9058 67.5268L67.6915 67.1181L65.5593 66.546L63.181 65.647L61.5409 64.8297L59.9007 63.6855L59.0806 63.0317L58.2605 62.2961L57.6044 61.724L56.8664 60.9067L56.4563 60.3346V60.1712L55.8823 60.0077L55.6362 59.7625V59.2721L55.8823 58.9452H56.6203L56.7844 59.1087L56.8664 59.5173V60.0077L57.4404 60.825L58.1785 61.6423L59.4086 62.8682L60.8848 63.9307L62.771 64.9932L64.4932 65.8105L66.9535 66.6277L68.4296 66.9547L70.4798 67.2816H71.0539L69.0037 66.6277L66.7074 65.8105L64.4112 64.8297L63.099 64.1759L61.8689 63.4403L60.7208 62.623L59.3266 61.4788L58.7526 60.9067L58.0965 60.4164V60.0894L58.4245 59.8443H58.8346L59.0806 60.2529L59.2446 60.7433L59.9827 61.4788L60.8028 62.1327L61.7869 62.8682L63.2631 63.7672L64.5752 64.5028L66.6254 65.4018L67.7735 65.8922L68.9217 66.2191L68.0196 65.8105L67.0355 65.3201L65.2313 64.3393L63.4271 63.1134L62.361 62.2144L61.5409 61.4788L60.9668 60.9067L60.2287 60.0077L59.4086 58.8635L58.8346 58.2097L58.7526 57.8828L59.1626 57.5558L59.5727 57.6376L59.7367 57.801V58.4549L60.3927 59.4356L61.0488 60.2529L61.9509 61.2336L62.607 61.8057L63.5911 62.7048L64.9032 63.6855L66.6254 64.748L68.8397 65.8105L68.7577 65.5653L68.2656 65.4018L66.6254 64.2576L65.7233 63.5221L64.6572 62.5413L63.5911 61.4788V61.3154H63.4271L62.689 60.2529L62.1149 59.3539L61.8689 59.1087V58.8635L62.1149 58.7H62.525L62.853 59.5991L63.4271 60.4164L64.2472 61.4788L65.0673 62.2961L65.6413 62.9499L66.5434 63.7672L67.7735 64.6663L69.5777 65.8105L70.1518 66.0556L69.3317 65.3201L68.4296 64.5845L67.1175 63.3586L66.4614 62.7865V62.623L66.1334 62.4596L65.1493 61.3971L64.2472 60.2529L63.099 58.6183L62.279 57.2289L61.2948 55.1857L60.9668 55.104L60.8848 54.6953L61.2128 54.3684L61.5409 54.4501L61.7049 54.6136L61.8689 55.4309L62.525 56.8203L63.5091 58.3731L64.1652 59.3539L64.7392 60.0894L65.4773 60.9885L66.0514 61.724L66.4614 62.0509L66.1334 61.5606L65.4773 60.4981L64.5752 58.5366L64.0011 56.8203L63.5091 54.8588L63.2631 53.7963L63.017 53.3877L63.099 53.0608L63.5091 52.8973L63.8371 53.2242L63.9191 53.4694H63.6731L64.0831 55.5943L64.5752 57.3924L65.6413 59.8443L66.3794 61.1519L66.9535 62.0509L67.7735 63.1951L69.0857 64.5845L70.0698 65.4018L70.3158 65.4835L69.8238 64.9932V64.8297H69.6598L69.0037 64.0124L68.3476 63.0317L67.5275 61.6423L66.7894 59.926L66.1334 58.1279L65.5593 56.003L65.0673 53.4694L64.8212 51.5896L64.6572 51.181L64.4932 51.0175V50.6906L64.7392 50.5272H65.1493L65.3953 51.0175L65.2313 51.0993V51.9165L65.6413 54.6136L66.1334 56.8203L66.7894 58.9452L67.1995 59.926L67.9376 61.4788L69.0037 63.3586L69.9878 64.748L70.5618 65.4018L70.7259 65.4835L69.4137 63.1951L68.5936 61.4788L67.6915 58.7818L67.1175 56.7386L66.7074 55.0222L66.5434 54.5319L66.9535 54.4501L67.1995 55.1857L67.7735 57.6376L68.4296 59.7625L69.0857 61.4788L70.0698 63.6855L70.5618 64.5845L71.2999 65.647L71.71 66.0556L71.0539 64.9932L70.1518 63.3586L69.3317 61.4788L68.5936 59.2721L68.0196 56.8203L67.6915 54.6953L67.3635 51.3444L67.2815 51.2627V50.8541H68.0196V51.3444L67.8556 51.5896L68.0196 54.0415L68.4296 56.9837L68.9217 59.1087L69.4137 60.4164L70.3158 62.7865L70.9719 64.1759L71.2999 64.748L71.2179 64.3393L70.8899 63.6038L70.3978 62.3778L69.9058 60.3346L69.4137 57.3924L69.2497 55.7578V51.3444L69.1677 50.7723L69.3317 50.6906H69.8238L69.9058 50.7723L69.8238 51.3444L69.7418 51.4262L69.6598 52.4069V56.003L69.9878 58.7L70.3158 60.4164L70.7259 61.8875L70.9719 62.7865L70.8899 62.2144L70.4798 60.1712L70.1518 58.0462L70.0698 56.902L69.9878 52.979L69.9058 52.6521L70.2338 52.4069L70.6439 52.4886L70.8079 52.7338L70.7259 53.1425L70.4798 53.2242V57.4741L70.8899 60.2529L71.1359 61.1519L71.546 63.1951H71.628L71.546 62.2144L71.4639 61.9692V54.4501L71.956 49.7916L71.874 49.1378L72.202 48.8926Z" fill="#FEFEFE"/>
<path id="Vector_4" d="M100.517 16.8596H100.866L100.779 17.2811L99.7326 17.6183L99.2093 18.0398L99.0349 18.377V18.6299L99.7326 18.1241L100.605 17.7869L101.041 17.8712L100.953 18.1241L99.2965 18.7985L99.1221 19.0514L100.866 18.4613L101.215 18.5456V18.7985L99.8198 19.2199L99.3837 19.3885L99.4709 19.7257H100.169L101.041 19.4728L101.389 19.3885V19.7257L100.605 20.1472L100.169 20.3158V20.4001L101.041 20.3158L101.477 20.1472L101.738 20.2315L101.302 20.653L100.779 20.9059L99.9942 20.9902L100.081 21.2431L100.692 21.4117L101.302 21.3274L101.738 21.0745L102 21.1588L101.302 21.7489L100.517 21.9175L99.907 21.6646L99.3837 21.2431L98.7733 20.3158L98.5989 20.1472L97.9013 20.4001L95.5467 20.9902L94.9363 21.1588H94.4131L94.7619 20.8216L96.3316 20.3158L98.3373 19.81H98.5989L98.5117 18.9671L98.7733 18.1241L99.3837 17.4497L100.081 17.0282L100.517 16.8596Z" fill="#FEFEFE"/>
<path id="Vector_5" d="M18.8192 34.562H19.2571L19.695 34.9452L20.0454 35.405L20.3081 36.0947V36.6311L20.0454 37.2442L19.7826 37.5507L19.9578 37.8573L21.1839 38.7769L22.4977 39.8498L22.7604 40.1563V40.4628L22.4101 40.3096L21.7094 39.6965L20.746 39.0068L19.695 38.1638L19.2571 38.0105L18.5565 38.4704L17.8558 38.7003H17.2427L16.5421 38.3937L16.1042 37.9339L16.0166 37.3975H16.1918L16.6297 38.0105L16.98 38.1638L17.9434 38.2404L17.6807 38.0105L16.98 37.5507L16.7173 37.0909L16.8048 36.7078L17.0676 36.9377L17.2427 37.3208L17.6807 37.4741L18.2061 37.6274L17.7682 37.2442L17.4179 36.861L17.3303 36.3246L17.5931 36.4012L18.1186 37.0143L18.5565 37.2442L19.1695 37.3208L19.082 36.9377L17.8558 35.9414V35.7115L18.2937 35.7882L19.3447 36.6311L19.6075 36.9377L19.5199 36.5545L18.7316 35.7882L18.3813 35.5583L18.4689 35.1751L18.9068 35.405L19.6075 36.0947L19.8702 36.6311L20.0454 36.5545L19.8702 35.8648L19.4323 35.2517L18.8192 34.7153V34.562Z" fill="#FEFEFE"/>
<path id="Vector_6" d="M84.8743 35.405H85.2625V35.6712L84.7966 36.0262L84.3308 36.8248L84.1755 37.8009H84.3308L84.486 37.2684L84.9519 36.5586L85.3401 36.2036H85.6507L85.7283 36.4698L85.1072 37.0022L84.7966 37.4459L84.719 37.8009H84.5637V38.0671H84.719L85.1848 37.2684L85.806 36.736L86.1165 36.8248L85.9612 37.1797L85.1848 37.8896L84.9519 38.3333V38.5107L85.4954 38.422L85.9612 38.0671L86.2718 37.6234L86.4271 37.2684L86.5824 37.7121L86.2718 38.422L85.8836 38.7769L85.806 38.9544L86.5824 38.5107L86.8153 38.2445L86.9706 37.8896L87.1259 38.2445L86.8153 38.9544L86.0389 39.4868L86.1165 39.5755H86.8153L87.2812 39.3981L87.4365 39.0431L87.6694 38.6882V39.3093L87.2812 39.8417L86.66 40.1967L85.806 40.1079L85.1848 39.753L84.7966 39.3981L84.486 39.5755L83.7096 40.3741L82.8555 41.1728L82.3121 41.7939L81.9238 42.1488H81.7686L81.8462 41.7052L82.9332 40.4629L84.0202 39.4868L84.4084 39.1319L83.9425 37.8009V37.0022L84.3308 35.9374L84.8743 35.405Z" fill="#FEFEFE"/>
<path id="Vector_7" d="M3.20331 18.5454L3.62479 18.6257L4.04628 19.1877L4.29917 19.8299V20.7131L3.87769 21.5159L3.5405 21.837L3.62479 22.1582L4.72066 23.3624L5.64793 24.5667L5.90083 25.0484V25.2892L5.56364 25.1286L4.72066 24.085L3.79339 23.0413L3.11901 22.2384L2.69752 22.399L2.02314 22.6399H1.09587L0.590083 22.399L0.168595 21.9173L0 21.5962V21.1145H0.168595L0.421488 21.6765L0.927273 22.0779L1.68595 22.1582L1.26446 21.7567L0.842975 21.275L0.67438 20.6328L0.927273 20.5525L1.34876 21.1948L1.85455 21.5962L2.10744 21.6765L1.51736 20.8736L1.34876 20.3919L1.43306 20.2314L1.68595 20.3116L2.19174 21.1145L2.52893 21.3553H3.03471L3.20331 21.1948L2.44463 20.3919L2.02314 19.8299L2.27603 19.5891L2.95041 20.3116L3.3719 20.9539L3.5405 21.0342L3.2876 20.3116L2.61322 19.5088L2.69752 19.1877L3.11901 19.4285L3.79339 20.4722L3.87769 20.7933L4.04628 20.7131L3.96198 19.9102L3.5405 19.1877L3.20331 18.7863V18.5454Z" fill="#FEFEFE"/>
<path id="Vector_8" d="M17.036 19.3884L17.7418 19.4742L18.4475 19.9885L18.8396 20.5029L19.0748 21.103V22.3031L20.4079 22.646L22.2899 23.2461L22.7604 23.589V23.7605L22.0547 23.589L19.0748 22.7318H18.918L18.5259 23.589L17.8202 24.2748L17.036 24.4463L16.3303 24.1034L16.0166 23.7605V23.589L16.8008 23.9319H17.2713L17.8202 23.589L17.8986 23.4176H17.1144L16.4871 23.0747L16.2519 22.7318L16.3303 22.5603L17.1144 22.9032L17.8202 22.8175L17.036 22.5603L16.4871 22.0459V21.8745L17.4281 22.2174H18.3691V21.8745L16.8008 21.3601L16.7223 21.0172L17.4281 21.103L18.2123 21.3601L18.5259 21.5316V21.703H18.6828L18.5259 21.2744L17.036 20.6743L16.9576 20.3314L17.1928 20.2457L17.977 20.5886L18.5259 21.0172L18.7612 21.103L18.3691 20.4171L17.8986 19.9885L17.036 19.7313L16.9576 19.5599L17.036 19.3884Z" fill="#FEFEFE"/>
<path id="Vector_9" d="M100.675 31.1902L101.157 31.237L100.916 31.518L100.555 31.5648L100.314 31.7522L99.8325 31.9863L99.4712 32.0332L99.5916 31.799L100.073 31.4712L100.675 31.1902Z" fill="#FEFEFE"/>
</g>
</svg>
