<svg width="26" height="28" viewBox="0 0 26 28" fill="none" xmlns="http://www.w3.org/2000/svg">
<path d="M13 2.61622C15.8013 2.61622 18.488 3.78624 20.4688 5.86888C22.4497 7.95153 23.5625 10.7762 23.5625 13.7215C23.5625 16.6668 22.4497 19.4915 20.4688 21.5741C18.488 23.6568 15.8013 24.8268 13 24.8268C10.1987 24.8268 7.51204 23.6568 5.53118 21.5741C3.55033 19.4915 2.4375 16.6668 2.4375 13.7215C2.4375 10.7762 3.55033 7.95153 5.53118 5.86888C7.51204 3.78624 10.1987 2.61622 13 2.61622ZM13 27.3895C16.4478 27.3895 19.7544 25.9495 22.1924 23.3863C24.6304 20.823 26 17.3465 26 13.7215C26 10.0965 24.6304 6.62 22.1924 4.05674C19.7544 1.49349 16.4478 0.0534668 13 0.0534668C9.55219 0.0534668 6.24558 1.49349 3.80761 4.05674C1.36964 6.62 0 10.0965 0 13.7215C0 17.3465 1.36964 20.823 3.80761 23.3863C6.24558 25.9495 9.55219 27.3895 13 27.3895ZM18.7383 11.2121C19.2156 10.7103 19.2156 9.89872 18.7383 9.40219C18.2609 8.90565 17.4891 8.90032 17.0168 9.40219L11.3801 15.3286L8.99336 12.8192C8.51602 12.3173 7.74414 12.3173 7.27187 12.8192C6.79961 13.3211 6.79453 14.1326 7.27187 14.6291L10.5219 18.0462C10.9992 18.548 11.7711 18.548 12.2434 18.0462L18.7383 11.2121Z" fill="#923F48"/>
</svg>
